<svg width="40" height="40" viewBox="0 0 40 40" fill="none" xmlns="http://www.w3.org/2000/svg">
<rect width="40" height="40" rx="20" fill="#F7F7F7" fill-opacity="0.5"/>
<path fill-rule="evenodd" clip-rule="evenodd" d="M26.6667 14.7061H13.5556C13.2487 14.7061 13 14.947 13 15.2443C13 15.5415 13.2487 15.7825 13.5556 15.7825H26.6667C26.9735 15.7825 27.2222 15.5415 27.2222 15.2443C27.2222 14.947 26.9735 14.7061 26.6667 14.7061ZM26.6667 19.0119H13.5556C13.2487 19.0119 13 19.2528 13 19.5501C13 19.8473 13.2487 20.0883 13.5556 20.0883H26.6667C26.9735 20.0883 27.2222 19.8473 27.2222 19.5501C27.2222 19.2528 26.9735 19.0119 26.6667 19.0119ZM13.5556 23.3175H26.6667C26.9735 23.3175 27.2222 23.5584 27.2222 23.8557C27.2222 24.1529 26.9735 24.3939 26.6667 24.3939H13.5556C13.2487 24.3939 13 24.1529 13 23.8557C13 23.5584 13.2487 23.3175 13.5556 23.3175Z" fill="#15161A"/>
</svg>
