<svg width="40" height="40" viewBox="0 0 40 40" fill="none" xmlns="http://www.w3.org/2000/svg">
<path d="M23.5677 15.5806L19.8388 19.3095L16.11 15.5806C15.9193 15.3899 15.6101 15.3899 15.4194 15.5806C15.2287 15.7713 15.2287 16.0804 15.4194 16.2711L19.1483 20L15.4194 23.7289C15.2287 23.9196 15.2287 24.2287 15.4194 24.4194C15.6101 24.6101 15.9193 24.6101 16.11 24.4194L19.8388 20.6905L23.5677 24.4194C23.7584 24.6101 24.0676 24.6101 24.2583 24.4194C24.4489 24.2287 24.4489 23.9196 24.2583 23.7289L20.5294 20L24.2583 16.2711C24.4489 16.0804 24.4489 15.7713 24.2583 15.5806C24.0676 15.3899 23.7584 15.3899 23.5677 15.5806Z" fill="#15161A"/>
</svg>
