<svg width="25" height="50" fill="none" xmlns="http://www.w3.org/2000/svg"><path d="M11.41 49.873h-2v2h2v-2Zm13.37 0v2h2v-2h-2Zm0-49.35h2v-2h-2v2Zm-9.87 0v-2h-.277l-.267.075.544 1.925ZM.56 4.583.016 2.658l-1.86.526.462 1.878 1.942-.48Zm2.59 10.5-1.942.479.475 1.924 1.929-.457-.462-1.946Zm8.26-1.96h2v-2.53l-2.462.584.462 1.946Zm0 38.75h13.37v-4H11.41v4Zm15.37-2V.523h-4v49.35h4Zm-2-51.35h-9.87v4h9.87v-4Zm-10.415.075L.016 2.658l1.09 3.849 14.35-4.06-1.09-3.849ZM-1.381 5.062l2.59 10.5 3.884-.958-2.59-10.5-3.884.958Zm4.994 11.966 8.26-1.96-.924-3.891-8.26 1.96.924 3.892Zm5.798-3.905v36.75h4v-36.75h-4Z" fill="#AB8E77"/></svg>