<svg width="40" height="50" fill="none" xmlns="http://www.w3.org/2000/svg"><path d="M.31 49.873h-2v2h2v-2Zm38.78 0v2h2v-2h-2Zm0-11.06h2v-2h-2v2Zm-20.23 0-1.147-1.639-5.198 3.639h6.345v-2Zm8.4-5.88 1.147 1.638.011-.008.012-.008-1.17-1.622ZM.59 10.533-.992 9.309l-1.18 1.527L-.69 12.07l1.28-1.537Zm9.17 7.63L8.48 19.7l1.502 1.25 1.285-1.472-1.507-1.315Zm8.89 7.49 1.214 1.59.01-.009.01-.008-1.234-1.573Zm-18.34 14-1.214-1.59-.786.6v.99h2Zm0 12.22h38.78v-4H.31v4Zm40.78-2v-11.06h-4v11.06h4Zm-2-13.06H18.86v4h20.23v-4ZM20.007 40.45l8.4-5.88-2.294-3.277-8.4 5.88 2.294 3.277Zm8.423-5.896c3.657-2.637 6.721-5.122 8.848-8.051 2.187-3.011 3.322-6.402 3.322-10.721h-4c0 3.52-.895 6.08-2.558 8.37-1.723 2.374-4.329 4.544-7.952 7.157l2.34 3.245ZM40.6 15.783v-.14h-4v.14h4Zm0-.14c0-5.187-2.08-9.647-5.705-12.783-3.604-3.117-8.61-4.827-14.355-4.827v4c4.966 0 8.989 1.474 11.738 3.852 2.727 2.359 4.322 5.704 4.322 9.758h4ZM20.54-1.967c-5.004 0-9.03.987-12.532 2.961-3.476 1.96-6.294 4.815-9 8.315l3.164 2.447c2.544-3.29 4.976-5.685 7.8-7.278 2.799-1.577 6.122-2.445 10.568-2.445v-4ZM-.69 12.07l9.17 7.63 2.56-3.075-9.17-7.63-2.56 3.075Zm11.957 7.408c3.852-4.412 5.91-5.685 8.223-5.685v-4c-4.266 0-7.389 2.647-11.237 7.054l3.014 2.63Zm8.223-5.685c1.316 0 2.178.367 2.687.825.483.435.843 1.123.843 2.215h4c0-2.06-.725-3.89-2.167-5.188-1.416-1.275-3.32-1.852-5.363-1.852v4Zm3.53 3.04c0 1.89-1.037 3.663-5.605 7.246l2.47 3.147c4.532-3.557 7.135-6.404 7.135-10.393h-4Zm-5.584 7.23-18.34 14 2.428 3.18 18.34-14-2.428-3.18ZM-1.69 39.653v10.22h4v-10.22h-4Z" fill="#AB8E77"/></svg>