<svg width="41" height="51" fill="none" xmlns="http://www.w3.org/2000/svg"><path d="m27.35 20.613-1.306-1.515-3.026 2.61 3.902.858.43-1.953Zm11.69-10.08 1.306 1.514.694-.598v-.916h-2Zm0-9.66h2v-2h-2v2Zm-35.35 0v-2h-2v2h2Zm0 10.99h-2v2h2v-2Zm18.69 0 1.343 1.482 3.842-3.482H22.38v2Zm-11.2 10.15L9.837 20.53l-.904.82.315 1.178 1.932-.516Zm1.89 7.07-1.932.516.396 1.484h1.536v-2Zm-4.2 4.55 1.428-1.4-1.408-1.437-1.428 1.417 1.408 1.42Zm-8.61 8.54-1.408-1.42-1.368 1.356 1.304 1.418L.26 42.173Zm20.86 10.68c5.837 0 11.047-1.704 14.835-4.9 3.818-3.22 6.065-7.861 6.065-13.41h-4c0 4.39-1.743 7.905-4.645 10.354-2.932 2.474-7.172 3.956-12.255 3.956v4Zm20.9-18.31v-.14h-4v.14h4Zm0-.14c0-4.703-1.61-8.3-4.324-10.91-2.655-2.553-6.216-4.02-9.916-4.834l-.86 3.907c3.3.726 6.074 1.955 8.004 3.81 1.871 1.8 3.096 4.33 3.096 8.027h4ZM28.656 22.127l11.69-10.08-2.612-3.03-11.69 10.08 2.612 3.03ZM41.04 10.533V.873h-4v9.66h4Zm-2-11.66H3.69v4h35.35v-4Zm-37.35 2v10.99h4V.873h-4Zm2 12.99h18.69v-4H3.69v4Zm17.347-3.482-11.2 10.15 2.686 2.963 11.2-10.15-2.686-2.963ZM9.247 22.529l1.89 7.07 3.865-1.033-1.89-7.07-3.864 1.033Zm3.823 8.554h5.74v-4h-5.74v4Zm5.74 0c2.394 0 3.954.444 4.851 1.02.79.509 1.129 1.143 1.129 2.02h4c0-2.274-1.061-4.16-2.966-5.384-1.798-1.156-4.228-1.656-7.014-1.656v4Zm5.98 3.04v.14h4v-.14h-4Zm0 .14c0 .929-.343 1.587-.925 2.055-.627.505-1.699.915-3.305.915v4c2.244 0 4.287-.57 5.813-1.799 1.57-1.264 2.417-3.09 2.417-5.171h-4Zm-4.23 2.97c-3.841 0-6.998-1.672-10.262-5l-2.856 2.8c3.736 3.81 7.86 6.2 13.118 6.2v-4Zm-13.098-5.02-8.61 8.54 2.816 2.84 8.61-8.54-2.816-2.84Zm-8.674 11.314c5.205 5.657 12.317 9.326 22.332 9.326v-4c-8.885 0-14.933-3.192-19.388-8.035l-2.944 2.709Z" fill="#AB8E77"/></svg>