<svg width="112" height="106" fill="none" xmlns="http://www.w3.org/2000/svg"><path d="M34.333 93.416c-4.56-2.127-9.42-5.698-14.648-10.724-.713-.682-1.494-1.377-2.263-2.138-6.513-6.018-14.564-13.56-11.737-24.043.14-.392.278-.785.552-1.153.242-.583.619-1.142 1.095-1.475 3.308-4.559 7.12-8.82 10.83-12.891 4.848-5.4 9.798-10.989 13.65-17.05.779-1.253 2.135-1.847 3.527-1.462 1.237.08 2.442 1.127 2.64 2.76.367 2.638.196 5.18.025 7.721-.1.956-.144 1.99-.176 2.958.016.698-.025 2.498-.006 3.962a96.46 96.46 0 0 0 3.09-1.748c2.955-1.771 5.99-3.598 9.554-4.497.88-.261 1.813-.027 2.63.465.748.48 1.303 1.273 1.418 2.197.38 2.57.018 5.008-.387 7.3-.131.742-.263 1.483-.326 2.237-.147 1.225-.43 2.426-.79 3.683-.108.607-.283 1.202-.39 1.808 2.237-.855 4.545-2.116 6.774-3.32 1.844-.995 3.768-2.045 5.656-2.893a3.564 3.564 0 0 1 3.227.223 3.029 3.029 0 0 1 1.53 2.356c.296 3.042-.799 5.698-1.732 7.827a20.61 20.61 0 0 0-1.095 2.657c.69-.365 1.38-.73 1.98-.971 2.791-1.244 6.011-2.551 9.58-2.685 1.678-.051 2.938 1.076 3.215 2.654.575 1.075.495 2.312-.112 3.386-2.46 4.084-5.645 7.552-8.684 10.977-1.627 1.728-3.186 3.469-4.701 5.356-2.575 3.16-5.407 6.204-8.08 9.137-1.877 1.962-3.698 4.004-5.519 6.045a3.6 3.6 0 0 1-.976.8c-.17.179-.396.278-.567.456-5.703 3.163-11.905 3.248-18.784.085ZM22.29 54.999l.448.218c5.296 2.675 10.561 6.317 14.763 9.284 3.398 2.409 5.788 5.403 8.122 8.319a109.034 109.034 0 0 0 3.437 4.153c1.692 1.829 3.36 3.792 4.62 6.1 0 0 21.405-19.224 22.726-20.798-.837.409-13.15 5.182-15.57 5.102-1.102-.056-2.165-.73-2.763-1.67-.531-.928 7.032-15.788 7.032-15.788-3.688 1.99-11.208 6.777-15.265 7.31-1.927.285-2.784 1.594-3.08-.266-.507-3.426.688-7.038 1.474-10.306.41-1.526.954-5.392 1.216-6.875-1.38.729-4.391 3.603-5.728 4.479a44.5 44.5 0 0 1-2.252 1.34l-.476.332c-1.857 1.062-5.268 3.448-7.384 1.266-.991-1.079-1.327-5.865-1.282-8.082.076-.82.276-6.277.351-7.097-2.471 2.969-6.618 10.3-9.133 13.121-2.356 2.712-4.86 5.467-7.16 8.258 2.248.258 4.1.794 5.904 1.6Zm1.391 22.004c7.603 7.323 16.447 14.31 24.685 10.97-.777-2.293-2.434-4.324-4.225-6.378-.813-.909-1.546-1.873-2.28-2.836-2.865-3.844-5.58-6.966-9.461-9.39-1.443-.88-2.862-1.896-4.294-2.845-2.414-1.678-4.884-3.435-7.437-4.721-2.866-1.48-5.598-1.755-8.715-1.82-.53 5.746 4.735 10.57 9.464 14.882.769.762 1.55 1.456 2.263 2.138Zm36.491-65.215c1.104-3.49-4.975-5.676-5.281-1.977-.363 4.802-.222 8.72-1.73 13.32-.012.067.099.225.19.102 2.567-3.508 5.451-7.239 6.82-11.445ZM38.745 16.2c-.16-4.199 2.113-8.802-.681-11.868-1.348-1.42-3.771.098-4.283 1.815-.56 1.986-.378 2.922.676 4.43 1.264 1.891 2.552 3.648 3.408 5.885.13.44.92.302.88-.261Zm-16.968 8.678c-2.045-1.404-3.532-3.614-5.486-5.141-3.116-2.428-5.184 4.158-1.71 4.564 2.462.226 4.389-.058 6.692 1.461.436.286.873-.61.504-.884ZM89.49 77.52c-1.257-1.543-2.55-1.702-4.377-2.373-2.153-.798-3.933-1.738-5.515-3.408-.59-.591-1.59.344-1.011 1.003 2.56 2.816 5.267 7.952 9.498 8.005 1.519.06 2.249-2.104 1.405-3.227Zm12.051-21.365c-4.528-.731-9.042 1.599-13.57 2.05a.214.214 0 0 0-.072.404c4.242 1.167 8.365 4.19 12.89 4.156 3.759-.03 4.459-5.954.752-6.61Zm-8.315-21.769c-2.32-1.036-4.156.307-6.17 1.48-.85.476-1.912.983-2.662 1.685-1.067.923-1.551 2.089-2.809 2.91-.475.332-.135 1.157.409.836 1.46-.784 2.514-.459 3.866-.637 1.15-.214 2.348-.697 3.498-.91 2.165-.452 3.537-.348 4.85-2.271.754-1.118.184-2.61-.982-3.093Z" fill="#3D6637"/></svg>