<svg width="118" height="33" fill="none" xmlns="http://www.w3.org/2000/svg"><path d="M7.172 32h8.404V.98H9.372L.352 3.532l1.628 6.6L7.172 8.9V32Zm27.406.616c8.8 0 14.3-7.304 14.3-16.016v-.088C48.879 7.8 43.422.584 34.666.584c-8.755 0-14.3 7.304-14.3 16.016v.088c0 8.712 5.457 15.928 14.212 15.928Zm.088-7.568c-3.431 0-5.72-3.52-5.72-8.448v-.088c0-4.928 2.244-8.404 5.632-8.404 3.432 0 5.72 3.564 5.72 8.492v.088c0 4.884-2.2 8.36-5.632 8.36Zm32.053 7.568c8.8 0 14.3-7.304 14.3-16.016v-.088C81.02 7.8 75.563.584 66.807.584s-14.3 7.304-14.3 16.016v.088c0 8.712 5.456 15.928 14.212 15.928Zm.088-7.568c-3.432 0-5.72-3.52-5.72-8.448v-.088c0-4.928 2.244-8.404 5.632-8.404 3.432 0 5.72 3.564 5.72 8.492v.088c0 4.884-2.2 8.36-5.632 8.36ZM92.084 16.6c4.18 0 6.996-3.696 6.996-7.876v-.088c0-4.136-2.772-7.788-6.908-7.788-4.224 0-7.04 3.696-7.04 7.876v.088c0 4.136 2.772 7.788 6.952 7.788Zm0-13.288c2.244 0 4.092 2.332 4.092 5.412v.088c0 2.948-1.628 5.324-4.004 5.324-2.288 0-4.092-2.332-4.092-5.412v-.088c0-2.904 1.584-5.324 4.004-5.324Zm8.096 12.628L88.3 32h3.168l10.692-14.652L114.04 1.2h-3.124L100.18 15.94Zm10.032 16.412c4.224 0 6.996-3.696 6.996-7.876v-.088c0-4.136-2.728-7.788-6.908-7.788s-6.996 3.696-6.996 7.876v.088c0 4.136 2.772 7.788 6.908 7.788Zm.088-2.464c-2.288 0-4.092-2.332-4.092-5.412v-.088c0-2.904 1.628-5.324 4.004-5.324 2.288 0 4.092 2.332 4.092 5.412v.088c0 2.948-1.584 5.324-4.004 5.324Z" fill="#3D6637"/></svg>