<svg width="183" height="184" fill="none" xmlns="http://www.w3.org/2000/svg"><path d="M100.339 94.992c.706-1.42.104-2.186.104-2.186.841-.182.899.586.899.586.375-1.181-.328-1.772-.328-1.772.752.038 1 .41 1.157.81.675 1.774-2.142 4.167-3.526 5.087.675-1.166 1.626-2.409 1.694-2.525Zm-.666 4.763s.138-.038.18-.245c0 0-.955.116-2.233 2.523.012.046.843-1.455 2.053-2.278Zm.23-.797.953-.311s-.037 2.066-1.244 1.615c0 0 .564.628-.141 1.311 0 0 .263.613-.543.737-.668.085-1.468.599-2.172 1.282 0 0 .493-3.856 3.147-4.634Z" fill="#3D6637"/><path d="M102.641 96.73c-.389.204-1.972.004-3.894 1.654a4.642 4.642 0 0 1 3.024-1.953c.472-.08 1.286-.353 1.659-.797 0 0 .417 1.546-.624 2.076l-.946-.034c-.508-.056-1.289.159-1.803.447-.857.479-1.687 1.244-1.947 1.56 1.402-2.485 3.527-2.287 4.531-2.954Zm-2.987-13.112c-.526-.298-.874-1.037-.71-1.72.073-.463.264-.86.264-.86.588.527.927 1.416.927 1.416.197-.741.64-.569.64-.569-.292.572-.126 1.558 1.139 3.126.829 1.05.992 1.84.992 1.84-.456-.955-1.327-1.797-1.857-2.29-1.188-1.098-1.496-2.242-1.496-2.242.043.529.354 1.131.686 1.63l-.585-.331Zm1.965 6.449c-1.461-.09-1.657 1.388-1.657 1.388-.514-.251-.652-.95-.55-1.125-.517.29-1.224-.498-1.224-.498.169-.292.329-.434.593-.556-.716.099-1.153-.42-1.45-.975-.324-.648-.376-1.026-.416-1.36-.055-.573.163-.682.326-.629.117.067.132.308.018.437-.113.13-.11.325-.061.508.126.652.805 1.153 1.245 1.13 0 0-.793-.37-.956-1.16a.73.73 0 0 0 .765.084c.932-.404 1.507.077 1.507.077-.48-.31-.63-1.054-.63-1.054 2.167-.596 3.427.04 4.608 3.691-.575-1.216-1.298-2.245-2.595-3.018 0 0 1.888 1.494 2.665 3.833.004.196.007.391-.049.554-.59-2.194-2.435-3.896-3.778-3.92 0 0 1.522.318 2.65 2.119 1.448 2.253 1.045 3.885-.525 5.593l-.176-.099c2.278-2.393 1.045-4.95-.31-5.02Z" fill="#3D6637"/><path d="M94.07 82.682s-.83-1.245-.885-3.29c0 0-.437 1.69.885 3.29Zm2.793.999c.907.241 2.09.407 2.79.803-2.03-1.11-3.45-.867-4.305-2.203.046-.012.4 1.117 1.515 1.4Zm-3.386-6.333s1.195-1.261 2.102-.283a.313.313 0 0 1-.154.533c-.052-.379-1.091-.927-1.912.623 0 0 .44-.759 1.147-.707-.375.446.015 1.713-.437 2.426-.473.817-.408 2.714.98 3.46 0 0-1.696-1.889-.076-3.414 0 0-.329.434.329 1.039 0 0 1.026.503 1.118 1.214 0 0 .12-.475.544-.739 0 0-.236 1.145.581 1.607.747.384 3.47 1.304 4.868 4.11-1.601-2.455-3.546-2.51-3.546-2.51-.15-.007-.36-.048-.51-.056-.29.03-.544.002-.787.02-1.77.045-3.172-.748-4.11-2.208-.958-1.356-1.788-3.336-.138-5.115Zm-7.576 21.569c-1.32-.863-1.184-1.832-1.184-1.832-.816.274-.482.966-.482.966-.914-.827-.558-1.71-.558-1.71-.63.419-.657.868-.593 1.291.307 1.877 3.935 2.497 5.589 2.582-1.213-.647-2.7-1.218-2.772-1.297Zm5.875 4.747c-2.262-1.434-3.19-1.032-3.19-1.032.082.124.279.119.279.119 1.443.044 2.911.913 2.911.913Zm1.514.857c-.938-.183-1.85-.275-2.516.006-.803.319-.883-.345-.883-.345-.95-.228-.778-1.059-.778-1.059-.815 1.008-1.882-.755-1.882-.755l.978-.22c2.724-.7 5.081 2.373 5.081 2.373Z" fill="#3D6637"/><path d="M84.76 101.602c.439-.023 1.703-1.005 4.189-.564a4.601 4.601 0 0 0-3.588-.138c-.447.172-1.286.353-1.83.161 0 0 .416 1.546 1.579 1.471l.799-.513c.41-.308 1.19-.522 1.778-.537.98-.025 2.08.211 2.462.35-2.455-1.426-4.188-.169-5.388-.23Zm-4.067-12.833c.305-.526.234-1.342-.25-1.848-.295-.36-.659-.605-.659-.605-.243.755-.089 1.695-.089 1.695-.542-.539-.837-.163-.837-.163.538.343.89 1.279.585 3.278-.188 1.329.068 2.094.068 2.094-.087-1.057.243-2.228.452-2.924.474-1.555.166-2.699.166-2.699.228.478.262 1.156.225 1.756l.339-.584Zm1.574 6.564c1.214-.824 2.124.35 2.124.35.317-.48.086-1.153-.09-1.253.591-.015.76-1.043.76-1.043-.292-.165-.501-.206-.79-.175.667-.282.784-.952.762-1.584-.046-.724-.19-1.077-.323-1.384-.24-.523-.482-.506-.596-.376-.068.117.04.333.203.386.163.053.258.223.307.406.219.627-.116 1.407-.507 1.612 0 0 .498-.726.243-1.49-.09.22-.283.421-.664.477-1.005.129-1.26.837-1.26.837.258-.513.015-1.231.015-1.231-2.167.595-2.936 1.788-2.124 5.541-.114-1.343-.006-2.6.725-3.93 0 0-.879 2.255-.378 4.67.096.17.191.34.32.451-.59-2.194.148-4.605 1.294-5.313 0 0-1.153 1.053-1.223 3.183-.12 2.684 1.045 3.886 3.255 4.554l.102-.175c-3.071-.923-3.29-3.76-2.155-4.513Z" fill="#3D6637"/><path d="M84.144 81.832c1.023 1.78.885 3.29.885 3.29.338-2.055-.885-3.29-.885-3.29Zm-.464 3.612c-.067 1.59-1.414 2.107-2.609 4.104.418-.655 1.355-1.403 2.004-2.121.866-.827.605-1.983.605-1.983Zm1.678-.755c-.123 1.751-.934 3.152-2.483 4.02a6.08 6.08 0 0 0-.688.385c-.172.097-.298.18-.412.31 0 0-1.65 1.042-1.8 3.98-.188-3.09 1.698-5.278 2.138-6.036.473-.818-.304-1.684-.304-1.684.497.01.838.359.838.359-.264-.615.357-1.62.357-1.62.264-.858-.237-1.064-.237-1.064 2.16.487 1.645 2.984 1.645 2.984.823-1.355-.071-3.023-.889-3.486-.746-.383-1.045-1.676-1.592-1.869.584-.406 1.343.024 1.343.024-1.484-.918-2.093.133-1.96.44-.31.135-.443-.172-.4-.38.292-1.308 1.955-.832 1.955-.832 2.301.643 2.59 2.821 2.489 4.469Zm9.756 5.471c-1.212.089-1.571 1.511-1.992 1.97-.018-.436-.095-1.64-.218-2.097-.607-1.892-2.077-2.763-2.307-2.7-.23.064-1.062 1.567-.639 3.51.123.456.614 1.547.863 1.92-.639-.168-1.627-1.269-2.704-.679-1.525.763-.816 3.216.57 3.226 1.388.011-.174-.099.434-1.148.337-.583 1.316-.803 1.786-.344.337.152.607.421 1.034.353-.61.119-.497.725.215.431 0 0 .058.033.012.046l-.516.289a.7.7 0 0 0-.34.387c-.05.553-.331.974-.991.91-.451-.023.383.875 1.132.719.23-.064.942-.358.9-.885.196.73.73 1.613.96 1.55.23-.063.248-1.098.052-1.828.227.476.942.378 1.218.302.725-.248.995-1.45.617-1.2-.537.394-1.003.13-1.31-.276a.69.69 0 0 0-.488-.16l-.59.014-.012-.045c.807-.124.602-.705.016-.495.402-.16.558-.496.715-.834.175-.636 1.129-.948 1.712-.618 1.05.594-.242 1.489.948.77 1.225-.779.62-3.21-1.077-3.087Zm58.982-16.04c-1.213.09-1.572 1.511-1.992 1.97-.019-.436-.095-1.64-.218-2.097-.608-1.892-2.078-2.763-2.308-2.7-.23.064-1.062 1.567-.638 3.51.123.457.614 1.547.862 1.92-.638-.168-1.626-1.269-2.704-.678-1.525.762-.816 3.215.571 3.226 1.388.01-.175-.1.433-1.149.338-.583 1.317-.803 1.786-.344.338.152.608.421 1.034.353-.61.12-.497.725.215.431l.013.046-.516.289a.704.704 0 0 0-.341.388c-.049.553-.331.973-.991.91-.451-.023.384.875 1.133.718.276-.076.942-.357.899-.885.196.73.73 1.613.96 1.55.231-.063.249-1.098.052-1.828.228.477.989.365 1.219.302.724-.248.994-1.45.617-1.199-.537.393-1.004.129-1.311-.277a.69.69 0 0 0-.488-.16l-.589.015c-.046.013-.012-.046-.012-.046.761-.111.601-.705-.031-.482.402-.16.559-.496.715-.834.175-.636 1.129-.948 1.712-.618 1.05.594-.242 1.489.949.77 1.27-.791.666-3.224-1.031-3.1ZM36.083 106.213c-1.212.088-1.57 1.51-1.991 1.969-.019-.436-.096-1.641-.218-2.097-.608-1.892-2.078-2.763-2.308-2.699-.23.063-1.062 1.566-.638 3.509.122.457.613 1.547.862 1.92-.638-.168-1.627-1.269-2.704-.678-1.525.762-.816 3.215.571 3.226 1.387.011-.175-.099.433-1.149.337-.583 1.316-.803 1.786-.344.338.152.608.421 1.034.353-.656.132-.497.725.215.431l.012.046-.515.289a.698.698 0 0 0-.34.388c-.05.552-.332.973-.992.91-.451-.023.384.875 1.132.718.277-.076.943-.357.9-.885.196.731.73 1.613.96 1.55.23-.063.295-1.11.098-1.841.227.477.942.378 1.219.302.724-.248.994-1.45.617-1.199-.538.393-1.004.129-1.311-.277a.693.693 0 0 0-.488-.16l-.59.015-.011-.046c.76-.111.601-.704-.031-.481.402-.16.558-.497.715-.834.175-.637 1.13-.948 1.712-.618 1.05.594-.242 1.488.949.769 1.224-.778.62-3.211-1.078-3.087Z" fill="#3D6637"/><path d="M86.764 73.08 72.36 80.033l5.86 21.788c.443 1.644 1.646 3.177 3.624 4.645 1.79 1.322 4.133 2.493 6.95 3.583 3.408 1.27 6.774 2.013 8.503 2.372 1.357-1.208 3.841-3.558 6.144-6.399 1.929-2.394 3.363-4.603 4.198-6.648.97-2.278 1.228-4.262.798-5.86l-5.872-21.834-15.8 1.4Zm10.762 40.013-.15-.008c-1.73-.358-5.187-1.075-8.77-2.445-2.909-1.064-5.323-2.314-7.125-3.682-2.095-1.534-3.394-3.237-3.873-5.018l-6.007-22.336 14.98-7.209 16.526-1.453 6.008 22.336c.479 1.781.199 3.87-.826 6.31-.915 2.115-2.337 4.37-4.299 6.823-2.417 2.969-5.027 5.404-6.338 6.598l-.126.084Z" fill="#3D6637"/><path d="m86.904 73.972-.39.205-11.605 5.594-1.376.77.516 1.919 4.767 17.723c.491 1.827 1.364 3.598 3.341 5.066 1.603 1.178 3.725 2.262 6.262 3.233 2.908 1.064 5.706 1.718 7.11 1.97l.103.02 1.207.257.912-.84.08-.071c1.072-.981 3.169-2.931 5.144-5.338 1.713-2.09 3-4.111 3.78-5.994 1.004-2.336.823-4.297.344-6.079l-4.767-17.723-.516-1.918-1.572.04-12.81 1.118-.53.047Zm13.435 1.211c4.877 18.134 9.051 20.96-4.246 32.955-17.879-3.571-15.45-8.703-20.168-26.243l11.605-5.594 12.809-1.118Zm-7.913 47.165c-.152-.008-.245.017-.397.01l.644 2.381c.152.008.257.028.421.081l-.668-2.472Zm1.6-.092c-.152-.007-.245.018-.397.01l.693 2.565c.152.008.245-.018.397-.01l-.693-2.565Zm3.178 1.202c.123-.279.224-.454.246-.558a2.603 2.603 0 0 0-.443-.173l.197.731Zm-1.294 1.237c.14-.038.233-.064.385-.056l-.607-2.244c-.151-.008-.257-.028-.409-.036l.632 2.336Zm-2.664-2.422c-.152-.008-.245.018-.397.01l.681 2.519c.152.007.257.028.409.036l-.693-2.565Zm3.275.289c-.105-.02-.269-.074-.42-.081l.519 1.923c.068-.117.17-.293.285-.423l-.384-1.419Zm-5.547 1.705c.163.053.267.074.43.127l-.221-.823c-.114.129-.228.259-.283.422l.073.274Zm3.849-1.981c-.152-.007-.257-.028-.409-.036l.681 2.52c.14-.039.245-.018.384-.056l-.656-2.428Zm-2.992 2.239c.164.054.27.074.42.082l-.543-2.014-.044.208c-.055.163-.124.28-.192.397l.359 1.327Zm14.152-5.717c-.127.084-.22.11-.347.193l.693 2.565c.127-.084.22-.11.347-.194l-.693-2.564Zm-.68.383c-.127.083-.22.109-.347.193l.681 2.519c.139-.039.22-.11.359-.148l-.693-2.564Zm2.405 1.459c.127-.083.195-.2.322-.284l-.557-2.061c-.071-.079-.13-.112-.142-.158-.093.026-.174.097-.267.122l.644 2.381Zm.708-1.766c-.117-.066-.269-.073-.445-.173l.358 1.327c.127-.084.195-.2.309-.33l-.222-.824Zm-3.522 3.368c.14-.038.22-.109.359-.147l-.668-2.473c-.127.084-.207.155-.334.239l.643 2.381Zm-.955-2.1a1.46 1.46 0 0 0-.322.285l.532 1.969c.059.033.164.054.223.087l.186-.051-.619-2.29Zm5.05-.781s.046-.013.034-.059c-.025-.092-.084-.126-.096-.172l.062.231Zm-2.306-.899c-.127.084-.22.109-.347.193l.681 2.519c.127-.084.207-.155.334-.239l-.668-2.473Zm-3.479 3.354c.13.112.306.211.469.265l-.382-1.419c-.115.13-.195.201-.309.331l.222.823Zm-51.905 3.853s.548.387 1.834.034c.781-.215 3.197-.585 3.197-.585.15.741.34 1.813.08 2.862-.251.9.23 1.403.23 1.403s.438-.756 1.36-1.547c3.242-2.797 10.895-9.005 13.795-10.144 2.808-1.114 5.46-.425 5.46-.425s-1.27-1.606-1.65-3.017c-.45-1.489-.978-1.98-1.755-2.304-.778-.324-2.343-.823-5.528.541-2.349.988-10.476 7.815-14.38 11.087-1.274 1.132-2.046 1.931-2.643 2.095Zm92.546-25.239s-.279.614-1.519.955c-.781.214-3.05 1.131-3.05 1.131.242.715.616 1.737 1.366 2.508.622.661.505 1.328.505 1.328s-.756-.428-1.947-.638c-4.199-.753-13.91-2.191-16.936-1.702-2.979.476-4.921 2.427-4.921 2.427s.291-2.035-.089-3.446c-.358-1.515-.15-2.207.359-2.885.508-.677 1.607-1.908 4.991-2.349 2.521-.35 12.951 1.38 17.958 2.204 1.62.337 2.686.631 3.283.467Z" fill="#3D6637"/><path d="M100.576 124.082c-4.224 1.16-8.548 1.761-9.313.751 0 0 .082.856.6 1.495.446.56 1.328.904 1.576 1.275.508.788.248 1.836.982 2.366 1.038.74 6.419-.883 7.474-1.173 1.056-.289 6.556-1.652 7.034-2.808.367-.833-.383-1.604-.34-2.543.028-.447.569-1.181.719-1.906.126-.815-.232-1.595-.232-1.595-.258 1.242-4.322 2.992-8.5 4.138Zm27.78-19.479c-.152-.007-.257-.028-.409-.035l1.091 4.031c.14-.039.245-.018.385-.056l-1.067-3.94Zm-.804-.075c-.153-.007-.258-.028-.41-.035l1.141 4.214a1.1 1.1 0 0 0 .385-.056l-1.116-4.123Zm-3.315-.232c-.152-.007-.258-.028-.398.01l1.241 4.582c.152.007.245-.018.398-.011l-1.241-4.581Zm5.036.6c-.164-.053-.282-.119-.446-.173l1.029 3.802.372-.102-.955-3.527Zm-4.976 4.008c.152.007.245-.018.397-.011l-1.24-4.58c-.153-.008-.246.017-.398.01l1.241 4.581Zm7.941-1.961c-.188-.145-.33-.303-.519-.448l.396 1.465.37-.102-.247-.915Zm-1.076-.888c-.176-.1-.318-.257-.495-.357l.656 2.427.372-.101-.533-1.969Zm-4.482 2.742c.152.007.245-.018.398-.011l-1.191-4.397c-.153-.008-.258-.028-.41-.036l1.203 4.444Zm.016-4.332c-.152-.008-.258-.028-.41-.036l1.179 4.352c.152.007.245-.018.397-.01l-1.166-4.306Zm3.893 3.861.372-.102-.768-2.84a112.01 112.01 0 0 1-.472-.265l.868 3.207Zm-12.308-2.214a3.33 3.33 0 0 0-.334.239l.334 1.236c.129.112.293.165.469.264l-.469-1.739Zm1.391-.869c-.127.084-.22.109-.348.193l.856 3.161c.13.112.248.178.366.244.059.033.071.079.13.112l-1.004-3.71Zm2.999-.914c-.14.038-.245.017-.385.056l1.228 4.535c.047-.013.106.02.152.007.047-.012.152.008.199-.005l-1.241-4.581.047-.012Zm10.167 3.387.138-.039-.213-.237.075.276Zm-12.471-2.81c-.14.038-.22.109-.36.147l1.067 3.94c.152.007.245-.018.397-.01l-1.104-4.077Zm4.713-.592c-.152-.008-.257-.028-.41-.036l1.229 4.535c.046-.013.152.008.245-.018.046-.012.105.021.152.008l-1.216-4.489Zm-3.946.334-.373.102 1.129 4.168c.152.008.245-.018.397-.01l-1.153-4.26Zm.734-.199-.372.101 1.191 4.398c.152.007.245-.018.397-.011l-1.216-4.488Zm-2.622 3.614c.164.054.294.166.458.219l-.718-2.656c-.127.084-.207.155-.334.239l.594 2.198Zm-1.612-1.431c-.033.059-.08.071-.08.071l-.114.13c.083.125.213.237.355.394l-.161-.595Zm-53.201 20.223s1.808 1.404 2.41 2.36c.591.91.744 1.842 1.653 1.739 2.6-.225 8.225-4.398 12.361-5.873 4.136-1.475 5.583-2.505 8.963-2.944 5.623-.713 7.214.069 7.214.069s-1.337-1.485-2.643-3.222c-1.071-1.412-.79-1.83-1.395-2.249-.606-.418-6.501.564-13.473 3.401-4.888 1.973-5.546 2.641-8.608 4.26-3.325 1.739-3.166 1.598-6.482 2.459Z" fill="#3D6637"/><path d="M133.126 108.106s-.853 2.134-.893 3.266c-.052 1.086.239 1.981-.597 2.356-2.355 1.133-9.302.406-13.61 1.246-4.307.839-6.072.69-9.207 2.036-5.207 2.256-6.186 3.742-6.186 3.742s.407-1.963.661-4.128c.214-1.763-.239-1.98.073-2.651.312-.67 5.935-2.844 13.325-3.944 5.207-.794 6.11-.554 9.563-.722 3.787-.209 3.534-.237 6.871-1.201Zm-34.447 8.844c-.203-.386-.57-.826-1.041-1.286a3.129 3.129 0 0 1 .031-.991c.03-.254.108-.52.185-.787.2.191.354.394.554.584.225.282.391.531.524.839a7.768 7.768 0 0 0-.253 1.641Z" fill="#3D6637"/><path d="m99.205 118.874-.046.012c.013.046.028.286.056.573.006.39-.01.883-.09.954-.045.013-.058-.033-.058-.033a5.339 5.339 0 0 1-.34-.347c.055-.162.077-.266.132-.428.043-.207.052-.357.05-.552l-.013-.045c-.138.038-.267-.074-.245-.178.033-.058.08-.07.113-.129-.012-.045.034-.058-.024-.091-.059-.033-.15-.008-.175-.099-.012-.045-.025-.091.009-.149a.152.152 0 0 1 .08-.071l-.013-.046c-.049-.182-.177-.293-.364-.438-.07-.078-.175-.099-.233-.132-.28-.119-.613-.076-.806.124-.034.058-.126.084-.16.142-.26.316-.242.752-.223 1.187.015.241-.108.519-.28.615-.125.084-.217.109-.38.056l-.012-.046c.23-.063.295-.374.187-.589-.12-.261-.319-.451-.472-.654-.07-.079-.095-.17-.165-.248-.264-.613-.068-1.352.527-1.712.515-.288 1.082-.199 1.56.11.35.198.573.479.81.806l.321.645.046-.012.046-.013c-.061-.228-.089-.514-.046-.721a2.11 2.11 0 0 1 .294-1.109c.258-.512.702-.879 1.29-.894.681-.04 1.233.543 1.312 1.206.025.092.003.195-.018.299-.018.299-.107.519-.08.805.016.241.169.443.411.426l.012.045c-.067.117-.205.155-.355.147-.196.005-.442-.172-.549-.388-.202-.385-.405-.769-.788-.909-.058-.033-.116-.066-.208-.041a.977.977 0 0 0-.757.306c-.08.071-.101.175-.135.233-.055.162-.098.37-.095.565l.012.046c.046-.013.105.02.15.007.059.033.071.079.083.124.025.091-.067.117-.1.175-.047.013-.035.058.024.091.058.033.104.02.162.053.07.079.015.241-.077.266l.013.046c.095.169.19.339.319.451.082.124.199.19.327.301 0 0-.064.312-.119.474.012.045-.021.103-.034.058-.104-.021-.364-.438-.554-.778-.108-.215-.215-.43-.24-.522l-.092.026Z" fill="#3D6637"/><path d="M99.828 121.168a1.634 1.634 0 0 1-.388-.336l-.025-.091s.087-.417.007-1.083c.265.615.548.93.548.93l.025.092-.167.488ZM83.77 62.29c-.101.175-.812 1.203-.561 1.77-.058-.033-.162-.053-.521-.102.595 1.844 1.471 1.064 1.364 1.583 0 0-.083.61-.64.372-.5-.205-.55-.387-1.435-.193.003.195.156.398.215.43 0 0-.684.58-.785 1.489 0 0 .61.615 1.453.629 0 0-.09.22-.061.506 0 0 1.136-.362 1.262-1.18.064-.31.625-.612.73.143.015.24-.298.18-.337.582-.724.248-1.447.496-2.066.764-.184.05-.38.055-.555-.044-1.968-1.074-3.178-3.923-3.053-6.21-.012-.045.055-.896 3.194-3.178.171-.096.285-.225.444-.367.24-.212.561-.3.874-.24.162.053.37.094.567.09 3.849.36 4.345 1.105 4.345 1.105 1.266 1.953 1.637 4.984.479 6.917-.101.175-.273.271-.457.322-.668.086-1.416.242-2.164.399-.236-.327-.52-.102-.582-.33-.288-.704.334-.777.558-.496.518.641 1.68.37 1.68.37a4.015 4.015 0 0 0-.307-.404c.766-.456.938-1.286.938-1.286-.497-.745-1.422-.882-1.422-.882.021-.104.052-.357-.031-.481-.861.286-.812.468-1.14.9-.362.492-.739.008-.739.008-.364-.438.794-.17.383-2.063-.297.18-.41.308-.398.354.07-.656-1.057-1.178-1.232-1.277Zm1.201 4.467a.472.472 0 0 1-.582-.33.479.479 0 0 1 .337-.582.472.472 0 0 1 .582.33c.062.228-.107.519-.337.582Zm5.802.461c-.196.005-.417-.081-.512-.25a.596.596 0 0 1-.101-.56c.647-2.185-.05-4.588-.41-5.566-.025-.09-.05-.182.03-.253a.368.368 0 0 1 .205-.154c1.575-.384 3.194-.242 4.058 1.136.91 1.365.484 3.636.046 5.127-.077.266-.328.433-.616.463-.242.018-.496-.01-.797-.025-.254-.028-.27-.269-.294-.36-.006-.39.26-.316.355-.147.145.352.757.429.757.429l-.06-.228c.413-.114.661-.476.661-.476-.11-.41-.518-.64-.518-.64a.36.36 0 0 0 .03-.254c-.438.023-.459.126-.664.28-.252.168-.325-.106-.325-.106-.12-.26.404.036.493-.919-.184.05-.23.064-.263.122.064-.312-.393-.725-.463-.803-.08.07-.57.45-.543.736-.012-.045-.07-.078-.233-.131.016.975.543.732.408.965 0 0-.122.278-.322.088-.199-.19-.211-.236-.628-.317a.517.517 0 0 0 .015.24s-.401.16-.591.555c0 0 .202.385.585.524l-.134.233s.588-.015.79-.364c.055-.162.39-.205.304.21-.01.15-.019.299-.19.395-.393.01-.739.007-1.073.05Zm-11.49 3.354c-.196.005-.279-.119-.361-.243-.224-.281.04-.402.156-.336.35.197.864-.091.864-.091a.554.554 0 0 0-.233-.132c.307-.329.242-.752.242-.752-.373-.289-.787-.175-.787-.175a.507.507 0 0 0-.108-.215c-.364.296-.306.329-.383.595-.076.265-.367.1-.367.1-.233-.131.343-.192-.132-1.04-.114.13-.147.187-.135.233-.132-.306-.733-.337-.837-.358-.021.104-.208.694.003.93-.046.012-.104-.02-.288.03.555.778.858.254.886.54 0 0 .074.273-.227.258-.254-.028-.325-.107-.714.098.025.091.141.157.153.203 0 0-.248.362-.125.818 0 0 .35.197.809.07 0 0-.022.105.061.229 0 0 .457-.322.438-.757.01-.15.203-.35.38-.056.037.137.132.307-.073.461-.251.167-.469.276-.674.43-.252.167-.552.152-.764-.084-1.17-1.048-2.63-2.801-2.528-4.444.101-1.644 1.425-2.595 2.93-3.057a.364.364 0 0 1 .254.028.357.357 0 0 1 .153.202c.178 1.028.782 3.457 2.434 5.01.14.157.236.326.193.534-.043.207-.144.382-.316.478a7.45 7.45 0 0 1-.904.493Zm12.66-4.508c.01-.15.136-.233.24-.212.15.007.233.132.211.235-.009.15-.135.233-.239.213-.104-.02-.233-.132-.211-.236Zm-13.441 3.989c-.126.084-.242.018-.313-.06-.083-.125-.015-.242.065-.312.125-.084.242-.018.312.06.07.08.061.228-.064.312Zm3.87-12.959a.322.322 0 0 1-.407-.23.326.326 0 0 1 .235-.408.322.322 0 0 1 .408.23c.003.196-.052.358-.236.408Zm-.785-2.917c-.067.117-.53.782-.374 1.18-.058-.033-.116-.066-.358-.049.377 1.218.98.71.929 1.067 0 0-.04.402-.423.263-.337-.152-.362-.243-.926-.137.025.09.12.26.132.306 0 0-.49.38-.527.977 0 0 .398.38.953.424 0 0-.055.162-.052.357 0 0 .77-.26.83-.767.043-.208.387-.4.475.114.025.091-.042.208-.052.357-.168.291-.395.55-.714.833-.171.096-.285.225-.456.32.021-.103.043-.207.018-.298a.624.624 0 0 0-.757-.428.632.632 0 0 0-.438.757c.073.273.319.45.619.466-.285.225-.604.508-.889.734a.674.674 0 0 0 .006-.345.624.624 0 0 0-.757-.428.632.632 0 0 0-.438.757.623.623 0 0 0 .757.428c-.273.27-.5.529-.714.833-.012-.046.01-.15-.003-.195a.624.624 0 0 0-.757-.428.632.632 0 0 0-.438.756c.085.32.435.517.757.429.046-.013.138-.038.171-.096-.033.058-.055.162-.089.22a.665.665 0 0 1-.432.412l-.092.026a4.503 4.503 0 0 0-.987.369c.16-.142.19-.395.141-.578a.624.624 0 0 0-.757-.428.632.632 0 0 0-.438.757.65.65 0 0 0 .665.453c-.343.193-.686.385-1.005.668a.413.413 0 0 0-.015-.24.624.624 0 0 0-.757-.428.632.632 0 0 0-.438.757c.085.319.389.529.71.44-.226.258-.395.55-.551.886l-.025-.09a.624.624 0 0 0-.757-.43.632.632 0 0 0-.438.758.624.624 0 0 0 .757.428.896.896 0 0 0 .297-.18c-.042.208-.119.474-.104.714-.021.104.003.195-.018.299-.141-.157-.42-.276-.65-.213a.632.632 0 0 0-.438.757.624.624 0 0 0 .757.428c.184-.05.297-.18.41-.309.087.32.16.593.292.9a.542.542 0 0 0-.405-.036.632.632 0 0 0-.438.757.624.624 0 0 0 .757.428c.23-.063.377-.25.466-.47.165.247.343.541.509.79a.685.685 0 0 0-.347-.003.632.632 0 0 0-.438.756c.086.32.435.517.757.429.276-.076.503-.334.475-.62.224.28.481.504.693.74l-.138.037a.632.632 0 0 0-.438.757.624.624 0 0 0 .757.428c.275-.076.502-.334.475-.62l.386.335c.2.19.545.192.75.038.96-.655 3.69-2.434 7.724-3.592 5.115-1.357 8.909-.833 8.909-.833s.156-.337.343-.927c.12.261.445.368.72.292a.632.632 0 0 0 .439-.757.624.624 0 0 0-.757-.428l-.138.038c.064-.312.174-.636.227-.993.119.261.444.368.72.292a.632.632 0 0 0 .438-.757.624.624 0 0 0-.757-.428.893.893 0 0 0-.297.18c.018-.3.036-.598.043-.943.14.157.407.231.637.168a.632.632 0 0 0 .438-.757.624.624 0 0 0-.757-.428.547.547 0 0 0-.33.238 6.561 6.561 0 0 0-.2-.925c.129.112.325.107.509.056a.632.632 0 0 0 .438-.757.624.624 0 0 0-.757-.428.624.624 0 0 0-.454.517c-.024-.092-.095-.17-.165-.249a9.21 9.21 0 0 0-.448-.562c.105.02.209.04.347.003a.632.632 0 0 0 .438-.757.624.624 0 0 0-.757-.428.632.632 0 0 0-.438.757l.024.09a3.542 3.542 0 0 0-.92-.48c.31-.135.479-.426.393-.745a.624.624 0 0 0-.757-.428.632.632 0 0 0-.438.757c.024.09.049.182.107.215-.417-.081-.809-.072-1.201-.062a.66.66 0 0 0 .346-.731.624.624 0 0 0-.757-.428.632.632 0 0 0-.438.756.635.635 0 0 0 .41.426c-.426.068-.76.111-1.035.187l-.092.025c-.23.063-.439.023-.58-.134-.058-.033-.128-.112-.187-.145.046-.012.105.02.197-.005a.632.632 0 0 0 .438-.757.624.624 0 0 0-.757-.428.632.632 0 0 0-.439.757c.013.045.037.137.096.17a7.388 7.388 0 0 0-1.033-.353.632.632 0 0 0 .438-.757.624.624 0 0 0-.757-.428.632.632 0 0 0-.438.757.674.674 0 0 0 .178.294 7.024 7.024 0 0 0-1.135-.178c.252-.167.374-.446.3-.719a.624.624 0 0 0-.756-.428.632.632 0 0 0-.438.757.5.5 0 0 0 .165.248c-.208-.04-.404-.036-.555-.044-.404-.035-.741-.187-1.032-.352a.424.424 0 0 1-.224-.281c-.169-.443.211-.499.352-.342.353.393 1.1.236 1.1.236a1.162 1.162 0 0 0-.223-.28c.515-.29.61-.854.61-.854-.331-.496-.944-.572-.944-.572.033-.059.043-.208-.04-.332-.54.197-.515.288-.73.592-.214.304-.496-.01-.496-.01-.224-.282.506-.14.266-1.395-.217.108-.25.167-.285.225-.444-.368-1.176-.705-1.28-.725Z" fill="#3D6637"/><path d="M85.81 69.776s-4.086.924-7.774 3.684l.802 1.143s3.073-2.3 7.339-3.468c4.266-1.168 8.073-.75 8.073-.75l.116-1.394c-4.556-.455-8.556.785-8.556.785Zm-14.416 53.809c.128-.084.22-.109.348-.193l-1.24-4.582c-.128.084-.221.11-.349.194l1.241 4.581Zm-4.302-2.469c-.127.084-.208.155-.335.239l1.066 3.939c.14-.038.22-.109.36-.147l-1.09-4.031Zm.021 4.47.372-.102-1.029-3.802c-.115.13-.183.247-.298.377l.955 3.527Zm4.068-7.158c-.127.084-.22.11-.347.194l1.24 4.58c.128-.084.22-.109.348-.193l-1.24-4.581Zm-3.433 2.214c-.127.084-.208.155-.335.239l1.116 4.123c.14-.039.22-.11.36-.148l-1.141-4.214Zm7.152 1.005c.128-.084.22-.11.348-.194l-1.067-3.939c-.14.038-.245.018-.384.056l1.103 4.077Zm-6.444-1.492c-.127.084-.208.155-.335.239l1.153 4.26c.14-.038.22-.109.348-.193l-1.166-4.306Zm7.304-2.627a3.482 3.482 0 0 0-.41-.036l.718 2.656c.115-.13.17-.292.285-.422l-.594-2.198Zm-3.113.306-.373.102 1.204 4.443c.127-.084.22-.109.347-.193l-1.178-4.352Zm.733-.2-.373.101 1.166 4.306c.127-.084.22-.109.347-.193l-1.14-4.214Zm3.234-.044a3.286 3.286 0 0 0-.408-.035l.457 1.694.272-.468-.321-1.191Zm-1.648-.092c-.152-.008-.245.018-.397.01l1.004 3.71c.034-.058.022-.104.056-.163.068-.117.124-.28.18-.442l-.843-3.115Zm-5.853 2.182c-.127.084-.208.155-.335.239l1.19 4.398c.128-.084.221-.109.349-.193l-1.204-4.444Zm7.912-2.005.148.549c.056-.163.111-.325.12-.475l-.163-.054s-.046.013-.105-.02Zm-7.241 1.577c-.128.084-.209.155-.336.239l1.216 4.49c.047-.013.093-.026.127-.084.094-.026.128-.084.22-.11l-1.227-4.535Zm2.143-1.173c-.093.025-.22.109-.36.147l1.24 4.581c.047-.012.128-.084.175-.096.046-.013.127-.084.174-.097l-1.229-4.535Zm-7.103 8.129.37-.101-.395-1.465c-.09.222-.133.43-.222.651l.247.915Zm1.511-.41.372-.102-.867-3.206-.273.468.768 2.84Zm-1.017-2.33c-.102.176-.158.339-.248.56l.545 2.015.371-.102-.668-2.473Zm-.928 2.566a1.012 1.012 0 0 1-.112.326l.139-.039.046-.012-.074-.275Zm47.365-46.611c1.033-.382 2.364-1.678 3.103-2.42-.059-.033-.071-.078-.129-.111-1.073-.685-1.83-1.848-2.21-2.527-.377.985-1.248 2.155-1.726 2.58-.546.542-.705-.05-.705-.05-.19.395-.114.863.092 1.443l-.512-.985s.361-1.226-.84-2.022c-1.073-.684-1.741.136-1.741.136 1.023-.233 1.244.588 1.244.588-1.554-.454-1.563 1.164-1.563 1.164.628-.417 1.177-.03 1.597.247-1.401-.251-1.677.559-1.45 1.035.399-.354.972.125 1.232.543.39.53 1.996 1.361 1.996 1.361.35.198.776.13 1.199-.134.033-.058-1.021-.307.413-.848Zm12.63 5.421c-.083-.124-.166-.248-.19-.34-1.141-2.037-2.542-3.023-4.413-3.734-.827.228-2.069.57-2.572.904-1.781 1.273 2.453 6.182 2.453 6.182s-2.689.837-2.63.87c.058.033-2.481-.591-3.146-.31-.666.28-1.834.896-.938 2.02 0 0-.405-.77.628-.417 0 0-.831.767-.129 1.358 0 0 .206-.89 1.064-.635 0 0-.926.597-.214 1.038 0 0 .401-.894.996-.519.595.376.574.48 1.239.199.665-.281.503-.335.638-.568 0 0 .478.31.426.667 0 0 .417.081.775-.605 0 0 1.089-.544 1.475-.21.341.347.721.292 1.055.25 0 0-.212-.237-.273-.465l-.012-.045c.018-.3.653.408 1.165-.076.512-.483.564-.84.306-1.064-.211-.235 1.104.432.525 1.032 0 0 1.153-.856.665-1.75-.487-.895-1.318-3.067-1.297-3.17-.012-.046-.693-.006-.911-.632 0 0 1.457.825 2.441.26l-.396-.185c.037.137.742.188 1.27-.055Z" fill="#3D6637"/><path d="M136.249 67.73c-2.075-.36-3.873.673-4.506 1.632-.531.783-.497 1.46-.574 1.727.009-.15-.23-.673-.408-.967-.332-.497.31-.87.31-.87-.645.178-1.001 1.06-.528 1.715.473.654-.279-.12-1.237.732-.97.806-.304 1.996-.304 1.996-.046-.723.666-1.017.666-1.017.86-.481 1.713.853.961.815-.752-.038-.863 1.022-.276 1.547 1.068 1.03.648 1.49.648 1.49.377-.251.193-.936.104-1.451-.043-.528.347-.733.347-.733-.086 1.151 1.317 1.403 2.483 2.063 1.167.66-.242 1.489-.242 1.489 1.771-.585 1.212-2.295-.556-2.986-1.501-.617-.58-1.606-.58-1.606.991-.174.982.711.982.711.454-1.253-.672-1.58-1.084-2.007-.927-.873-.552-2.055-.04-2.539 3.34-3.027 7.764 1.102 7.871 5.731.09 4.193-5.764 6.882-8.506 3.86-2.683-2.99-4.239-3.445-6.4-4.861-1.811-1.219-2.312-4.367-2.53-5.729.454-.517 1.068-1.912 1.136-2.764 0 0 .645.558.78 1.06.024.092.926-6.483-3.258-8.618.163.053.682-.04 1.379.16-2.386-2.433-7.101-3.05-3.116-2.575 0 0-3.491-2.866-7.727-.23 0 0-1.522.958-1.501 1.59 0 0-.212-.236.077-1.002 0 0-1.136 1.293-.635 2.234-1.25 1.422-2.057 2.282-3.395 3.19 0 0-.077.266.147.547.178.295.863 1.185.863 1.185l.604.226s-.261-.418.141-.578c.403-.16 2.619-.377 1.864.861-.451.712-1.765.24-1.827.012 0 0-.024.644.393 1.461.406.771 1.64.58 1.64.58.448-.173 1.151-.317 1.728-.378.589.72.338.888.295 1.831-.04.404.254.764-.261 1.053-.528.243-.316.48-1.078.59 0 0-.859-.254-1.842-.229-1.706.273-1.7-.072-1.863-.125-1.01-.262-3.021-.935-3.021-.935s-1.596-1.522-1.894-1.343c-.343.193-.896.345-.896.345-1.197-.407-1.891.324-1.891.324l.418.081c-1.652.11-.915 1.38-.915 1.38.807-.86 1.486-.36 1.486-.36-2.38.164-1.357 1.942-1.357 1.942-.105-.756 1.053-.681 1.541-.521-1.793-.047-1.108 1.58-1.108 1.58-.034-.678.755-.503 1.857-.266 1.461.285 1.903-.278 1.903-.278s1.79.587 3.085 1.358c1.983 1.123 4.559.954 4.559.954.878-.045 1.578.35 1.746.795 0 0 .805 1.887 2.171 2.738 1.366.85 1.022 2.514 3.659 3.31 2.637.794 4.608 1.87 6.118 4.545 1.511 2.674 3.868 4.821 4.995 5.15.905.24 2.563 1.256 3.159 1.632l-.092-.71.325.842s.731 3.084.9 3.528c.227.477-.003.54-.003.54-.568-.088-.67.087-.67.087l-.546.542c-1.968.59-.838 1.849-.838 1.849-.298-.556-.049-.918.203-1.086-.433.414.052 1.114.052 1.114-.126-.652.506-.14 1.151-.317s.132-1.164.132-1.164c.893.196.132 1.043.316.992.184-.05 1.943-.681 2.64-1.216.697-.535-.206-1.317-.206-1.317.31-.134.593.18.593.18-.043-.527-.909-1.172-.909-1.172l.801.221-.519-.642c-1.329-1.449.522-3.576-1.384-4.229-1.906-.652-2.447-3.397-2.447-3.397-.064 1.047.313 2.268.313 2.268-.518-.642-.77-.475-.743-3.13.049-2.025-1.722-4.382-2.594-5.418 1.529 1.64 3.273 2.24 3.273 2.24l-.768-.28c3.604 1.265 7.318-.737 8.559-2.746 2.777-4.196-.937-10.286-4.299-10.833ZM67.067 91.576c-1.082.2-2.878-.236-3.887-.498.034-.058.068-.116.055-.162.583-1.14.653-2.53.64-3.31.82.657 2.156 1.22 2.781 1.341.788.175.583-.405.583-.405.361.244.53.687.643 1.292l-.052-1.112s-.925-.871-.288-2.173c.582-1.139 1.57-.774 1.57-.774-1 .324-.779 1.144-.779 1.144 1.113-1.187 1.931.204 1.931.204-.75-.038-1.03.577-1.254 1.03 1.083-.934 1.726-.376 1.77.15-.522-.101-.776.606-.792 1.1-.07.655-1.039 2.195-1.039 2.195-.202.349-.603.508-1.1.498-.058-.033.726-.787-.782-.52Zm-8.08 11.087c.01-.149.018-.298-.006-.39-.037-2.34.677-3.908 1.934-5.478.828-.228 2.07-.57 2.67-.539 2.175.186.982 6.588.982 6.588s2.738-.655 2.704-.597c-.033.058 1.843-1.78 2.557-1.878.715-.099 2.03-.167 1.822 1.262 0 0-.037-.871-.752-.038 0 0 1.101.236.791 1.105 0 0-.622-.662-1.235-.004 0 0 1.098.042.705.786 0 0-.794-.565-1.119.063-.325.628-.255.707-.923.792-.714.099-.6-.03-.834-.162 0 0-.257.511-.034.793 0 0-.318.283-.971-.125 0 0-1.212.088-1.377.575-.166.486-.475.62-.785.754 0 0 .064-.311.003-.539l-.012-.046c-.12-.261-.359.686-1.043.531-.683-.154-.907-.436-.797-.76.064-.312-.736.937.065 1.158 0 0-1.423-.148-1.45-1.169-.028-1.021-.4-3.319-.47-3.397-.012-.046.595-.36.47-1.011 0 0-.844 1.456-2.021 1.486l.248-.362c-.01.15-.592.555-1.122.602Z" fill="#3D6637"/><path d="M41.804 105.517c2.075 1.096 6.327.908 8.755-2.015l-.789.56s1.204-1.41 1.7-3.606c-.233 1.339-.533 4.266.477 5.999 1.354 2.276 1.099 2.248.94 3.125 0 0-.24-1.258-.867-2.115 0 0 .91 2.643-.408 4.182-1.317 1.539 1.345 2.426.925 4.356l-.126.819.58-.601s-.424.999-.197 1.476c0 0 .087-.416.421-.458 0 0-.445 1.103.482 1.24.869.105 2.747-.265 2.886-.303.184-.05-.897-.391-.224-1.017 0 0 .064 1.159.696.936.645-.177.934-.943 1.152-.316 0 0 .067-.852-.513-.987.313.061.743.188.718.832 0 0 .344-1.664-1.648-1.165l-.743-.188s-.175-.099-.62.269c0 0-.184.05-.274-.465-.043-.527-.991-3.503-.991-3.503l-.141-.893.276.659c.325-.628 1.246-2.353 1.906-3.025.807-.859 1.811-3.931 1.728-6.997-.037-3.08 1.123-5.017 3-7.053 1.875-2.036.745-3.295 1.497-4.727.752-1.433.5-3.473.5-3.473-.077-.469.283-1.156 1.108-1.58 0 0 2.306-1.173 3.454-3.156.776-1.341 1.98-2.751 1.98-2.751s.663.26 1.78-.735c.878-.78 1.424-1.323 1.734-.722 0 0-.19-1.811-1.746-.795.34-.388 1.301-1.044 1.59-.339 0 0-.01-2.057-2.143-.98 0 0 .38-.791 1.474-.405 0 0 0-1.471-1.48-.721l.32-.284s-.952-.229-1.793.689c0 0-.6.165-.946.162-.347-.003-.96 2.128-.96 2.128s-1.444 1.622-2.137 2.353c-.08.07.064.423-1.544 1.061-.86.482-1.474 1.141-1.474 1.141-.712.294-.635.028-1.225.043-.577.06-.503-.401-.752-.774-.51-.792-.81-.807-.663-1.73.54-.198 1.206-.48 1.68-.56 0 0 1.172-.42 1.123-1.339-.037-.873-.393-1.461-.393-1.461.107.215-.79 1.295-1.593.88-1.26-.636.748-1.629 1.175-1.697.427-.069.412.426.412.426l.408-.505s.144-1.118.15-1.463c.006-.345-.147-.548-.147-.548-1.667-.13-2.735-.425-4.525-1.012-.04-1.068-1.667-1.601-1.667-1.601.632.513.568.825.568.825-.344-.543-2.09-.603-2.09-.603-5.02-.09-6.548 4.154-6.548 4.154 3.244-2.46-.513.485-1.397 3.817.5-.53 1.028-.773 1.154-.856-2.538 3.983 1.545 9.236 1.508 9.099-.135-.502.141-1.314.141-1.314.519.642 1.713 1.589 2.364 1.802.54 1.274 1.685 4.245.734 6.223-1.154 2.328-2.256 3.563-3.085 7.468-.816 3.952-7.245 4.69-9.268 1.028-2.225-4.047-.479-9.872 3.917-8.972.684.155 1.6.982 1.237 2.21-.153.532-.96 1.392.07 2.285 0 0-.45-.758.492-1.116 0 0 1.29.382.304 1.682-1.133 1.489-.758 3.249 1.016 2.86 0 0-1.63.006-.955-1.16.676-1.167 1.818-2.07 1.108-3.051 0 0 .44-.023.667.454.227.477.411 1.162.816 1.198 0 0-.592-.18-.187-1.616.23-.799-.384-1.61-1.013-1.193-.63.419-.516-1.182.42-1.194 0 0 .762-.111 1.084.536 0 0-.021-1.368-1.262-1.566-1.24-.199-1.467.796-1.387-.01.08-.808-.67-1.386-1.314-1.209 0 0 .74-.007.703.591-.052.358.049.919.132 1.043-.154-.203-.51-.792-1.36-1.195-.967-.47-3.082-.428-4.703.9-2.508 2.26-2.661 9.412 1.836 11.609Z" fill="#3D6637"/><path d="M77.452 40.848c-28.256 7.77-45.095 36.858-37.56 64.88 7.537 28.023 36.625 44.483 64.881 36.714 28.256-7.769 45.095-36.857 37.559-64.88-7.582-28.01-36.67-44.47-64.88-36.714Zm27.456 102.096c-28.532 7.845-57.97-8.813-65.58-37.109-7.61-28.297 9.432-57.735 37.965-65.58 28.532-7.845 57.97 8.813 65.579 37.11 7.576 28.355-9.432 57.734-37.964 65.579Z" fill="#3D6637"/><path d="M72.297 21.68C33.364 32.385 10.18 72.433 20.564 111.044c10.372 38.566 50.477 61.26 89.364 50.568 38.886-10.692 62.104-50.798 51.732-89.363-10.383-38.612-50.477-61.26-89.363-50.569Zm37.987 141.256c-39.669 10.907-80.532-12.217-91.1-51.513C8.604 72.082 32.26 31.218 71.929 20.311c39.668-10.907 80.532 12.216 91.112 51.558 10.521 39.309-13.134 80.172-52.757 91.067Z" fill="#3D6637"/><path d="M72.664 23.049c-38.15 10.49-60.895 49.78-50.72 87.615 10.163 37.79 49.453 60.023 87.557 49.545 38.104-10.477 60.849-49.766 50.686-87.556-10.129-37.848-49.419-60.081-87.523-49.604Zm37.079 137.878c-38.564 10.604-78.262-11.86-88.535-50.061-10.285-38.246 12.696-77.944 51.26-88.547 38.518-10.591 78.262 11.86 88.547 50.106 10.227 38.213-12.753 77.911-51.272 88.502Z" fill="#3D6637"/><path d="M67.654 62.93c-.666-1.734.219-2.32.219-2.32-1.017-.458-1.202.33-1.202.33-.266-1.353.727-1.723.727-1.723-.897-.197-1.31.113-1.56.477-1.147 1.641 2.041 4.993 3.608 6.382a59.601 59.601 0 0 0-1.792-3.146Zm.164 5.13s-.175-.099-.178-.294c0 0 1.167.465 2.337 3.337.013.046-.828-1.786-2.159-3.042Zm-.188-.881-1.157-.616s-.268 2.137 1.308 2.097c0 0-.828.424-.07 1.395 0 0-.456.518.606.964.829.313 1.734 1.096 2.48 2.021.033-.059.002-4.226-3.167-5.861Z" fill="#3D6637"/><path d="M64.572 63.93c.446.367 2.465.696 4.573 3.012-.572-1.02-1.761-2.313-3.44-3.03-.558-.239-1.505-.813-1.907-1.39 0 0-.741 1.48.442 2.382l1.162.27c.673.109 1.582.546 2.215 1.059.996.757 1.927 1.826 2.142 2.258-1.413-3.047-4.072-3.543-5.187-4.562Zm5.61-12.525c.747-.156 1.255-.834 1.163-1.542-.042-.526-.165-.98-.165-.98-.836.375-1.366 1.157-1.366 1.157-.116-.8-.716-.83-.716-.83.287.703-.056 1.628-1.905 2.82-1.222.777-1.498 1.586-1.498 1.586.701-.877 1.926-1.459 2.683-1.764 1.672-.753 2.233-1.787 2.233-1.787-.108.519-.653 1.06-1.097 1.426.196-.005.426-.068.668-.086Zm-3.397 6.011c1.831.379 1.81 1.952 1.81 1.952.668-.086.98-.76.873-.975.574.48 1.592-.144 1.592-.144-.203-.385-.344-.542-.647-.752.87.3 1.511-.073 1.931-.531.488-.575.644-.912.742-1.282.154-.532-.104-.755-.3-.75-.138.038-.227.258-.12.474.108.215.052.377-.003.54-.279.615-1.186.913-1.72.766 0 0 1.061-.096 1.395-.873-.218.109-.576.06-.984-.17-1.073-.685-1.889-.412-1.889-.412.644-.177.944-.896.944-.896-2.572-1.3-4.23-1.04-6.291 2.317.941-1.091 1.968-1.863 3.728-2.298 0 0-2.606.961-3.912 3.084-.043.207-.04.402-.037.597 1.064-2.104 3.621-3.248 5.326-2.786 0 0-1.92-.158-3.64 1.343-2.164 1.869-1.87 3.698-.183 5.928l.184-.05c-2.395-3.211-.479-5.452 1.201-5.082Z" fill="#3D6637"/><path d="M77.258 52.263s1.253-1.028 1.577-3.121c.013.045.26 1.883-1.577 3.12Zm-3.665.127c-1.188-.016-2.68-.241-3.577-.093 2.68-.491 4.398.21 5.638-.864 0 0-.665 1.013-2.061.957ZM78.802 47s-1.284-1.65-2.576-.954c-.171.096-.281.42.114.605.097-.37 1.512-.611 2.256 1.237 0 0-.44-.905-1.332-1.1.356.586-.272 1.736.169 2.641.465.996.092 2.907-1.749 3.217 0 0 2.389-1.389.637-3.498 0 0 .343.541-.585.943 0 0-1.38.184-1.589.876 0 0-.043-.526-.545-.925 0 0 .147 1.279-.992 1.445-.943.161-4.517.263-6.635 2.654 2.379-1.974 4.798-1.416 4.798-1.416l.624.121c.371.094.696.2.962.274 2.19.62 4.017.265 5.475-.917 1.378-1.112 2.722-2.899.968-5.202Zm-23.87 16.78a1.162 1.162 0 0 1-1.519-.512 4.092 4.092 0 0 1-.3-.748c.76-.11 1.48.18 1.48.18-.31-.599.1-.907.1-.907.114.604.79 1.102 2.658 1.078 1.188.016 1.736.403 1.736.403-.857-.254-2.008-.133-2.651.044-1.507.267-2.38-.226-2.38-.226.328.3.907.435 1.415.49a2.378 2.378 0 0 0-.539.198Zm5.087 2.554c-1.091 1.084-.346 2.201-.346 2.201-.482.23-1.006-.066-1.009-.261-.187.59-1.168.615-1.168.615-.04-.332.003-.54.08-.806-.475.62-1.052.681-1.585.534-.592-.18-.883-.345-1.082-.535-.328-.302-.298-.555-.126-.651.138-.038.267.073.27.269.003.194.12.26.248.372.478.31 1.248.049 1.554-.28 0 0-.778.41-1.373.034.242-.017.435-.217.58-.6.422-.997 1.112-1.187 1.112-1.187-.493.185-1.088-.19-1.088-.19 1.168-2.085 2.44-2.68 5.417-1.343-1.125-.327-2.223-.368-3.612.16 0 0 2.22-.56 4.127.286a1.4 1.4 0 0 1 .306.406c-1.689-.956-4.003-.565-4.944.526 0 0 1.207-1.017 3.15-.768 2.35.285 3.018 1.668 2.858 4.014l-.171.096c.202-3.288-2.186-3.904-3.198-2.892Z" fill="#3D6637"/><path d="M50.415 67.657s-1.317-.127-2.548-1.401c.046-.013.68 1.426 2.548 1.401Zm2.614-1.647c.787-.558 1.73-1.452 2.44-1.745-2.072.912-2.917 2.17-4.338 2.023.012.045.907.435 1.898-.278Zm-6.075-1.312s.123-1.744 1.332-1.832c.15.008.383.14.169.443-.245-.177-1.357.275-1.008 1.938 0 0-.128-.844.417-1.385.009.584.986 1.098 1.102 1.896.141.89 1.243 2.053 2.698 1.41 0 0-2.315.196-2.052-2.125 0 0-.003.539.802.415 0 0 1.054-.485 1.486-.163 0 0-.203-.385-.05-.915 0 0 .5.938 1.336.561.744-.35 3.233-1.914 5.827-1.258-2.542-.28-3.947 1.28-3.947 1.28-.114.128-.273.27-.386.399-.18.245-.374.444-.52.631-1.189 1.45-2.655 2.05-4.226 1.894-1.42-.147-3.16-.745-2.98-3.189Zm12.986-9.559c-.79.364-.659 1.407-.895 1.815-.132-.307-.445-1.104-.657-1.34-.85-1.138-2.056-1.395-2.215-1.253-.126.083-.338 1.318.432 2.528.178.294.789.91 1.035 1.088-.485.036-1.406-.446-2.032.167-.853.872.233 2.338 1.188 2.027.954-.312-.15-.008.009-.885.074-.462.703-.88 1.11-.649.255.028.522.102.786-.02-.377.25-.175.637.258.223-.114.13-.193.2-.307.33a.637.637 0 0 0-.156.337c.098.365 0 .735-.46.862-.323.089.481.505.95.229.173-.097.572-.451.381-.791.32.451.88.885 1.053.789.126-.084-.07-.814-.39-1.266.27.27.752.039.911-.103.458-.322.316-1.215.135-.969-.294.375-.653.327-.957.116-.117-.066-.209-.04-.393.01-.138.038-.264.122-.402.16.528-.243.233-.604-.132-.307.24-.213.27-.467.3-.72-.03-.482.553-.887 1.017-.819.88.15.19 1.076.825.313.715-.834-.292-2.371-1.393-1.872Zm37.728-.369c-.296-1.836-1.354-1.89-1.354-1.89.648-.915 1.203-.33 1.203-.33-.45-1.301-1.492-1.114-1.492-1.114.675-.627 1.187-.571 1.584-.386 1.813.83.747 5.35.093 7.347-.07-1.553.003-3.49-.034-3.627Zm2.514 4.489s.102-.176.006-.346c0 0-.773.998-.341 4.073-.034.058-.228-1.952.335-3.727Zm-.326-.844.69-1.123s1.302 1.706-.077 2.477c0 0 .927-.057.76 1.167 0 0 .653.214-.04 1.141-.557.693-.945 1.831-1.124 3.01-.012-.045-2.122-3.642-.21-6.672Z" fill="#3D6637"/><path d="M100.843 54.058c-.2.546-1.776 1.863-2.434 4.94-.018-1.174.36-2.897 1.448-4.374.362-.492.891-1.472.949-2.175 0 0 1.38.897.811 2.28l-.866.827c-.526.439-1.091 1.281-1.38 2.048-.48 1.162-.746 2.56-.716 3.043-.307-3.35 1.736-5.14 2.188-6.589ZM89.652 46.12c-.677.235-1.455-.09-1.776-.734a6.158 6.158 0 0 1-.35-.931c.91-.103 1.759.3 1.759.3-.3-.75.202-1.083.202-1.083.104.754.863 1.376 3.056 1.458 1.443.044 2.086.6 2.086.6-1.044-.397-2.392-.271-3.197-.148-1.82.207-2.821-.398-2.821-.398.352.392 1.093.58 1.66.668-.172.096-.401.16-.619.268Zm5.975 3.445c-1.388 1.263-.582 2.609-.582 2.609-.62.268-1.226-.153-1.242-.393-.254.706-1.444.69-1.444.69-.018-.435.025-.643.181-.98-.6.704-1.34.711-1.932.531-.708-.246-1.011-.456-1.281-.725-.399-.38-.288-.704-.117-.8.138-.038.325.106.34.347.016.24.145.352.273.463.55.388 1.481.181 1.868-.219 0 0-.963.46-1.64-.039.242-.017.527-.243.763-.65.582-1.14 1.468-1.335 1.468-1.335-.644.177-1.263-.29-1.263-.29 1.567-2.438 3.127-3.063 6.586-1.222-1.312-.472-2.63-.6-4.366-.073 0 0 2.729-.506 4.918.656.14.157.236.327.331.497-1.972-1.27-4.75-.948-5.988.323 0 0 1.53-1.106 3.811-.705 2.802.503 3.465 2.231 3.128 5.018l-.184.05c.456-3.994-2.364-4.933-3.628-3.753Z" fill="#3D6637"/><path d="M84.023 50.444S82.428 50.2 81.1 48.56c-.034.058.674 1.77 2.924 1.884Zm3.179-1.752c1.016-.622 2.19-1.58 3.037-1.91-2.556.947-3.64 2.418-5.294 2.139 0 0 1.08.534 2.257-.23Zm-7.193-1.983s.278-2.08 1.742-2.14c.196-.005.453.217.205.579-.27-.269-1.61.246-1.326 2.22 0 0-.073-1.005.597-1.63-.012.688 1.106 1.359 1.18 2.365.097 1.097 1.377 2.554 3.12 1.88 0 0-2.756.024-2.303-2.691 0 0-.025.642.977.514 0 0 1.283-.548 1.81-.058 0 0-.227-.475.006-1.077 0 0 .514 1.179 1.58.74.894-.344 4.026-2.084 7.052-1.107-3.04-.484-4.847 1.234-4.847 1.234l-.478.424c-.273.27-.5.528-.692.728-1.531 1.642-3.332 2.283-5.181 2.01-1.746-.254-3.8-1.107-3.442-3.991Zm29.056 2.344a1.176 1.176 0 0 0 1.053-1.218c-.018-.435-.116-.799-.116-.799-.711.293-1.185.912-1.185.912-.034-.675-.542-.73-.542-.73.205.578-.129 1.354-1.706 2.276-1.017.621-1.295 1.236-1.295 1.236.612-.657 1.666-1.142 2.309-1.319 1.433-.54 1.938-1.412 1.938-1.412-.132.427-.563.84-.974 1.147.138-.038.322-.088.518-.093Zm-3.087 4.792c1.484.376 1.401 1.72 1.401 1.72.53-.047.834-.572.785-.754.456.413 1.315-.068 1.315-.068a1.788 1.788 0 0 0-.472-.653c.72.291 1.247.048 1.634-.352.42-.458.588-.75.665-1.015.132-.428-.022-.63-.218-.626-.138.038-.193.2-.098.37.095.17.028.286-.028.448-.257.512-1.051.681-1.48.554 0 0 .877-.045 1.201-.673-.217.109-.484.035-.8-.22-.864-.644-1.554-.455-1.554-.455.518-.093.843-.721.843-.721-2.051-1.2-3.446-1.06-5.343 1.616.806-.859 1.732-1.456 3.194-1.711 0 0-2.195.652-3.415 2.359-.009.15-.064.311-.061.506.978-1.688 3.169-2.536 4.528-2.077 0 0-1.552-.259-3.103.951-1.882 1.448-1.766 2.983-.453 4.924l.196-.005c-1.821-2.732-.117-4.473 1.263-4.118Z" fill="#3D6637"/><path d="M114.912 50.101s1.071-.783 1.494-2.512c-.046.013.128 1.578-1.494 2.512Zm-3.035-.095c-.958-.079-2.22-.368-2.979-.257 2.244-.274 3.604.379 4.755-.475-.034.058-.609.851-1.776.732Zm4.581-4.24s-.98-1.44-2.067-.898c-.126.084-.26.316.076.468.123-.278 1.308-.457 1.841 1.156 0 0-.313-.794-1.054-.981.285.508-.3 1.45 0 2.199.325.84-.042 2.406-1.619 2.595 0 0 2.094-1.015.704-2.881 0 0 .272.463-.484.768 0 0-1.151.12-1.362.619 0 0-.019-.435-.417-.815 0 0 .04 1.065-.869 1.168-.818.078-3.748.003-5.656 1.895 2.052-1.54 4.045-.915 4.045-.915.162.053.37.094.533.147.278.119.545.192.765.278 1.752.643 3.316.409 4.593-.528 1.106-.841 2.306-2.246.971-4.274Zm-16.068-1.614c.866-.091 1.274.875 1.682 1.106-.04-.332-.169-1.179-.104-1.49.162-1.418 1.074-2.257 1.282-2.216.151.007.951.964.893 2.401-.006.345-.224 1.19-.346 1.468.435-.218.988-1.105 1.834-.896 1.173.315.97 2.135-.009 2.355-.978.22.126-.083-.451-.758-.294-.36-1.046-.399-1.282.01-.206.154-.399.354-.688.385.451.023.457.413-.11.324.162.053.267.074.429.127.163.053.234.132.258.223.098.365.368.634.829.508.322-.089-.163.682-.706.684-.196.005-.718-.097-.724-.487-.049.553-.316 1.214-.513 1.22-.15-.008-.346-.739-.297-1.291-.099.37-.629.418-.838.377-.555-.043-.881-.885-.602-.766.442.172.728-.053.884-.39.068-.117.16-.142.344-.193.138-.038.288-.03.426-.068-.576.06-.503-.4-.086-.32-.313-.06-.466-.264-.619-.466-.215-.432-.921-.483-1.286-.186-.684.58.374 1.024-.556.692-.942-.379-.843-2.22.356-2.353Zm14.51 79.222c.93 1.611.129 2.322.129 2.322 1.071.295 1.151-.513 1.151-.513.496 1.288-.458 1.796-.458 1.796.963.079 1.259-.297 1.45-.693.865-1.76-2.74-4.651-4.485-5.792.889 1.278 2.117 2.709 2.213 2.88Zm-.787 11.786c-.678.235-1.116.992-.932 1.675.135.502.303.945.303.945.754-.501 1.214-1.362 1.214-1.362.208.775.83.702.83.702-.367-.633-.187-1.613 1.487-3.101 1.069-.979 1.241-1.809 1.241-1.809-.586.944-1.658 1.728-2.391 2.125-1.507 1.002-1.906 2.091-1.906 2.091.049-.552.491-1.114.865-1.56-.264.122-.494.185-.711.294Z" fill="#3D6637"/><path d="M116.545 128.675c-1.85-.079-2.083-1.681-2.083-1.681-.644.177-.853.871-.699 1.074-.654-.408-1.531.372-1.531.372.236.327.436.517.727.682-.892-.196-1.509.268-1.846.85-.429.608-.482.966-.521 1.369-.05.552.196.73.426.666.138-.037.169-.291.027-.448-.141-.157-.098-.365-.088-.515.174-.636 1.045-1.071 1.613-.982 0 0-1.012.278-1.242 1.076.205-.154.598-.164.993.021 1.141.568 1.954.1 1.954.1-.619.268-.816 1.008-.816 1.008 2.718.919 4.362.418 5.91-3.193-.766 1.191-1.653 2.121-3.352 2.784 0 0 2.417-1.302 3.42-3.635-.003-.195-.006-.391-.068-.619-.739 2.212-3.094 3.742-4.83 3.533 0 0 1.905-.082 3.401-1.866 1.85-2.125 1.325-3.892-.693-5.885l-.184.051c2.794 2.857 1.193 5.355-.518 5.238Z" fill="#3D6637"/><path d="M106.966 135.308s-1.065 1.173-1.136 3.295c.046-.013-.536-1.809 1.136-3.295Zm3.623-.653c1.152-.121 2.674-.148 3.535-.433-2.628.868-4.377.42-5.464 1.696 0 0 .49-1.112 1.929-1.263Zm-4.379 6.092s1.522 1.44 2.674.586c.159-.142.223-.453-.205-.579-.052.356-1.406.826-2.46-.889 0 0 .567.822 1.467.868-.435-.516.019-1.765-.548-2.587-.591-.914-.518-2.841 1.295-3.437 0 0-2.199 1.729-.128 3.556 0 0-.435-.516.41-1.042 0 0 1.32-.411 1.437-1.079 0 0 .134.501.67.843 0 0-.33-1.23.76-1.578.952-.311 4.45-.88 6.196-3.56-2.04 2.32-4.57 2.086-4.57 2.086-.196.005-.45-.023-.646-.018-.359-.048-.717-.096-.983-.169-2.254-.31-4.055.331-5.268 1.691-1.121 1.335-2.175 3.287-.101 5.308Zm19.952-19.595c.419-.457 1.099-.497 1.601-.098.315.255.596.568.596.568-.627.417-1.469.404-1.469.404.515.444.233.863.233.863-.343-.54-1.175-.702-2.859.004-1.111.451-1.793.297-1.793.297.909-.103 1.891-.666 2.427-1.057 1.267-.787 2.271-.721 2.271-.721-.429-.126-1.004-.066-1.497.118.172-.096.331-.237.49-.378Z" fill="#3D6637"/><path d="M120.432 120.736c.6-1.437-.53-2.153-.53-2.153.374-.445.999-.324 1.048-.141-.068-.618.815-1.007.815-1.007.177.293.226.476.208.774.196-.739.711-1.027 1.287-1.087.621-.073.934-.012 1.201.061.441.172.502.4.355.587-.08.071-.288.031-.383-.139-.095-.17-.211-.235-.362-.243-.566-.089-1.17.419-1.302.847 0 0 .555-.691 1.238-.536-.217.109-.34.387-.334.777-.006 1.078-.576 1.528-.576 1.528.399-.354 1.07-.245 1.07-.245-.298 2.381-1.204 3.413-4.495 3.29 1.152-.121 2.185-.503 3.287-1.54 0 0-1.847 1.389-3.936 1.327-.163-.053-.291-.165-.42-.276 1.93.203 3.918-1.028 4.393-2.382 0 0-.763 1.384-2.601 1.889-2.297.632-3.41-.384-4.194-2.565l.113-.129c1.155 3.009 3.585 2.684 4.118 1.363Z" fill="#3D6637"/><path d="M128.817 115.862s1.274-.399 2.9.327c-.046.013-1.216-1.034-2.9-.327Zm-1.794 2.496c-.517.826-1.041 1.996-1.586 2.536 1.577-1.654 1.865-3.15 3.197-3.516.033-.058-1.005-.066-1.611.98Zm6.151-1.152s.591 1.645-.529 2.246c-.126.083-.438.023-.34-.346.312.06 1.117-.796.162-2.146 0 0 .438.711.138 1.428-.239-.521-1.347-.607-1.739-1.33-.45-.756-1.96-1.416-3.025-.244 0 0 2.082-1.061 2.728 1.156 0 0-.239-.521-.9-.046 0 0-.76.844-1.338.71 0 0 .373.288.416.814 0 0-.818-.655-1.476.014-.578.599-2.247 3.011-4.905 3.399 2.468-.726 3.175-2.68 3.175-2.68.055-.161.156-.336.212-.497.11-.324.186-.589.229-.796.56-1.767 1.684-2.906 3.141-3.355 1.4-.482 3.243-.597 4.051 1.673Zm-10.349 12.569c.721-.443.484-1.506.57-1.922.166.249.617 1.007.875 1.23 1.009.997 2.258 1.046 2.372.917.113-.129.128-1.359-.801-2.427-.212-.236-.948-.769-1.194-.946.473-.081 1.448.239 1.945-.486.725-.984-.567-2.295-1.472-1.801-.872.436.15.008.141.892-.016.495-.586.946-1.016.819-.255-.028-.509-.056-.761.111.365-.296.083-.611-.291-.165 0 0-.046.013 0 0 .067-.116.181-.246.248-.362a.76.76 0 0 0 .098-.37c-.144-.353-.138-.698.298-.916.31-.134-.562-.433-.96-.079-.16.142-.501.53-.264.857-.353-.393-.995-.756-1.166-.66-.114.13.208.776.561 1.17-.304-.211-.773.065-.887.194-.386.401-.107 1.255.016.977.224-.454.583-.406.92-.254a.51.51 0 0 0 .381-.055c.126-.084.264-.122.39-.205-.458.321-.129.623.177.294-.181.246-.165.487-.196.74.123.457-.423.999-.874.976-.902-.046-.375-1.025-.881-.15-.506.874.706 2.257 1.771 1.621Zm-34.368.787c.006 1.865 1.052 2.069 1.052 2.069-.775.802-1.25.147-1.25.147.22 1.364 1.297 1.314 1.297 1.314-.791.561-1.235.388-1.598.144-1.628-1.076.03-5.412.963-7.289-.126 1.558-.468 3.42-.465 3.615Zm6.647 9.757c.747-.157 1.458.284 1.642.968.135.501.212.969.212.969-.901-.046-1.729-.552-1.729-.552.209.774-.364 1.03-.364 1.03 0-.734-.647-1.487-2.835-1.913-1.413-.297-1.977-.925-1.977-.925.978.514 2.296.642 3.126.609 1.802.092 2.69.827 2.69.827-.318-.451-.98-.71-1.525-.902.288-.03.518-.094.76-.111Z" fill="#3D6637"/><path d="M89.721 135.979c1.555-1.015.954-2.516.954-2.516.644-.177 1.172.315 1.14.568.36-.686 1.507-.463 1.507-.463-.04.403-.117.669-.285.961.671-.626 1.435-.542 2.018-.212.674.304.898.586 1.134.913.32.451.197.73-.033.793-.138.038-.292-.165-.295-.36a.501.501 0 0 0-.18-.489c-.47-.459-1.44-.389-1.884-.021 0 0 1.012-.279 1.61.292-.254-.028-.598.164-.846.527-.7 1.074-1.635 1.086-1.635 1.086.669-.086 1.209.452 1.209.452-1.884 2.183-3.552 2.593-6.696.273 1.258.634 2.488.982 4.285.683 0 0-2.736.116-4.77-1.383a2.37 2.37 0 0 1-.25-.568c1.744 1.529 4.542 1.642 5.934.573 0 0-1.684.904-3.868.133-2.659-.886-3.091-2.678-2.35-5.43l.185-.051c-.932 3.883 1.7 5.217 3.116 4.239Z" fill="#3D6637"/><path d="M101.35 136.812s1.507.467 2.631 2.26c-.046.013-.444-1.834-2.631-2.26Zm-3.452 1.291c-1.053.485-2.38 1.241-3.265 1.435 2.702-.596 3.985-1.877 5.562-1.333 0 0-.98-.708-2.297-.102Zm6.83 3.013s-.591 2.02-2.012 1.873c-.208-.041-.42-.276-.113-.605.223.281 1.626-.007 1.675-2.025 0 0-.077.999-.83 1.5.116-.668-.901-1.513-.824-2.512.052-1.09-.977-2.714-2.84-2.3 0 0 2.763.365 1.894 3 0 0 .116-.668-.876-.688 0 0-1.345.32-1.78-.196 0 0 .135.501-.156 1.07 0 0-.33-1.229-1.446-.972-.93.207-4.278 1.518-7.127.1 2.922.958 4.987-.539 4.987-.539.171-.096.376-.25.548-.346.285-.225.57-.45.762-.649 1.789-1.421 3.663-1.789 5.391-1.237 1.635.578 3.522 1.722 2.747 4.526Zm-27.103-6.76c-.591-.18-1.197.133-1.43.733-.143.382-.23.795-.23.795.75.039 1.47-.403 1.47-.403-.22.646.233.864.233.864.024-.641.66-1.207 2.466-1.458 1.185-.179 1.696-.661 1.696-.661-.836.376-1.965.393-2.623.33-1.487-.031-2.32.539-2.32.539.306-.328.832-.57 1.35-.663-.196.005-.404-.036-.612-.076Z" fill="#3D6637"/><path d="M82.351 131.088c-1.238-.932-.622-2.129-.622-2.129-.545-.192-1.023.233-.974.415-.251-.567-1.207-.451-1.207-.451-.006.344.043.526.208.774-.54-.536-1.127-.521-1.654-.279-.573.255-.812.468-1.005.668-.294.374-.233.602-.012.688.104.02.263-.121.26-.316-.003-.195.064-.311.19-.395.444-.367 1.22-.237 1.547.064 0 0-.824-.311-1.336.172.242-.018.488.159.677.498.546.927 1.263 1.023 1.263 1.023-.521-.101-1.045.336-1.045.336 1.45 1.901 2.748 2.327 5.524.537-1.054.485-2.136.685-3.606.355 0 0 2.288.251 4.06-.871.113-.129.168-.291.223-.453-1.563 1.163-3.894 1.119-4.982.195 0 0 1.352.803 3.19.298 2.297-.632 2.748-2.076 2.331-4.359l-.162-.053c.511 3.186-1.747 4.149-2.868 3.283Z" fill="#3D6637"/><path d="M72.71 131.129s-1.298.308-2.336 1.765c0 0 .484-1.5 2.337-1.765Zm2.753 1.247c.86.448 1.899 1.189 2.64 1.376-2.19-.62-3.188-1.763-4.52-1.397-.058-.033.833-.571 1.88.021Zm-5.881 2.153s.36 1.709 1.583 1.666c.15.008.388-.204.119-.472-.239.212-1.363-.115-1.216-1.767 0 0-.021.836.597 1.301-.055-.571.858-1.212.833-2.036.01-.882.98-2.223 2.486-1.758 0 0-2.327.151-1.772 2.393 0 0-.056-.572.753-.5 0 0 1.078.339 1.51-.073 0 0-.178.44.048.915 0 0 .377-.983 1.28-.742.8.22 3.448 1.447 5.934.422-2.492.636-4.082-.687-4.082-.687-.128-.111-.303-.21-.431-.321a6.897 6.897 0 0 1-.597-.569c-1.369-1.236-2.91-1.644-4.391-1.286-1.448.3-3.096 1.143-2.654 3.514Zm15.265 5.564c-.89-.001-1.173-1.05-1.501-1.352-.018.299-.028 1.184-.138 1.508-.371 1.377-1.424 2.058-1.586 2.005-.163-.053-.792-1.106-.525-2.503.064-.312.433-1.148.555-1.427-.448.172-1.129.948-1.92.577-1.117-.477-.66-2.269.368-2.307.97-.07-.126.084.325.842.26.418.979.515 1.285.186.206-.155.412-.309.712-.294-.463-.069-.377-.485.17-.292 0 0 .045-.012 0 0-.117-.066-.28-.119-.397-.185a.749.749 0 0 1-.27-.269c-.052-.378-.23-.672-.715-.636-.334.042.267-.662.789-.56.209.04.696.2.657.603.107-.519.478-1.161.674-1.166.163.054.21.776.102 1.296.156-.337.7-.339.862-.286.534.147.721 1.027.476.85-.42-.277-.706-.051-.92.253a.515.515 0 0 1-.357.147c-.15-.008-.288.03-.438.022.555.044.423.472-.007.345.28.119.387.335.54.538.123.456.866.644 1.243.393.755-.501-.19-1.075.684-.58.933.528.568 2.295-.668 2.292Zm55.057-21.139c-.961 1.923-.312 3.598 1.105 4.283 1.022.5 1.918.352 2.922-.314.753-.499 1.288-.89 2.075-1.447.548-.346 1.086-.542 1.668-.214.918.48 1.117 1.401.569 2.478-.324.626-.71 1.024-.802 1.049-1.111-.28-2.139-.437-2.381-.42l.016.24c.131.305 1.105 1.356 1.536 1.676.343-.191 1.711-1.152 2.347-2.449.704-1.412 1.117-3.721-.986-4.754-.847-.402-1.759-.493-3.161.526-.866.628-1.572 1.114-2.028 1.435-.502.332-1.007.471-1.518.221-.848-.402-1.013-1.381-.566-2.284a2.41 2.41 0 0 1 .7-.875c.416.081 1.408.102 1.787.046l.019-.298c-.493-.547-1.717-1.431-1.95-1.562l-.205.153c-.073.46-.134.964-.107 1.249-.297.179-.716.636-1.04 1.261Zm-4.982 9.319c.756-1.037 1.552-1.743 2.699-2.058 1.298-.307 2.503.143 3.412.772 1.224.883 1.84 1.885 1.983 2.968.169 1.173-.4 2.354-1.043 3.262-.22-.086-1.689-1.146-3.706-2.593l-3.345-2.351Zm-2.01 2.6 1.037-.723 3.112 2.219c2.017 1.447 3.137 2.311 3.336 2.5l-.281 1.15.281.313c.328-.431.995-1.248 1.524-2.028 1.218-1.7 1.916-2.769 2.243-3.932.438-1.486.483-3.694-1.836-5.35-2.262-1.624-4.897-1.34-7.592 2.375-1.117 1.526-1.891 2.861-2.06 3.151l.236.325Zm1.313 10.909-1.558.623c-.477-.309-2.879-2.82-4.37-4.509l.046-.013c4.529.709 8.569 1.064 10.157.921l.168-.29c-.211-.235-.658-.795-.985-1.095-1.818-1.99-4.529-5.1-4.952-5.569l.42-1.188-.202-.384c-.432.411-.863.822-1.261 1.175-.432.411-.909.835-1.386 1.259l.156.396 1.557-.623c.551.581 3.608 3.694 4.018 4.118l-.045.012a156.707 156.707 0 0 1-7.816-.831c-.566-.089-.937-.182-1.053-.248l-1.986 1.96.156.396c.664-.28.882-.388 2.014-.211 2.769 3.143 4.33 4.91 4.648 5.359l-.532 1.317.236.326 1.294-1.234c.477-.423.988-.905 1.466-1.329l-.19-.338Zm-12.672.355c.747.575 1.692 1.34 3.057 2.381-.422.262-1.814 1.132-2.237 1.394-.211-.967-.312-1.524-.82-3.775Zm-1.273-1.066.386.333c.082.124.153.202.189.339.628 3.242 1.335 7.146 1.405 7.956l-.548 1.077.111.409c.456-.32.924-.595 1.38-.915.468-.275.878-.583 1.392-.87l-.11-.409-1.288.159a49.382 49.382 0 0 1-.567-2.284c1.723-1.107 2.259-1.498 2.669-1.806.921.675 1.83 1.303 2.087 1.525l-.162.679.11.409c.502-.333.958-.653 1.426-.928.627-.416 1.3-.845 1.928-1.261l-.11-.408c-1.173.224-1.368.229-2.045-.269-4.125-2.868-5.826-4.06-6.328-4.459-.419-.275-.502-.399-.75-.77l-.104-.02-1.071 1.513Zm-10.591 5.15 1.291.036 1.46 3.405c.909 2.092 1.533 3.677 1.57 3.813l-.918.984.064.421c.79-.363 1.5-.655 2.164-.935 3.446-1.482 4.26-1.754 4.786-1.996-.052-.376-.429-2.322-.585-2.718l-.3-.015c-.177.439-.523 1.899-.673 2.624l-2.475.874c-.215-.429-.811-1.729-1.733-3.867l-1.459-3.404.7-.875-.018-.434c-.664.279-1.316.605-1.98.884-.664.28-1.282.547-1.946.827l.052.376Zm-8.651 2.471 1.267-.055 1.031 4.01c.456 1.875.753 3.16.842 3.672l-.933.744-.028.446 2.295-.629c.781-.214 1.527-.371 2.262-.572l-.019-.434-1.478-.18c-.217-.623-.453-1.681-.979-3.634l-1.105-4.282c1.457-.449 2.693-.251 3.121 1.339.38 1.408-.345 2.192-1.603 2.83l-.021.103c1.159 1.194 2.436 2.454 3.204 2.926.734.531 1.533.75 3.243.33l.135-.232c-.199-.19-.431-.321-1.704-1.386-.83-.7-2.268-2.012-2.715-2.573l-.012-.045c.844-.525 1.912-1.501 1.579-2.921-.404-1.499-1.693-2.073-4.413-1.375-1.607.441-3.406 1.081-3.978 1.335l.009.583Zm-8.22.597 1.332.366.358 3.707c.223 2.475.327 3.959.318 4.108l-1.153.658-.086.414c.771-.066 1.622-.201 2.347-.254l2.635-.284c.863-.09 1.68-.168 2.601-.226.098-.368.309-2.328.327-2.626l-.324-.106c-.407.502-1.037 1.455-1.487 2.164l-2.626.135a132.268 132.268 0 0 1-.416-3.74c.621-.073 2.73-.115 2.913-.165.242-.017.793-.9.835-1.107l-.14-.157c-.977.219-2.482.486-3.737.586l-.343-3.467 2.598-.42c.236.326.873 1.224 1.096 1.505l.263-.121c.086-.414.153-1.994.147-2.382l-.058-.033c-.38.055-1.39.332-1.527.37l-3.648.367c-.713.098-1.438.15-2.117.19l-.108.518Zm-10.487-.684 1.047.591-.3 3.643c-.156 1.799-.388 3.863-.407 4.161l-1.11.451-.144.381 2.249.114c.658.064 1.258.094 1.916.158l.143-.381-.85-.596c.058-1.431.21-2.692.263-3.78l2.365.181c.75.038 1.396.056 1.787.046-.107 1.249-.156 2.531-.342 3.85l-.707.487-.178.439c.658.063 1.35.068 2.008.132.75.038 1.511.122 2.215.173l.132-.427-1.209-.644c-.049-.182.089-2.415.236-4.065l.275-3.734 1.157-.464.131-.426a38.06 38.06 0 0 1-2.261-.16l-1.662-.13-.131.427.688.543-.272 3.196-4.165-.272.272-3.196.765-.454.178-.439c-.6-.031-1.258-.094-1.904-.112-.704-.051-1.362-.114-2.065-.165l-.12.472Zm-6.998-2.373c-.279-.119-.977-.513-1.243-.586l-.092.025c-.19.394-.728 2.054-.835 2.571l.3.015c.456-.32 1.24-1.072 1.683-1.437l1.842.616-1.114 3.916c-.84 2.914-.994 3.444-1.138 3.824l-1.588.144-.248.36 2.708.721c.857.252 1.702.46 2.605.7l.248-.361-1.549-.99c.064-.31.104-.711 1.154-4.316l.948-3.432 2.035.418c.034.674.178 1.756.276 2.119l.241-.017c.215-.303.973-1.877 1.23-2.386l-.082-.124c-.312-.061-1.016-.112-1.478-.18l-5.903-1.6Zm-9.052-3.224.948.959-1.536 3.446c-1.013 2.278-1.637 3.62-1.796 3.761l-1.325.022-.26.316c.673.303 1.496.614 2.17.917l2.448 1.035c.777.324 1.554.647 2.356 1.061.272-.27 1.457-1.912 1.591-2.144l-.223-.28c-.63.222-1.625.739-2.39 1.192l-2.335-1.164c.41-1.039 1.11-2.646 1.478-3.479.557.238 2.451 1.23 2.613 1.283.22.086 1.123-.405 1.282-.547l-.003-.194a55.508 55.508 0 0 1-3.546-1.271l1.413-3.168 2.458.887c.006.388.15 1.471.202 1.847l.3.015c.26-.315 1.126-1.675 1.282-2.01l-.025-.091c-.324-.106-1.389-.4-1.539-.407l-3.354-1.47c-.661-.258-1.288-.574-1.95-.832l-.26.316Zm-10.53 3.913-.955-1.348c.199-.542 2.124-3.461 3.397-5.322l.058.033c.336 4.542.918 8.529 1.426 10.048l.324.106c.227-.257.622-.804.857-1.211 1.555-2.28 3.957-5.622 4.306-6.157l1.257.094.319-.282c-.478-.308-1.001-.604-1.478-.912-.478-.308-1.026-.694-1.561-1.035l-.33.237.954 1.348c-.416.651-2.812 4.381-3.127 4.858-.46-2.801-.664-4.842-.998-7.727-.055-.57-.015-.971.006-1.075l-2.363-1.449-.376.25c.401.573.6.762.652 1.87-2.423 3.445-3.822 5.39-4.162 5.776l-1.315-.127-.306.328c.477.308 1.013.649 1.49.957.535.341 1.083.727 1.619 1.068l.306-.328Zm55.073-117.357.994.945-1.373 3.497c-.897 2.341-1.475 3.67-1.576 3.844l-1.312.067-.26.315c.706.245 1.529.556 2.236.8l2.469.932c.823.31 1.588.588 2.423.944.273-.27 1.34-1.976 1.475-2.208l-.211-.234c-.618.267-1.6.828-2.319 1.27l-2.402-1.048c.352-1.072.994-2.71 1.315-3.53.557.238 2.518 1.114 2.681 1.167.22.086 1.11-.45 1.211-.625l-.049-.181a34.617 34.617 0 0 1-3.601-1.109l1.239-3.264 2.524.77c.052.376.208 1.503.294 1.82l.3.016c.248-.36 1.067-1.707 1.165-2.075l-.024-.09c-.324-.107-1.377-.354-1.527-.362l-3.454-1.295-1.983-.772-.235.406ZM97.417 27l.98.707-.658 3.592c-.306 1.79-.747 3.812-.811 4.122l-1.135.36-.19.393c.728.142 1.49.225 2.218.367.624.121 1.249.242 1.86.318l.19-.393-.77-.666c.207-1.422.464-2.662.666-3.74l2.368.373c.728.142 1.386.205 1.778.195-.211 1.228-.41 2.501-.701 3.8l-.777.408-.19.393c.67.108 1.34.217 1.952.293.729.142 1.457.283 2.218.367l.19-.393-1.141-.76c-.003-.194.343-2.385.639-4.026l.679-3.695 1.239-.34.19-.393c-.728-.142-1.49-.226-2.218-.367-.566-.089-1.086-.19-1.652-.278l-.19.393.609.613-.572 3.179-4.078-.685.584-3.134.789-.363.224-.45c-.625-.122-1.236-.198-1.86-.32-.67-.108-1.34-.217-2.023-.371l-.407.502Zm-10.745-.368c-.312-.06-1.086-.19-1.328-.172l-.079.07c-.086.414-.104 2.174-.061 2.698l.275-.075c.328-.431.912-1.371 1.169-1.88l1.937.053.098 4.02c.082 3.047.08 3.584.04 3.985l-1.512.61-.085.413c.933-.012 1.853-.07 2.787-.082.933-.012 1.808-.057 2.695-.056l.086-.414-1.76-.492c-.04-.33-.091-.706-.162-4.44l-.067-3.54 2.071-.178c.217.623.682 1.616.872 1.954l.217-.108c.098-.368.383-2.055.465-2.662l-.07-.078c-.334.043-.988.173-1.46.254l-6.128.12Zm-20.596 4.77c1.212.107 1.2.061 1.61.485.394 2.378 1.098 6.815 1.05 7.365l-.864.821.007.389c.55-.151 1.089-.348 1.64-.499a8868.7 8868.7 0 0 1 1.743-.478l-.052-.376-1.431-.192c-.196-.726-1.062-4.486-1.442-6.624l.046-.012c3.173 3.907 4.161 5.195 5.348 6.673l.343-.191c.508-4.331.884-6.774 1.12-8.642l.091-.025 1.962 6.725-.68.77.019.434c.734-.2 1.456-.448 2.19-.649l2.111-.579-.018-.433-1.466-.135c-.226-.474-2.086-5.91-2.49-7.408l1.058-.827-.018-.433-3.35.918c.073.273.135.5.125.648-.437 2.947-.896 5.267-1.043 6.184l-.046.013c-2.123-2.391-3.717-4.099-4.246-4.782-.07-.079-.095-.17-.193-.533l-3.084.992-.04.401Zm-8.275 4.22c1.884-1.054 4.08.878 4.959 2.49.878 1.611 1.655 4.128-.23 5.18-1.838 1.041-3.995-.56-5.12-2.543-1.093-2.04-1.289-4.229.39-5.128Zm-.126-.649c-2.365 1.282-3.757 4.345-2.215 7.139 1.65 3.008 5.036 2.957 7.184 1.783 2.181-1.231 3.913-3.948 2.181-7.08-1.588-2.782-4.601-3.174-7.15-1.842Zm-13.62 10.9 1.12-.6 2.677 3.166c1.233 1.465 2.056 2.507 2.374 2.956l-.502 1.063.156.396c.603-.506 1.193-1.058 1.796-1.564l1.808-1.52-.202-.383-1.398.48c-.468-.456-1.184-1.283-2.487-2.827l-2.876-3.354c1.16-1 2.34-1.373 3.42-.11.94 1.108.667 2.108-.214 3.227l.025.091c1.587.589 3.255 1.106 4.225 1.23.924.137 1.682.026 3.105-1.095l.03-.252c-.266-.073-.565-.089-2.163-.528-1.064-.293-2.94-.851-3.6-1.109l-.013-.045c.517-.824 1.083-2.198.144-3.305-1.01-1.186-2.472-1.126-4.598.676-1.24 1.07-2.6 2.419-3.008 2.92l.18.487Zm-6.868 7.245 1.223-.58 2.84 2.488c2.01 1.788 2.91 2.565 3.05 2.722l-.281 1.15.235.324c.532-.584 1.019-1.156 1.551-1.74.612-.656 1.178-1.299 1.79-1.954l-.294-.358-1.575.92c-.233-.132-.747-.576-2.616-2.208.419-.456 1.985-1.958 2.098-2.086.147-.187-.018-1.165-.113-1.334l-.208-.04c-.575.79-1.477 2.013-2.35 2.983l-2.839-2.487 1.695-2.122c.532.147 1.343.412 1.922.546l.122-.278a50.443 50.443 0 0 0-1.622-1.992l-.046.012c-.226.258-.71 1.024-.844 1.256l-2.616 2.91c-.453.514-.917.983-1.37 1.497l.248.37Z" fill="#3D6637"/></svg>