<svg width="81" height="80" fill="none" xmlns="http://www.w3.org/2000/svg"><circle cx="39.987" cy="39.987" r="39.987" fill="#9DE5E5"/><path d="M68.385 11.805h-56.57v56.569h56.57v-56.57Z" fill="#fff"/><path d="m40.003 0-40 40 40 40 40-40-40-40Z" fill="#fff"/><path d="M18.992 55.844v2.847c0 .47.026.764.077.88a.699.699 0 0 0 .305.309c.152.087.356.132.612.132h.304v.25h-4.799v-.25h.304c.266 0 .483-.048.645-.142a.624.624 0 0 0 .272-.324c.048-.107.074-.392.074-.855v-6.046c0-.47-.026-.764-.074-.881a.667.667 0 0 0-.301-.308c-.152-.087-.357-.132-.612-.132h-.305v-.25H20.3v.25h-.304c-.266 0-.483.048-.645.142a.663.663 0 0 0-.278.324c-.049.107-.075.392-.075.855v2.604h3.245v-2.604c0-.47-.026-.764-.074-.881-.049-.117-.153-.22-.305-.308-.152-.087-.36-.132-.615-.132h-.298v-.25h4.8v.25h-.299c-.272 0-.485.048-.644.142a.663.663 0 0 0-.279.324c-.048.107-.074.392-.074.855v6.046c0 .47.026.764.075.88.048.117.152.221.304.309.152.087.36.132.615.132h.298v.25h-4.802v-.25h.297c.273 0 .486-.048.645-.142a.649.649 0 0 0 .278-.324c.049-.107.075-.392.075-.855v-2.847h-3.248Zm12.776 1.804h-3.245l-.386.894c-.126.298-.19.544-.19.738 0 .256.103.447.31.57.123.072.421.127.9.162v.25h-3.053v-.25c.33-.048.599-.188.813-.411.213-.224.472-.687.786-1.386l3.287-7.332h.13l3.313 7.536c.317.712.576 1.163.78 1.347.153.14.37.22.651.243v.25h-4.45v-.25h.182c.356 0 .609-.049.751-.149a.356.356 0 0 0 .15-.31.76.76 0 0 0-.043-.25 6.595 6.595 0 0 0-.204-.509l-.482-1.143Zm-.23-.502-1.37-3.164-1.409 3.164h2.779Zm13.242-.106-.347 3.225h-8.16v-.25h.304c.265 0 .482-.048.644-.142a.624.624 0 0 0 .272-.324c.049-.107.075-.392.075-.855v-6.046c0-.47-.026-.764-.075-.88a.667.667 0 0 0-.301-.309c-.152-.087-.356-.132-.612-.132h-.304v-.25h4.9v.25h-.4c-.265 0-.482.048-.644.142a.664.664 0 0 0-.278.324c-.049.107-.075.392-.075.855v5.855c0 .47.026.77.081.897a.55.55 0 0 0 .318.288c.113.042.385.062.82.062h.763c.49 0 .894-.087 1.221-.26.324-.17.606-.443.846-.812.24-.37.463-.916.673-1.639h.279Zm6.266.608H47.8l-.386.894c-.126.298-.19.544-.19.738 0 .256.103.447.31.57.123.072.421.127.9.162v.25h-3.057v-.25c.33-.048.603-.188.813-.411.214-.224.473-.687.787-1.386l3.287-7.332h.13l3.313 7.536c.317.712.576 1.163.78 1.347.152.14.37.22.651.243v.25h-4.446v-.25h.18c.357 0 .61-.049.752-.149a.356.356 0 0 0 .15-.31.76.76 0 0 0-.043-.25 6.595 6.595 0 0 0-.204-.509l-.482-1.143Zm-.23-.502-1.37-3.164-1.409 3.164h2.779Zm13.242-.106-.347 3.225h-8.16v-.25h.304c.265 0 .482-.048.644-.142a.624.624 0 0 0 .272-.324c.049-.107.075-.392.075-.855v-6.046c0-.47-.026-.764-.075-.88a.667.667 0 0 0-.301-.309c-.152-.087-.356-.132-.612-.132h-.305v-.25h4.9v.25h-.398c-.266 0-.483.048-.645.142a.664.664 0 0 0-.278.324c-.049.107-.075.392-.075.855v5.855c0 .47.026.77.081.897.055.13.162.224.318.288.113.042.385.062.82.062h.763c.49 0 .894-.087 1.221-.26.324-.17.606-.443.846-.812.24-.37.463-.916.673-1.639h.279Zm-46.62-24.425c.155-.162.424-.03.395.19-.175 1.244-.5 3.935-.172 4.71.427 1.016.91 2.367 3.688 2.574 2.78.207 5.082-2.092 6.043-4.874.962-2.782 1.176-8.504 1.07-10.641a50.084 50.084 0 0 0-.263-3.333.089.089 0 0 0-.033-.061l-.408-.408a.231.231 0 0 1-.01-.318l1.924-2.156a.224.224 0 0 1 .292-.042c.366.226 1.227.845 1.438 1.72.217.906.084 1.955.022 2.321a.234.234 0 0 1-.155.181l-.677.227a.233.233 0 0 0-.159.214c-.022 1.45-.226 12.241-1.175 15.133-1.017 3.102-3.103 5.667-5.83 6.043-2.726.376-6.15-.317-7.7-3.394-1.406-2.804.064-6.38 1.71-8.086Z" fill="#000"/><path d="M24.696 43.752s2.642.353 4.996 0c2.355-.353 7.005-1.05 9.894-5.22 2.889-4.172 4.385-10.215 4.385-10.215s.356-.738.534.32c.117.688 0 8.45 1.176 10.484 1.175 2.033 2.833 3.154 4.012 3.21 1.176.054 14.227 0 14.227 0s1.175-1.018 1.068-1.873c-.107-.855-.91-2.033-2.247-2.675-1.338-.64-6.283-2.804-6.898-3.047-2.14-.845-3.958.055-3.958.055l-3.795 3.316s-.748.696-1.124-.59c-.375-1.285-.855-10.64-1.175-12.299a31.878 31.878 0 0 0-.424-1.94c-.065-.252-.263-.466-.519-.515-.3-.055-.47.143-.819 1.008-.628 1.557-2.086 6.418-2.889 8.556-.55 1.467-.845 2.179-.978 2.483a.283.283 0 0 1-.291.172l-.683-.065a.32.32 0 0 1-.285-.259c-.185-.981-.978-4.812-2.416-7.037-1.658-2.568-4.962-2.727-4.962-2.727s-1.402 4.12 1.166 5.347c1.224.586 1.853.748 2.173.755a.8.8 0 0 1 .67.391l3.307 5.574a.336.336 0 0 1-.01.36c-.64.942-4.048 5.262-12.71 5.589-3.64.139-1.986.197-1.986.197l.56.645Z" fill="#000"/><path d="M56.833 39.127c-1.603-2.824-5.243-2.675-7.504.308 1.48 1.79 4.288 1.674 7.504-.308Z" fill="#fff"/></svg>