<svg width="100" height="94" fill="none" xmlns="http://www.w3.org/2000/svg"><path d="M53.324 12.534c6.566 5.355 19.056 17.68 1.36 45.322-.867 1.36-1.555 1.122-1.75-.479-1.316-10.53-10.933-15.421-14.478-22.795-2.274-4.727-3.231-12.146 2.124-18.413 1.047-1.227 2.722-.883 3.934.18 2.453 2.153 6.177 7.703 7.359 15.645.239 1.6.568 1.57.673-.03C53.548 17.036 44.783 7.703 41.94 5.37 25.128-8.48-1.421 6.043.059 33.116 1.48 59.097 32.622 83.209 44.843 91.705c2.647 1.84 7.074 1.84 9.722 0 12.22-8.496 43.362-32.608 44.783-58.59C100.964 3.62 66.965-11.083 52.74 9.798c-1.107 1.645.404 2.588.584 2.737Z" fill="#466B42"/><path d="M54.685 57.87c-.867 1.362-1.556 1.123-1.75-.478-1.316-10.53-10.934-15.421-14.479-22.795-1.391-2.902-2.289-6.806-1.54-10.845-1.137 4.981-.315 9.618 1.54 13.447 3.56 7.39 12.31 12.116 12.804 24.187.06 1.615 1.316 1.75 2.184.389 4.038-6.327 6.506-11.832 7.822-16.663-1.45 3.83-3.59 8.077-6.581 12.759Z" fill="#436A41"/></svg>