<svg width="18" height="18" fill="none" xmlns="http://www.w3.org/2000/svg"><g clip-path="url(#a)"><path d="M17.185 0s-.936 2.708-6.366 3.917c-4.182.937-6.304 2.104-7.823 3.541C1.04 9.312.166 12.542 1.79 14.73c-.374 1.125-.79 1.98-1.393 2.5-.437.375-.604.854-.063.771.77-.104 1.27-.958 2.164-2.938 1.643-3.624 3.745-7.041 10.84-8.666-8.718 2.583-9.197 7.75-10.133 9.208 2.975 2 6.803.98 9.487-1.125C19.431 9.25 17.185.042 17.185 0Z" fill="#3D6637"/></g><defs><clipPath id="a"><path fill="#fff" d="M0 0h17.538v18H0z"/></clipPath></defs></svg>