<svg width="364" height="152" fill="none" xmlns="http://www.w3.org/2000/svg"><path d="M244.106 137.86c.527-.528 1.231-1.407 2.11-2.11 1.759-1.407 4.22-2.99 7.562-3.869h.527c0 .176 0 .176-.176.352-1.406 1.934-3.868 3.341-6.154 4.396-1.407.352-2.814.879-3.869 1.231Zm.527.879c1.056-.176 2.814-.527 4.573-.527 2.813-.176 6.33-.176 9.32.703.175 0 .351.176.527.176-.176 0-.352.176-.527.176-3.517.879-7.562.703-10.551.175-1.231-.351-2.462-.527-3.342-.703Zm-.703.879c.879.352 2.286.704 3.517 1.407 2.462 1.055 5.1 2.638 6.331 4.748 0 .176.175.176.175.352-.175 0-.351 0-.527-.176-3.165-.879-5.451-2.462-7.21-3.869-.879-.879-1.758-1.758-2.286-2.462Zm4.748.704c3.165.351 6.858.527 10.551-.352.352 0 .528-.176.879-.352.176.176.352.352.352.528.703.879 1.055 2.286 1.231 3.693-1.759.879-3.693 1.582-5.1 1.934-.351 0-.527.176-.879.176 0-.176-.176-.352-.176-.528-1.583-2.286-4.396-3.868-6.858-5.099Zm14.244 2.813c-.176-1.231-.528-2.462-1.231-3.341-.176-.352-.528-.527-.704-.879 0 0 .176 0 .176-.176.88-.879 1.407-2.11 1.759-3.341 0-.176.176-.352.176-.703 1.582.879 3.165 1.758 4.396 2.461a16.633 16.633 0 0 0 2.989 1.583c.176 0 .352.176.528.176-.703.176-1.407.527-2.286 1.055-1.759 1.055-3.693 2.286-5.803 3.165Zm-2.99-4.748c-.175-.175-.527-.175-.879-.351-3.517-.88-7.21-1.055-10.199-.704h-.352c.176 0 .176 0 .176-.176 2.462-1.055 5.1-2.637 6.682-4.748.176-.175.176-.351.176-.527 1.231.176 2.814.879 4.396 1.583.528.175 1.055.527 1.583.703-.176 1.231-.528 2.462-1.055 3.341 0 .352-.176.528-.528.879Zm-16.705-1.231c-.352.528-.352 1.056.175 1.407h.176c-.176 0-.176.176-.351.352-.352.352-.176.879 0 1.231.703.879 1.582 1.758 2.462 2.638.175.175.527.527.879.703 2.11 1.583 4.396 2.814 6.858 3.341.176 0 .527.176.703.176.352 0 .704-.176.88-.352.175.176.527.352.879.176.352 0 .527-.176.879-.176 1.407-.351 3.165-1.055 5.276-2.11.351-.176.527-.352.527-.703.352.176.528.176.879 0 1.055-.528 2.111-1.055 3.166-1.759.879-.527 1.758-.879 2.462-1.231.879-.351 1.582-.703 2.11-.879.351-.176.703-.528.703-.879 0-.352-.176-.879-.703-1.055-.176 0-.352-.176-.352-.176-.879-.352-1.934-1.055-2.814-1.583-.351-.176-.703-.527-1.23-.703-1.056-.528-2.111-1.231-3.342-1.935-.175-.175-.527-.175-.879 0 0-.351-.352-.527-.527-.703-.528-.352-1.056-.528-1.583-.703-1.759-.88-3.341-1.407-4.572-1.583-.352 0-.704 0-.879.176a1.344 1.344 0 0 0-.88-.352c-.351 0-.527 0-.703.176-3.693.879-6.507 2.638-8.089 4.045-.704.879-1.407 1.582-2.11 2.461Zm-138.745 2.99c-.528.527-1.231 1.406-2.11 2.11-1.759 1.407-4.22 2.989-7.562 3.869h-.527c0-.176 0-.176.176-.352 1.406-1.934 3.868-3.341 6.154-4.396 1.231-.528 2.814-.88 3.869-1.231Zm-.703-.88c-1.055.176-2.814.528-4.572.528-2.814.176-6.331.176-9.32-.703-.176 0-.352-.176-.528-.176.176 0 .352-.176.528-.176 3.516-.879 7.561-.704 10.55-.176 1.407.176 2.462.528 3.342.703Zm.703-.879c-.879-.352-2.286-.703-3.517-1.407-2.462-1.055-5.1-2.637-6.33-4.748 0-.175-.176-.175-.176-.351.175 0 .351 0 .527.176 3.165.879 5.451 2.461 7.21 3.868 1.055.88 1.758 1.759 2.286 2.462Zm-4.572-.703c-3.165-.352-6.858-.528-10.551.351-.352 0-.528.176-.88.352-.175-.176-.351-.352-.351-.527-.528-.88-.88-2.286-1.231-3.693 1.758-.879 3.693-1.583 5.1-1.935.351 0 .527-.175.879-.175 0 .175.176.351.176.527 1.582 2.286 4.22 3.869 6.858 5.1Zm-14.244-2.99c.176 1.231.528 2.462 1.231 3.341.176.352.528.528.703.88 0 0-.175 0-.175.176-.88.879-1.407 2.11-1.759 3.341 0 .176-.176.351-.176.703-1.582-.879-3.165-1.758-4.396-2.462a16.619 16.619 0 0 0-2.99-1.582c-.175 0-.351-.176-.527-.176.703-.176 1.407-.528 2.286-1.055 1.583-.88 3.693-2.111 5.803-3.166Zm2.814 4.924c.175.176.527.176.879.352 3.517.879 7.21 1.055 10.2.703h.35s-.175 0-.175.176c-2.462 1.055-5.1 2.638-6.682 4.748-.176.176-.176.352-.176.528-1.231-.176-2.814-.88-4.396-1.583-.528-.176-1.055-.528-1.583-.703.176-1.231.528-2.462 1.055-3.342.176-.351.352-.527.528-.879Zm16.881 1.231c.352-.527.352-1.055-.176-1.407h-.175c.175 0 .175-.176.351-.351.176-.352.176-.88 0-1.231-.703-.88-1.582-1.759-2.462-2.638-.175-.176-.527-.528-.879-.704-2.11-1.582-4.396-2.813-6.858-3.341-.176 0-.528-.176-.703-.176-.352 0-.704.176-.88.352-.175-.176-.527-.352-.879-.176-.352 0-.528.176-.88.176-1.406.352-3.164 1.055-5.275 2.11-.351.176-.527.352-.527.704-.352-.176-.528-.176-.88 0-1.055.527-2.11 1.055-3.165 1.758-.879.528-1.758.88-2.462 1.231-.879.352-1.582.704-2.11.879-.352.176-.703.528-.703.88 0 .351.176.879.703 1.055.176 0 .352.176.352.176.88.351 1.934 1.055 2.813 1.582.352.176.704.528 1.231.704 1.056.527 2.11 1.231 3.341 1.934.176.176.528.176.88 0 0 .352.176.528.527.703.528.352 1.055.528 1.583.704 1.758.879 3.341 1.407 4.572 1.583.352 0 .703 0 .88-.176.175.176.527.351.879.351.351 0 .527 0 .703-.175 3.693-.88 6.506-2.638 8.089-4.045.528-.879 1.231-1.583 2.11-2.462-.176 0-.176 0 0 0Z" fill="#D6C19A"/><path d="M119.43 128.364v6.858h1.582c1.583 0 2.462-.703 2.462-2.814v-1.406c0-1.935-.703-2.638-2.11-2.638h-1.934Zm0 10.551v8.089h2.286c1.407 0 2.11-.703 2.11-2.638v-2.286c0-2.462-.703-3.165-2.638-3.165h-1.758Zm8.265-8.265v.879c0 2.638-.879 4.396-2.638 5.276 2.286.879 2.989 2.813 2.989 5.627v2.11c0 4.045-2.11 6.155-6.154 6.155h-6.507v-26.202h6.155c4.22 0 6.155 2.11 6.155 6.155Z" fill="#AB8E77"/><path d="M119.43 128.364v6.858h1.582c1.583 0 2.462-.703 2.462-2.814v-1.406c0-1.935-.703-2.638-2.11-2.638h-1.934Zm0 10.551v8.089h2.286c1.407 0 2.11-.703 2.11-2.638v-2.286c0-2.462-.703-3.165-2.638-3.165h-1.758Zm8.265-8.265v.879c0 2.638-.879 4.396-2.638 5.276 2.286.879 2.989 2.813 2.989 5.627v2.11c0 4.045-2.11 6.155-6.154 6.155h-6.507v-26.202h6.155c4.22 0 6.155 2.11 6.155 6.155Z" stroke="#56453A" stroke-width=".326" stroke-miterlimit="10"/><path d="M138.244 124.495H134.2v26.202h4.044v-26.202Z" fill="#AB8E77"/><path d="M138.246 124.495h-4.045v26.202h4.045v-26.202Z" stroke="#56453A" stroke-width=".326" stroke-miterlimit="10"/><path d="M148.796 144.718c0 1.934.879 2.638 2.11 2.638 1.231 0 2.11-.704 2.11-2.638V130.65c0-1.934-.879-2.638-2.11-2.638-1.231 0-2.11.704-2.11 2.638v14.068Zm-4.045-13.892c0-4.221 2.287-6.507 6.155-6.507 3.869 0 6.155 2.462 6.155 6.507v13.54c0 4.221-2.286 6.507-6.155 6.507-3.868 0-6.155-2.462-6.155-6.507v-13.54Z" fill="#AB8E77"/><path d="M148.796 144.718c0 1.934.879 2.638 2.11 2.638 1.231 0 2.11-.704 2.11-2.638V130.65c0-1.934-.879-2.638-2.11-2.638-1.231 0-2.11.704-2.11 2.638v14.068Zm-4.045-13.892c0-4.221 2.287-6.507 6.155-6.507 3.869 0 6.155 2.462 6.155 6.507v13.54c0 4.221-2.286 6.507-6.155 6.507-3.868 0-6.155-2.462-6.155-6.507v-13.54Z" stroke="#56453A" stroke-width=".326" stroke-miterlimit="10"/><path d="M163.567 124.495v26.202h4.045V139.97h5.276v-3.869h-5.276v-7.737h6.858v-3.869h-10.903Z" fill="#AB8E77"/><path d="M167.612 136.101h5.276v3.869h-5.276v10.727h-4.044v-26.202h10.902v3.869h-6.858v7.737Z" stroke="#56453A" stroke-width=".326" stroke-miterlimit="10"/><path d="M183.966 144.718c0 1.934.88 2.638 2.111 2.638 1.231 0 2.11-.704 2.11-2.638V130.65c0-1.934-.879-2.638-2.11-2.638-1.231 0-2.111.704-2.111 2.638v14.068Zm-4.22-13.892c0-4.221 2.286-6.507 6.155-6.507 4.044 0 6.154 2.462 6.154 6.507v13.54c0 4.221-2.286 6.507-6.154 6.507-4.045 0-6.155-2.462-6.155-6.507v-13.54Z" fill="#AB8E77"/><path d="M183.966 144.718c0 1.934.88 2.638 2.111 2.638 1.231 0 2.11-.704 2.11-2.638V130.65c0-1.934-.879-2.638-2.11-2.638-1.231 0-2.111.704-2.111 2.638v14.068Zm-4.22-13.892c0-4.221 2.286-6.507 6.155-6.507 4.044 0 6.154 2.462 6.154 6.507v13.54c0 4.221-2.286 6.507-6.154 6.507-4.045 0-6.155-2.462-6.155-6.507v-13.54Z" stroke="#56453A" stroke-width=".326" stroke-miterlimit="10"/><path d="M202.781 128.364v8.089h1.583c1.582 0 2.462-.703 2.462-2.814v-2.637c0-1.935-.704-2.638-2.111-2.638h-1.934Zm4.396 22.333c-.175-.704-.351-1.055-.351-3.166v-4.044c0-2.462-.88-3.341-2.638-3.341h-1.407v10.551h-4.22v-26.202h6.154c4.221 0 6.155 1.934 6.155 5.979v2.11c0 2.638-.879 4.396-2.638 5.276 2.111.879 2.638 2.813 2.638 5.627v4.044c0 1.231 0 2.287.528 3.166h-4.221Z" fill="#AB8E77"/><path d="M202.781 128.364v8.089h1.583c1.582 0 2.462-.703 2.462-2.814v-2.637c0-1.935-.704-2.638-2.111-2.638h-1.934Zm4.396 22.333c-.175-.704-.351-1.055-.351-3.166v-4.044c0-2.462-.88-3.341-2.638-3.341h-1.407v10.551h-4.22v-26.202h6.154c4.221 0 6.155 1.934 6.155 5.979v2.11c0 2.638-.879 4.396-2.638 5.276 2.111.879 2.638 2.813 2.638 5.627v4.044c0 1.231 0 2.287.528 3.166h-4.221Z" stroke="#56453A" stroke-width=".326" stroke-miterlimit="10"/><path d="m228.808 124.495-2.813 18.64-2.99-18.64h-5.627v26.202h3.517v-18.464l3.165 18.464h3.869l2.813-18.816v18.816h3.869v-26.202h-5.803Z" fill="#AB8E77"/><path d="m225.993 143.135 2.813-18.64h5.804v26.202h-3.869v-18.816l-2.814 18.816h-3.869l-3.165-18.464v18.464h-3.517v-26.202h5.627l2.99 18.64Z" stroke="#56453A" stroke-width=".326" stroke-miterlimit="10"/><path d="M206.475 40.615s-11.606-36.05-11.606-36.577c0-.528-10.376 36.577-10.376 36.577h21.982Zm-126.437 68.23a55.116 55.116 0 0 1-11.079 11.078c-4.22 3.166-8.616 5.804-13.364 8.09-5.1 2.461-10.2 3.868-15.3 4.22-5.099.352-9.847-.176-14.419-1.583a36.123 36.123 0 0 1-12.485-7.385c-3.693-3.342-6.858-7.738-9.32-13.013C1.609 104.976.202 99.877.026 94.777c-.176-5.1.528-9.848 2.286-14.244 1.759-4.396 4.397-8.44 7.914-12.134 3.516-3.692 7.913-6.682 13.012-9.144 5.276-2.462 10.376-4.044 15.3-4.924a29.382 29.382 0 0 1 14.595 1.055l-4.924 15.827c-2.99-1.055-5.803-1.583-8.792-1.407-2.99.176-6.331 1.055-10.024 2.814a22.64 22.64 0 0 0-7.561 5.451c-1.935 2.286-3.517 4.748-4.397 7.386a20.07 20.07 0 0 0-.879 8.617c.352 2.989 1.055 6.154 2.462 9.144 1.407 3.165 3.341 5.627 5.451 7.737a21.426 21.426 0 0 0 7.21 4.748c2.638 1.055 5.452 1.407 8.441 1.407 2.99-.176 5.979-.879 9.144-2.462a28.124 28.124 0 0 0 7.562-4.924c1.934-1.758 3.34-3.341 4.396-4.748l-5.1-10.55-11.782 5.45-6.33-13.364 25.674-12.134 16.354 34.467ZM74.41 65.41l14.772-4.045 2.11 7.737h.176c.703-3.34 2.11-6.154 3.869-8.265 1.758-2.11 4.22-3.517 7.561-4.396l2.638-.527c.879-.176 1.758-.176 2.462-.176l3.693 13.54c-1.055 0-2.286 0-3.341.176-1.056.176-2.111.352-3.342.704-2.813.703-4.923 1.758-6.33 2.989-1.407 1.23-2.462 2.638-2.99 4.396-.527 1.583-.703 3.517-.351 5.627.351 2.11.703 4.22 1.406 6.683l5.452 20.047-14.772 4.044L74.41 65.409Zm75.089 4.396c-.176-2.638-1.407-4.748-3.341-6.33-1.935-1.584-4.396-2.287-7.21-1.935a10.798 10.798 0 0 0-4.396 1.407c-1.231.703-2.286 1.582-2.99 2.461-.879.88-1.407 2.11-1.758 3.166-.352 1.23-.528 2.462-.352 3.693l20.047-2.462Zm15.651 20.047c-2.111 3.34-4.748 6.154-8.265 8.44-3.517 2.111-7.21 3.517-11.255 4.045-3.868.527-7.386.352-10.903-.528-3.517-.879-6.682-2.11-9.32-4.044-2.813-1.934-5.099-4.396-6.858-7.386-1.758-2.99-2.989-6.506-3.517-10.375-.527-3.869-.176-7.562.88-10.903 1.055-3.34 2.637-6.33 4.747-8.968 2.111-2.638 4.924-4.748 8.09-6.33 3.165-1.583 6.682-2.638 10.551-3.166 3.517-.527 6.858-.176 9.847.703 2.99.88 5.627 2.286 7.913 4.22 2.287 1.935 4.221 4.573 5.628 7.562 1.406 2.99 2.462 6.507 2.989 10.376l.528 4.748-35.346 4.396c1.055 2.813 2.638 4.924 4.748 6.506 2.286 1.407 4.924 1.934 7.913 1.583 2.462-.352 4.572-1.055 6.155-2.462 1.582-1.407 2.989-2.99 4.044-4.924l11.431 6.507Zm40.973-20.751c.176-2.637-.527-4.748-2.286-6.682-1.758-1.934-3.868-2.99-6.682-2.99-1.759 0-3.165.176-4.572.704s-2.462 1.055-3.341 1.934c-.88.88-1.759 1.759-2.286 2.814-.528 1.055-.88 2.286-1.055 3.517l20.222.703Zm12.134 22.51c-2.638 2.989-5.803 5.275-9.672 6.857-3.868 1.583-7.737 2.286-11.782 2.111-3.868-.176-7.385-.88-10.727-2.287-3.341-1.406-6.154-3.165-8.616-5.627-2.462-2.462-4.221-5.275-5.452-8.44-1.231-3.342-1.934-6.859-1.758-10.903.176-3.869 1.055-7.562 2.638-10.551a25.208 25.208 0 0 1 6.154-7.913c2.638-2.11 5.628-3.87 8.969-4.924a31.486 31.486 0 0 1 10.902-1.407c3.517.176 6.683.88 9.496 2.286 2.814 1.407 5.276 3.165 7.21 5.627 1.935 2.286 3.341 5.1 4.221 8.441a34.628 34.628 0 0 1 1.231 10.727l-.176 4.748-35.522-1.583c.528 2.99 1.759 5.276 3.693 7.21 1.934 1.759 4.396 2.814 7.386 2.99 2.461.175 4.748-.352 6.506-1.407 1.759-1.055 3.341-2.462 4.748-4.22l10.551 8.264Zm14.771-39.567 14.42 3.165-1.407 6.507h.176c.703-.88 1.583-1.583 2.638-2.286 1.055-.704 2.286-1.407 3.693-1.759 1.406-.527 2.813-.703 4.396-.88 1.582-.175 3.341 0 5.099.353 3.869.879 6.683 2.11 8.793 3.692 2.11 1.583 3.517 3.693 4.396 5.98.879 2.285 1.231 4.923 1.055 7.913-.176 2.813-.527 5.978-1.231 9.32l-5.803 26.729-14.947-3.165 5.1-23.74c.351-1.407.527-2.814.703-4.396.176-1.583.176-2.99 0-4.397s-.703-2.638-1.583-3.517c-.879-1.055-2.286-1.758-4.22-2.11-1.934-.352-3.517-.352-4.924 0-1.407.528-2.462 1.231-3.341 2.286s-1.583 2.286-2.11 3.693c-.528 1.407-.879 2.99-1.231 4.572l-5.276 24.092-14.947-3.166 10.551-48.886Zm65.93-11.98-25.352 72.914 14.45 5.024 25.351-72.913-14.449-5.025Zm16.192 98.85c-2.11 1.934-4.045 3.693-5.803 5.099-1.759 1.407-3.517 2.462-5.452 2.99a15.099 15.099 0 0 1-6.33.352c-2.286-.352-5.1-1.231-8.441-2.99-3.517-1.758-6.682-3.869-9.496-6.682l7.386-10.375c1.582 1.934 3.517 3.517 5.803 4.572 1.583.703 2.813 1.231 4.044 1.407 1.231.175 2.111 0 3.166-.352.879-.352 1.934-.879 2.813-1.583a196.42 196.42 0 0 0 2.99-2.462l2.286-2.11 2.286-54.513 14.947 7.21-2.813 35.169.175.176 24.268-24.795 14.244 6.859-46.073 42.028Z" fill="#D6C19A"/><path d="M39.241 31.294c0 .704-.176 1.407-.527 1.759-.352.352-.88.528-1.407.528-.528 0-1.055-.176-1.407-.528-.352-.352-.528-1.055-.528-1.758V3.685c0-.703.176-1.407.528-1.758.176-.528.703-.704 1.407-.704.527 0 1.055.176 1.407.528.351.351.527 1.055.527 1.758v12.134H56.3V3.686c0-.703.175-1.407.527-1.758.528-.528.88-.704 1.583-.704.527 0 1.055.176 1.407.528.351.351.527 1.055.527 1.758v27.785c0 .703-.176 1.406-.527 1.758-.352.352-.88.528-1.407.528-.528 0-1.055-.176-1.407-.528-.352-.352-.528-1.055-.528-1.758V19.16H39.418v12.133h-.176Zm32.885-9.847c0 1.055.175 2.11.351 2.99.176 1.055.528 1.934 1.231 2.813a6.062 6.062 0 0 0 2.11 2.11c.88.528 1.935.88 3.166.88a6.07 6.07 0 0 0 3.165-.88 6.063 6.063 0 0 0 2.11-2.11c.528-.88.88-1.758 1.231-2.813.176-1.056.352-2.11.352-2.99 0-1.055-.176-2.11-.352-2.99-.176-1.054-.527-1.934-1.23-2.813a6.062 6.062 0 0 0-2.11-2.11 6.073 6.073 0 0 0-3.166-.88 6.072 6.072 0 0 0-3.165.88 6.06 6.06 0 0 0-2.11 2.11c-.528.88-.88 1.759-1.232 2.814-.175 1.055-.351 1.934-.351 2.99Zm-4.045 0c0-1.582.176-3.165.703-4.572.528-1.407 1.231-2.814 2.11-3.869.88-1.055 2.11-2.11 3.342-2.637 1.407-.704 2.813-1.056 4.572-1.056 1.758 0 3.165.352 4.572 1.056a10.12 10.12 0 0 1 3.341 2.637c.88 1.055 1.583 2.462 2.11 3.869.528 1.407.704 2.99.704 4.572 0 1.583-.176 3.165-.704 4.572-.527 1.407-1.23 2.814-2.11 3.869-.88 1.055-2.11 2.11-3.341 2.638-1.407.703-2.814 1.055-4.572 1.055-1.759 0-3.165-.352-4.572-1.055a10.119 10.119 0 0 1-3.341-2.638c-.88-1.055-1.583-2.462-2.11-3.869-.528-1.407-.704-2.99-.704-4.572Zm43.435-3.165c0-1.759-.528-2.99-1.407-4.045-.879-1.055-2.11-1.406-3.869-1.406-1.582 0-2.989.527-3.868 1.406-.88 1.055-1.407 2.286-1.407 4.045v13.364c0 .704-.176 1.231-.528 1.583-.351.352-.879.528-1.406.528-.528 0-1.056-.176-1.407-.528-.352-.352-.528-.88-.528-1.583V11.424c0-.704.176-1.231.528-1.583.351-.352.879-.528 1.407-.528.527 0 1.055.176 1.406.528.352.352.528.88.528 1.583v.703h.176c.176-.352.527-.703.879-.88.352-.35.703-.703 1.231-.878.527-.352 1.055-.528 1.758-.704.704-.176 1.407-.352 2.286-.352 1.231 0 2.286.352 3.517.88 1.231.527 2.286 1.582 3.342 3.165.879-1.23 1.934-2.286 2.989-2.99 1.231-.703 2.638-1.055 4.396-1.055.88 0 1.935.176 2.99.528 1.055.352 1.934.88 2.637 1.583.88.703 1.583 1.582 2.111 2.813.527 1.055.703 2.462.703 4.045V31.47c0 .703-.176 1.23-.527 1.582-.352.352-.88.528-1.407.528-.528 0-1.055-.176-1.407-.528-.352-.351-.528-.879-.528-1.582V18.28c0-1.758-.527-2.989-1.406-4.044-.88-1.055-2.111-1.406-3.869-1.406-1.583 0-2.99.527-3.869 1.406-.879 1.055-1.407 2.286-1.407 4.045v13.364c0 .704-.175 1.231-.527 1.583-.352.352-.879.528-1.407.528s-1.055-.176-1.407-.528c-.351-.352-.527-.88-.527-1.583V18.282h-.176Zm43.083 1.758c0-.879-.176-1.758-.352-2.637-.176-.88-.704-1.583-1.231-2.286-.528-.704-1.231-1.232-1.934-1.759-.88-.528-1.759-.703-2.814-.703-1.231 0-2.286.175-3.165.527-.88.352-1.583 1.055-2.111 1.759-.527.703-.879 1.406-1.23 2.461-.176.88-.352 1.759-.352 2.638h13.189Zm-13.365 2.99c0 1.055.176 1.934.528 2.813.351.88.879 1.583 1.406 2.286.704.704 1.407 1.231 2.286 1.583.88.352 1.935.528 2.99.528 1.407 0 2.462-.176 3.341-.528.879-.352 1.583-.703 2.286-1.055l1.583-1.055c.351-.352.879-.528 1.231-.528.351 0 .703.176 1.055.528.351.351.527.703.527 1.23 0 .528-.351 1.056-.879 1.583-.528.528-1.231 1.056-2.286 1.583-.879.528-1.934.88-3.165 1.231-1.231.352-2.286.528-3.517.528-1.935 0-3.693-.352-5.1-1.055-1.407-.704-2.638-1.583-3.517-2.638s-1.583-2.462-1.934-3.869c-.352-1.407-.704-2.99-.704-4.572 0-1.583.176-3.165.704-4.572.527-1.407 1.231-2.814 2.11-3.869.879-1.055 2.11-1.934 3.341-2.638 1.407-.703 2.814-1.055 4.572-1.055 1.583 0 3.165.352 4.396 1.055 1.231.704 2.462 1.583 3.342 2.638.879 1.055 1.582 2.286 2.11 3.693.527 1.407.703 2.814.703 4.22 0 .704-.176 1.231-.527 1.583-.352.352-.88.528-1.759.528h-15.123v-.176Zm102.168-4.22c-.527 0-1.055-.177-1.406-.528-.352-.352-.528-.704-.528-1.407 0-.703.176-1.055.528-1.407.351-.352.879-.527 1.406-.527h6.683c1.055 0 1.758.175 2.286.703.527.528.703 1.23.703 2.638 0 1.934-.176 3.868-.703 5.627-.352 1.758-1.231 3.517-2.11 4.924a11.907 11.907 0 0 1-4.221 3.517c-1.758.879-4.044 1.23-6.858 1.23-2.286 0-4.396-.527-6.155-1.406-1.758-.88-3.341-2.11-4.396-3.693-1.231-1.583-2.11-3.165-2.638-5.276-.527-1.934-.879-4.044-.879-5.978 0-2.11.352-4.045.879-5.98.528-1.934 1.583-3.692 2.638-5.275 1.231-1.582 2.814-2.638 4.572-3.693 1.935-.879 4.045-1.406 6.682-1.406 1.759 0 3.166.175 4.573.527 1.406.352 2.461.88 3.517 1.407 1.055.527 1.758 1.055 2.286 1.758.527.528.879 1.056.879 1.583 0 .528-.176.88-.528 1.407-.527.527-1.055.703-1.582.703-.528 0-1.055-.176-1.583-.527a34.906 34.906 0 0 1-1.758-1.231c-.704-.528-1.583-.88-2.462-1.231-1.055-.352-2.286-.528-3.693-.528-1.759 0-3.341.352-4.748 1.231-1.231.704-2.286 1.759-3.165 2.99-.88 1.23-1.407 2.637-1.759 4.044-.352 1.583-.528 2.99-.528 4.572 0 1.583.176 2.99.528 4.572.352 1.583 1.055 2.814 1.759 4.045.879 1.23 1.934 2.286 3.165 2.99 1.407.703 2.989 1.055 4.748 1.055 1.582 0 2.989-.352 4.22-.88 1.231-.527 2.11-1.407 2.99-2.286.703-.879 1.406-1.934 1.758-3.165.352-1.055.528-2.286.528-3.341v-1.759h-5.628Zm13.189-7.386c0-.704.176-1.231.528-1.583.351-.352.879-.528 1.407-.528.527 0 1.055.176 1.406.528.352.352.528.88.528 1.583v.879l.176.176c.879-1.055 1.934-1.935 3.165-2.462 1.231-.528 2.462-.704 3.693-.704.879 0 1.934.176 2.989.528 1.055.352 1.935.88 2.638 1.583.879.703 1.583 1.582 2.11 2.813.528 1.231.88 2.638.88 4.22v13.19c0 .703-.176 1.23-.528 1.582-.352.352-.879.528-1.407.528-.527 0-1.055-.176-1.407-.528-.351-.352-.527-.88-.527-1.583V18.634c0-1.056-.176-1.935-.528-2.638-.351-.704-.703-1.407-1.231-1.759-.527-.527-1.055-.879-1.758-1.055-.704-.176-1.407-.351-1.934-.351-.704 0-1.407.175-1.935.351-.703.176-1.231.528-1.758 1.055-.528.528-1.055 1.055-1.231 1.759-.352.703-.528 1.582-.528 2.638v13.012c0 .704-.176 1.231-.527 1.583-.352.352-.88.528-1.407.528-.528 0-1.055-.176-1.407-.528-.352-.352-.528-.88-.528-1.583V11.424h-.879Zm27.61 10.023c0 1.055.176 2.11.352 2.99.176 1.055.528 1.934 1.055 2.813a6.068 6.068 0 0 0 2.11 2.11c.88.528 1.935.88 3.166.88a6.071 6.071 0 0 0 3.165-.88 6.06 6.06 0 0 0 2.11-2.11c.528-.88.879-1.758 1.231-2.813.176-1.056.352-2.11.352-2.99 0-1.055-.176-2.11-.352-2.99-.176-1.054-.527-1.934-1.231-2.813a6.058 6.058 0 0 0-2.11-2.11 6.07 6.07 0 0 0-3.165-.88 6.077 6.077 0 0 0-3.166.88 6.066 6.066 0 0 0-2.11 2.11c-.527.88-.879 1.759-1.055 2.814-.176 1.055-.352 1.934-.352 2.99Zm-4.044 0c0-1.582.176-3.165.703-4.572.528-1.407 1.231-2.814 2.11-3.869.88-1.055 2.111-2.11 3.342-2.637 1.406-.704 2.813-1.056 4.572-1.056 1.758 0 3.165.352 4.572 1.056a10.114 10.114 0 0 1 3.341 2.637c.879 1.055 1.583 2.462 2.11 3.869.528 1.407.704 2.99.704 4.572 0 1.583-.176 3.165-.704 4.572-.527 1.407-1.231 2.814-2.11 3.869-.879 1.055-2.11 2.11-3.341 2.638-1.407.703-2.814 1.055-4.572 1.055-1.759 0-3.166-.352-4.572-1.055a10.129 10.129 0 0 1-3.342-2.638c-.879-1.055-1.582-2.462-2.11-3.869-.527-1.407-.703-2.99-.703-4.572Zm40.092-3.165c0-1.759-.528-2.99-1.407-4.045-.879-1.055-2.11-1.406-3.869-1.406-1.582 0-2.989.527-3.868 1.406-.88 1.055-1.407 2.286-1.407 4.045v13.364c0 .704-.176 1.231-.528 1.583-.351.352-.879.528-1.406.528-.528 0-1.056-.176-1.407-.528-.352-.352-.528-.88-.528-1.583V11.424c0-.704.176-1.231.528-1.583.351-.352.879-.528 1.407-.528.527 0 1.055.176 1.406.528.352.352.528.88.528 1.583v.703h.176c.176-.352.527-.703.879-.88.352-.35.703-.703 1.231-.878.528-.352 1.055-.528 1.758-.704.704-.176 1.407-.352 2.287-.352 1.23 0 2.286.352 3.517.88 1.23.527 2.286 1.582 3.165 3.165.879-1.23 1.934-2.286 2.989-2.99 1.231-.703 2.638-1.055 4.397-1.055.879 0 1.934.176 2.813.528 1.055.352 1.934.88 2.638 1.583.879.703 1.583 1.582 2.11 2.813.528 1.231.879 2.638.879 4.22v13.19c0 .703-.176 1.23-.527 1.582-.352.352-.879.528-1.407.528s-1.055-.176-1.407-.528c-.352-.352-.527-.88-.527-1.583V18.282c0-1.759-.528-2.99-1.407-4.045-.879-1.055-2.11-1.406-3.869-1.406-1.583 0-2.989.527-3.869 1.406-.879 1.055-1.406 2.286-1.406 4.045v13.364c0 .704-.176 1.231-.528 1.583-.352.352-.879.528-1.407.528-.527 0-1.055-.176-1.407-.528-.351-.352-.527-.88-.527-1.583V18.282Zm39.567 1.758c0-.879-.176-1.758-.352-2.637-.176-.88-.703-1.583-1.231-2.286-.527-.704-1.231-1.232-1.934-1.759-.88-.528-1.759-.703-2.814-.703-1.231 0-2.286.175-3.165.527-.879.352-1.583 1.055-2.11 1.759-.528.703-.88 1.406-1.231 2.461-.176.88-.352 1.759-.352 2.638h13.189Zm-13.365 2.99c0 1.055.176 1.934.528 2.813.351.88.703 1.583 1.406 2.286.704.704 1.407 1.231 2.287 1.583.879.352 1.934.528 2.989.528 1.407 0 2.462-.176 3.341-.528.879-.352 1.583-.703 2.286-1.055l1.583-1.055c.352-.352.879-.528 1.231-.528.351 0 .703.176 1.055.528.352.351.527.703.527 1.23 0 .528-.351 1.056-.879 1.583-.527.528-1.231 1.056-2.286 1.583-.879.528-1.934.88-3.165 1.231-1.231.352-2.286.528-3.517.528-1.935 0-3.693-.352-5.1-1.055-1.407-.704-2.638-1.583-3.517-2.638s-1.582-2.462-1.934-3.869c-.352-1.407-.704-2.99-.704-4.572 0-1.583.176-3.165.704-4.572.527-1.407 1.231-2.814 2.11-3.869.879-1.055 2.11-1.934 3.341-2.638 1.407-.703 2.814-1.055 4.572-1.055 1.583 0 3.166.352 4.397 1.055 1.23.704 2.461 1.583 3.341 2.638.879 1.055 1.582 2.286 2.11 3.693.527 1.407.703 2.814.703 4.22 0 .704-.176 1.231-.527 1.583-.352.352-.88.528-1.759.528h-15.123v-.176Z" fill="#AB8E77"/></svg>