<svg width="401" height="166" fill="none" xmlns="http://www.w3.org/2000/svg"><path d="M268.519 150.686c.58-.58 1.354-1.547 2.321-2.321 1.935-1.547 4.643-3.288 8.318-4.256h.58c0 .194 0 .194-.193.387-1.548 2.128-4.256 3.676-6.77 4.836-1.548.387-3.095.967-4.256 1.354Zm.58.967c1.161-.193 3.095-.58 5.03-.58 3.095-.193 6.963-.193 10.252.774.193 0 .386.193.58.193-.194 0-.387.194-.58.194-3.869.967-8.318.773-11.606.193-1.354-.387-2.709-.58-3.676-.774Zm-.773.968c.967.386 2.514.773 3.868 1.547 2.708 1.161 5.61 2.902 6.964 5.223 0 .193.193.193.193.387-.193 0-.387 0-.58-.194-3.482-.967-5.996-2.708-7.931-4.255-.967-.967-1.934-1.935-2.514-2.708Zm5.222.773c3.482.387 7.544.581 11.606-.387.387 0 .581-.193.968-.386.193.193.386.386.386.58.774.967 1.161 2.515 1.354 4.062-1.934.967-4.062 1.741-5.609 2.128-.387 0-.58.193-.967.193 0-.193-.194-.387-.194-.58-1.741-2.515-4.836-4.256-7.544-5.61Zm15.669 3.095c-.194-1.354-.581-2.708-1.355-3.675-.193-.387-.58-.58-.773-.967 0 0 .193 0 .193-.194.967-.967 1.548-2.321 1.935-3.675 0-.193.193-.387.193-.774 1.741.968 3.482 1.935 4.836 2.709a18.276 18.276 0 0 0 3.288 1.74c.194 0 .387.194.581.194-.774.193-1.548.58-2.515 1.16-1.935 1.161-4.062 2.515-6.383 3.482Zm-3.289-5.222c-.193-.194-.58-.194-.967-.387-3.869-.967-7.931-1.161-11.219-.774h-.387c.193 0 .193 0 .193-.193 2.708-1.161 5.61-2.902 7.351-5.223.193-.194.193-.387.193-.581 1.354.194 3.095.968 4.836 1.741.58.194 1.161.581 1.741.774-.193 1.354-.58 2.708-1.161 3.675 0 .387-.193.581-.58.968Zm-18.376-1.354c-.387.58-.387 1.16.193 1.547h.194c-.194 0-.194.193-.387.387-.387.387-.194.967 0 1.354.774.967 1.741 1.934 2.708 2.901.193.194.58.581.967.774 2.321 1.741 4.836 3.095 7.544 3.675.193 0 .58.194.774.194.387 0 .774-.194.967-.387.193.193.58.387.967.193.387 0 .58-.193.967-.193 1.548-.387 3.482-1.161 5.803-2.321.387-.194.581-.387.581-.774.386.193.58.193.967 0 1.16-.58 2.321-1.161 3.482-1.934.967-.581 1.934-.967 2.708-1.354.967-.387 1.741-.774 2.321-.968.387-.193.774-.58.774-.967s-.194-.967-.774-1.16c-.193 0-.387-.194-.387-.194-.967-.387-2.128-1.16-3.095-1.741-.387-.193-.774-.58-1.354-.773-1.161-.581-2.321-1.354-3.675-2.128-.194-.194-.581-.194-.967 0 0-.387-.387-.58-.581-.774-.58-.387-1.16-.58-1.741-.774-1.934-.967-3.675-1.547-5.029-1.741-.387 0-.774 0-.967.194a1.473 1.473 0 0 0-.967-.387c-.387 0-.581 0-.774.193-4.062.968-7.157 2.902-8.898 4.449-.774.968-1.547 1.741-2.321 2.709Zm-152.621 3.288c-.58.58-1.354 1.547-2.321 2.321-1.934 1.547-4.642 3.288-8.318 4.255h-.58c0-.193 0-.193.193-.386 1.548-2.128 4.256-3.676 6.771-4.836 1.354-.581 3.095-.967 4.255-1.354Zm-.774-.967c-1.16.193-3.095.58-5.029.58-3.095.193-6.964.193-10.252-.774-.193 0-.387-.193-.58-.193.193 0 .387-.194.58-.194 3.869-.967 8.318-.774 11.606-.193 1.548.193 2.708.58 3.675.774Zm.774-.968c-.967-.387-2.514-.773-3.869-1.547-2.708-1.161-5.609-2.902-6.963-5.223 0-.193-.194-.193-.194-.387.194 0 .387 0 .581.194 3.482.967 5.996 2.708 7.931 4.255 1.16.967 1.934 1.935 2.514 2.708Zm-5.029-.773c-3.482-.387-7.544-.581-11.606.386-.387 0-.58.194-.967.387-.194-.193-.387-.387-.387-.58-.58-.967-.967-2.515-1.354-4.062 1.934-.967 4.062-1.741 5.609-2.128.387 0 .581-.193.967-.193 0 .193.194.387.194.58 1.741 2.515 4.642 4.256 7.544 5.61Zm-15.668-3.289c.193 1.354.58 2.708 1.354 3.675.193.387.58.581.773.968 0 0-.193 0-.193.193-.967.967-1.547 2.321-1.934 3.675 0 .194-.194.387-.194.774-1.74-.967-3.482-1.934-4.836-2.708a18.303 18.303 0 0 0-3.288-1.741c-.194 0-.387-.193-.58-.193.773-.194 1.547-.581 2.514-1.161 1.741-.967 4.062-2.321 6.384-3.482Zm3.095 5.416c.193.194.58.194.967.387 3.868.967 7.931 1.161 11.219.774h.387s-.194 0-.194.193c-2.708 1.161-5.609 2.902-7.35 5.223-.194.194-.194.387-.194.58-1.354-.193-3.094-.967-4.835-1.74-.58-.194-1.161-.581-1.741-.774.193-1.354.58-2.708 1.16-3.675.194-.387.387-.581.58-.968Zm18.569 1.354c.387-.58.387-1.16-.193-1.547h-.194c.194 0 .194-.193.387-.387.194-.387.194-.967 0-1.354-.773-.967-1.741-1.934-2.708-2.901-.193-.194-.58-.581-.967-.774-2.321-1.741-4.836-3.095-7.544-3.675-.193 0-.58-.194-.774-.194-.386 0-.773.194-.967.387-.193-.193-.58-.387-.967-.193-.387 0-.58.193-.967.193-1.548.387-3.482 1.161-5.803 2.321-.387.194-.58.387-.58.774-.387-.194-.58-.194-.968 0-1.16.58-2.32 1.161-3.482 1.934-.967.581-1.934.967-2.708 1.354-.967.387-1.74.774-2.32.967-.388.194-.775.581-.775.968s.194.967.774 1.16c.194 0 .387.194.387.194.967.387 2.128 1.16 3.095 1.741.387.193.774.58 1.354.773 1.16.581 2.321 1.354 3.675 2.128.194.194.58.194.968 0 0 .387.193.58.58.774.58.387 1.16.58 1.74.774 1.935.967 3.676 1.547 5.03 1.741.387 0 .774 0 .967-.194.194.194.581.387.967.387.387 0 .581 0 .774-.193 4.062-.968 7.157-2.902 8.898-4.449.58-.968 1.354-1.741 2.321-2.709-.193 0-.193 0 0 0Z" fill="#D6C19A"/><path d="M131.373 140.24v7.544h1.741c1.741 0 2.708-.773 2.708-3.095v-1.547c0-2.128-.774-2.902-2.321-2.902h-2.128Zm0 11.607v8.898h2.515c1.547 0 2.321-.774 2.321-2.902v-2.515c0-2.708-.774-3.481-2.901-3.481h-1.935Zm9.092-9.092v.967c0 2.902-.968 4.836-2.902 5.803 2.515.967 3.289 3.095 3.289 6.19v2.321c0 4.449-2.322 6.771-6.771 6.771h-7.157v-28.822h6.77c4.643 0 6.771 2.321 6.771 6.77Z" fill="#EBD8C8"/><path d="M131.373 140.24v7.544h1.741c1.741 0 2.708-.773 2.708-3.095v-1.547c0-2.128-.774-2.902-2.321-2.902h-2.128Zm0 11.607v8.898h2.515c1.547 0 2.321-.774 2.321-2.902v-2.515c0-2.708-.774-3.481-2.901-3.481h-1.935Zm9.092-9.092v.967c0 2.902-.968 4.836-2.902 5.803 2.515.967 3.289 3.095 3.289 6.19v2.321c0 4.449-2.322 6.771-6.771 6.771h-7.157v-28.822h6.77c4.643 0 6.771 2.321 6.771 6.77Z" stroke="#56453A" stroke-width=".326" stroke-miterlimit="10"/><path d="M152.069 135.984h-4.449v28.822h4.449v-28.822Z" fill="#EBD8C8"/><path d="M152.07 135.985h-4.449v28.822h4.449v-28.822Z" stroke="#56453A" stroke-width=".326" stroke-miterlimit="10"/><path d="M163.676 158.23c0 2.128.967 2.901 2.321 2.901s2.321-.773 2.321-2.901v-15.475c0-2.128-.967-2.901-2.321-2.901s-2.321.773-2.321 2.901v15.475Zm-4.449-15.281c0-4.643 2.514-7.157 6.77-7.157 4.255 0 6.77 2.708 6.77 7.157v14.894c0 4.643-2.515 7.157-6.77 7.157-4.256 0-6.77-2.708-6.77-7.157v-14.894Z" fill="#EBD8C8"/><path d="M163.676 158.23c0 2.128.967 2.901 2.321 2.901s2.321-.773 2.321-2.901v-15.475c0-2.128-.967-2.901-2.321-2.901s-2.321.773-2.321 2.901v15.475Zm-4.449-15.281c0-4.643 2.514-7.157 6.77-7.157 4.255 0 6.77 2.708 6.77 7.157v14.894c0 4.643-2.515 7.157-6.77 7.157-4.256 0-6.77-2.708-6.77-7.157v-14.894Z" stroke="#56453A" stroke-width=".326" stroke-miterlimit="10"/><path d="M179.924 135.984v28.822h4.449v-11.799h5.803v-4.256h-5.803v-8.511h7.544v-4.256h-11.993Z" fill="#EBD8C8"/><path d="M184.373 148.751h5.803v4.255h-5.803v11.8h-4.449v-28.822h11.993v4.255h-7.544v8.512Z" stroke="#56453A" stroke-width=".326" stroke-miterlimit="10"/><path d="M202.363 158.229c0 2.128.968 2.901 2.322 2.901s2.321-.773 2.321-2.901v-15.475c0-2.128-.967-2.901-2.321-2.901s-2.322.773-2.322 2.901v15.475Zm-4.642-15.281c0-4.643 2.515-7.157 6.77-7.157 4.449 0 6.77 2.708 6.77 7.157v14.894c0 4.643-2.514 7.157-6.77 7.157-4.449 0-6.77-2.708-6.77-7.157v-14.894Z" fill="#EBD8C8"/><path d="M202.363 158.229c0 2.128.968 2.901 2.322 2.901s2.321-.773 2.321-2.901v-15.475c0-2.128-.967-2.901-2.321-2.901s-2.322.773-2.322 2.901v15.475Zm-4.642-15.281c0-4.643 2.515-7.157 6.77-7.157 4.449 0 6.77 2.708 6.77 7.157v14.894c0 4.643-2.514 7.157-6.77 7.157-4.449 0-6.77-2.708-6.77-7.157v-14.894Z" stroke="#56453A" stroke-width=".326" stroke-miterlimit="10"/><path d="M223.06 140.239v8.898h1.741c1.741 0 2.708-.773 2.708-3.094v-2.902c0-2.128-.774-2.902-2.321-2.902h-2.128Zm4.836 24.567c-.194-.774-.387-1.161-.387-3.482v-4.449c0-2.708-.967-3.675-2.902-3.675h-1.547v11.606h-4.643v-28.822h6.771c4.642 0 6.77 2.128 6.77 6.577v2.321c0 2.901-.967 4.836-2.902 5.803 2.321.967 2.902 3.095 2.902 6.19v4.449c0 1.354 0 2.515.58 3.482h-4.642Z" fill="#EBD8C8"/><path d="M223.06 140.239v8.898h1.741c1.741 0 2.708-.773 2.708-3.094v-2.902c0-2.128-.774-2.902-2.321-2.902h-2.128Zm4.836 24.567c-.194-.774-.387-1.161-.387-3.482v-4.449c0-2.708-.967-3.675-2.902-3.675h-1.547v11.606h-4.643v-28.822h6.771c4.642 0 6.77 2.128 6.77 6.577v2.321c0 2.901-.967 4.836-2.902 5.803 2.321.967 2.902 3.095 2.902 6.19v4.449c0 1.354 0 2.515.58 3.482h-4.642Z" stroke="#56453A" stroke-width=".326" stroke-miterlimit="10"/><path d="m251.688 135.984-3.095 20.504-3.288-20.504h-6.19v28.822h3.869v-20.31l3.481 20.31h4.256l3.095-20.697v20.697h4.255v-28.822h-6.383Z" fill="#EBD8C8"/><path d="m248.592 156.488 3.095-20.504h6.383v28.822h-4.255v-20.697l-3.095 20.697h-4.256l-3.482-20.31v20.31h-3.868v-28.822h6.19l3.288 20.504Z" stroke="#56453A" stroke-width=".326" stroke-miterlimit="10"/><path d="M227.122 43.716S214.355 4.062 214.355 3.482c0-.58-11.412 40.234-11.412 40.234h24.179Zm-139.08 75.053a60.641 60.641 0 0 1-12.187 12.186c-4.642 3.482-9.478 6.383-14.7 8.898-5.61 2.708-11.22 4.256-16.83 4.642-5.61.387-10.832-.193-15.861-1.74a39.737 39.737 0 0 1-13.734-8.125c-4.062-3.675-7.544-8.511-10.252-14.314-2.708-5.803-4.256-11.413-4.45-17.022-.193-5.61.581-10.833 2.515-15.668 1.935-4.836 4.836-9.285 8.705-13.347 3.869-4.063 8.705-7.351 14.314-10.059 5.803-2.708 11.413-4.45 16.83-5.416a32.322 32.322 0 0 1 16.054 1.16l-5.416 17.41c-3.288-1.161-6.383-1.741-9.672-1.548-3.288.194-6.963 1.16-11.025 3.095a24.901 24.901 0 0 0-8.318 5.996c-2.128 2.515-3.869 5.223-4.836 8.125-.967 2.901-1.354 6.19-.967 9.478.387 3.288 1.16 6.77 2.708 10.059 1.547 3.482 3.675 6.19 5.996 8.511a23.577 23.577 0 0 0 7.931 5.223c2.902 1.16 5.997 1.547 9.285 1.547 3.288-.193 6.577-.967 10.059-2.708a30.964 30.964 0 0 0 8.317-5.416c2.128-1.935 3.676-3.675 4.836-5.223l-5.61-11.606-12.96 5.996-6.963-14.7 28.241-13.348 17.99 37.914Zm-6.19-47.779 16.249-4.448 2.321 8.51h.193c.774-3.675 2.322-6.77 4.256-9.09 1.934-2.322 4.642-3.87 8.318-4.837l2.901-.58c.967-.193 1.934-.193 2.708-.193l4.062 14.894c-1.16 0-2.514 0-3.675.194-1.161.193-2.321.386-3.675.773-3.095.774-5.416 1.935-6.964 3.289-1.547 1.354-2.708 2.901-3.288 4.836-.581 1.74-.774 3.868-.387 6.19.387 2.32.774 4.642 1.547 7.35l5.997 22.052-16.249 4.449L81.852 70.99Zm82.596 4.836c-.194-2.901-1.548-5.222-3.675-6.963-2.128-1.741-4.836-2.515-7.931-2.128a11.877 11.877 0 0 0-4.836 1.547c-1.354.774-2.515 1.741-3.288 2.708-.968.968-1.548 2.322-1.935 3.482-.387 1.354-.58 2.708-.387 4.062l22.052-2.708Zm17.216 22.052c-2.322 3.675-5.223 6.77-9.092 9.285-3.869 2.321-7.931 3.868-12.38 4.449-4.255.58-8.124.387-11.993-.581-3.868-.967-7.35-2.321-10.252-4.449-3.095-2.127-5.609-4.835-7.544-8.124-1.934-3.288-3.288-7.157-3.868-11.412-.581-4.256-.194-8.318.967-11.993 1.16-3.676 2.901-6.964 5.223-9.866 2.321-2.901 5.416-5.222 8.898-6.963 3.481-1.741 7.35-2.902 11.606-3.482 3.868-.58 7.544-.194 10.832.774 3.288.967 6.19 2.514 8.705 4.642 2.514 2.128 4.642 5.03 6.19 8.318 1.547 3.288 2.708 7.157 3.288 11.412l.58 5.223-38.88 4.836c1.16 3.095 2.901 5.416 5.223 7.157 2.514 1.548 5.416 2.128 8.704 1.741 2.708-.387 5.029-1.16 6.77-2.708 1.741-1.547 3.289-3.288 4.449-5.416l12.574 7.157Zm45.071-22.826c.193-2.901-.581-5.222-2.515-7.35-1.934-2.128-4.256-3.289-7.351-3.289-1.934 0-3.481.194-5.029.774-1.547.58-2.708 1.16-3.675 2.128-.967.967-1.934 1.934-2.515 3.095-.58 1.16-.967 2.514-1.16 3.869l22.245.773Zm13.347 24.76c-2.902 3.288-6.384 5.803-10.639 7.544-4.256 1.741-8.511 2.515-12.96 2.321-4.256-.193-8.125-.967-11.8-2.514-3.675-1.548-6.77-3.482-9.478-6.19-2.708-2.709-4.643-5.803-5.997-9.285-1.354-3.675-2.128-7.544-1.934-11.993.193-4.256 1.161-8.318 2.901-11.606a27.73 27.73 0 0 1 6.771-8.705c2.901-2.321 6.19-4.255 9.865-5.416a34.637 34.637 0 0 1 11.993-1.548c3.869.194 7.35.968 10.445 2.515 3.095 1.548 5.803 3.482 7.931 6.19 2.128 2.515 3.675 5.61 4.643 9.285.967 3.482 1.547 7.544 1.354 11.8l-.194 5.222-39.074-1.74c.581 3.288 1.935 5.802 4.062 7.93 2.128 1.934 4.836 3.095 8.125 3.288 2.708.194 5.222-.386 7.157-1.547 1.934-1.16 3.675-2.708 5.223-4.642l11.606 9.091Zm16.25-43.522 15.861 3.48-1.547 7.158h.193c.774-.967 1.741-1.74 2.902-2.515 1.16-.773 2.514-1.547 4.062-1.934 1.547-.58 3.095-.774 4.836-.967 1.741-.194 3.675 0 5.609.387 4.256.967 7.351 2.32 9.672 4.062 2.321 1.74 3.869 4.062 4.836 6.577.967 2.514 1.354 5.416 1.161 8.704-.194 3.095-.581 6.577-1.354 10.252l-6.384 29.402-16.442-3.482 5.61-26.113c.387-1.548.58-3.095.774-4.836.193-1.741.193-3.288 0-4.836-.194-1.547-.774-2.901-1.741-3.869-.967-1.16-2.515-1.934-4.643-2.32-2.128-.388-3.868-.388-5.416 0-1.547.58-2.708 1.353-3.675 2.514-.967 1.16-1.741 2.514-2.321 4.062-.581 1.547-.968 3.288-1.354 5.03l-5.803 26.5-16.442-3.482 11.606-53.775Zm72.521-13.178-27.887 80.205 15.895 5.526 27.887-80.204-15.895-5.527Zm17.813 108.734c-2.321 2.128-4.449 4.062-6.383 5.61-1.934 1.547-3.869 2.708-5.996 3.288-2.128.58-4.449.774-6.964.387-2.515-.387-5.61-1.354-9.285-3.289-3.869-1.934-7.35-4.255-10.445-7.35l8.124-11.413c1.741 2.128 3.869 3.869 6.383 5.03 1.741.773 3.095 1.354 4.449 1.547 1.354.194 2.321 0 3.482-.387.967-.387 2.128-.967 3.095-1.741.967-.773 2.128-1.741 3.288-2.708l2.515-2.321 2.515-59.965 16.442 7.931-3.095 38.687.193.193 26.694-27.274 15.668 7.544-50.68 46.231Z" fill="#fff"/><path d="M43.167 33.465c0 .774-.194 1.547-.58 1.934-.387.387-.968.58-1.548.58-.58 0-1.16-.193-1.547-.58-.387-.386-.58-1.16-.58-1.934V3.095c0-.773.193-1.547.58-1.934.193-.58.773-.773 1.547-.773.58 0 1.16.193 1.548.58.386.387.58 1.16.58 1.934V16.25H61.93V3.096c0-.774.194-1.548.58-1.935.58-.58.968-.773 1.741-.773.58 0 1.16.193 1.548.58.387.387.58 1.16.58 1.934v30.563c0 .774-.193 1.547-.58 1.934-.387.387-.967.58-1.548.58-.58 0-1.16-.193-1.547-.58-.387-.386-.58-1.16-.58-1.934V20.118H43.36v13.347h-.193ZM79.34 22.632c0 1.16.193 2.321.387 3.289.193 1.16.58 2.127 1.354 3.095a6.668 6.668 0 0 0 2.321 2.32 6.68 6.68 0 0 0 3.482.968 6.68 6.68 0 0 0 3.482-.967 6.667 6.667 0 0 0 2.321-2.322c.58-.967.967-1.934 1.354-3.094.194-1.161.387-2.322.387-3.289 0-1.16-.194-2.321-.387-3.288-.193-1.16-.58-2.128-1.354-3.095a6.667 6.667 0 0 0-2.321-2.321 6.68 6.68 0 0 0-3.482-.968 6.68 6.68 0 0 0-3.482.968 6.668 6.668 0 0 0-2.321 2.32c-.58.968-.967 1.935-1.354 3.096-.194 1.16-.387 2.128-.387 3.288Zm-4.449 0c0-1.74.193-3.482.774-5.03.58-1.547 1.354-3.094 2.321-4.255.967-1.16 2.321-2.32 3.675-2.901 1.548-.774 3.095-1.16 5.03-1.16 1.934 0 3.481.386 5.029 1.16a11.131 11.131 0 0 1 3.675 2.901c.967 1.16 1.741 2.708 2.321 4.256.58 1.547.774 3.288.774 5.03 0 1.74-.193 3.481-.774 5.029-.58 1.547-1.354 3.094-2.32 4.255-.968 1.16-2.322 2.321-3.676 2.902-1.548.773-3.095 1.16-5.03 1.16-1.934 0-3.481-.387-5.029-1.16a11.131 11.131 0 0 1-3.675-2.902c-.967-1.16-1.741-2.708-2.321-4.256-.58-1.547-.774-3.288-.774-5.029Zm47.778-3.482c0-1.934-.581-3.288-1.548-4.449-.967-1.16-2.321-1.547-4.256-1.547-1.74 0-3.288.58-4.255 1.547-.967 1.16-1.548 2.515-1.548 4.45v14.7c0 .774-.193 1.354-.58 1.741-.387.387-.967.58-1.547.58-.581 0-1.161-.193-1.548-.58-.387-.387-.58-.967-.58-1.74V11.605c0-.773.193-1.354.58-1.74.387-.387.967-.58 1.548-.58.58 0 1.16.193 1.547.58.387.386.58.967.58 1.74v.774h.194c.193-.387.58-.774.967-.967.387-.387.774-.774 1.354-.967.58-.387 1.161-.58 1.934-.774.774-.193 1.548-.387 2.515-.387 1.354 0 2.515.387 3.869.967s2.514 1.741 3.675 3.482c.967-1.354 2.128-2.514 3.288-3.288 1.354-.774 2.902-1.16 4.836-1.16.968 0 2.128.193 3.289.58 1.16.386 2.128.967 2.901 1.74.967.774 1.741 1.741 2.321 3.095.581 1.16.774 2.708.774 4.45v14.507c0 .774-.193 1.354-.58 1.74-.387.388-.967.581-1.548.581-.58 0-1.16-.193-1.547-.58-.387-.387-.58-.967-.58-1.741V19.15c0-1.934-.581-3.288-1.548-4.449-.967-1.16-2.321-1.547-4.255-1.547-1.741 0-3.289.58-4.256 1.547-.967 1.16-1.547 2.515-1.547 4.45v14.7c0 .774-.194 1.354-.581 1.741-.387.387-.967.58-1.547.58-.581 0-1.161-.193-1.548-.58-.387-.387-.58-.967-.58-1.74V19.15h-.193Zm47.392 1.934c0-.967-.194-1.934-.387-2.901-.194-.968-.774-1.741-1.354-2.515-.581-.774-1.354-1.354-2.128-1.934-.967-.58-1.934-.774-3.095-.774-1.354 0-2.515.193-3.482.58-.967.387-1.741 1.16-2.321 1.935-.58.773-.967 1.547-1.354 2.708-.194.967-.387 1.934-.387 2.901h14.508Zm-14.701 3.288c0 1.161.193 2.128.58 3.096.387.967.967 1.74 1.547 2.514.774.774 1.548 1.354 2.515 1.741.967.387 2.128.58 3.288.58 1.548 0 2.708-.193 3.676-.58.967-.387 1.741-.774 2.514-1.16l1.741-1.161c.387-.387.967-.58 1.354-.58.387 0 .774.193 1.161.58.387.387.58.774.58 1.354 0 .58-.387 1.16-.967 1.74-.58.581-1.354 1.161-2.515 1.742-.967.58-2.127.967-3.481 1.354-1.355.387-2.515.58-3.869.58-2.128 0-4.062-.387-5.61-1.16-1.547-.774-2.901-1.742-3.868-2.902-.968-1.16-1.741-2.708-2.128-4.256-.387-1.547-.774-3.288-.774-5.029 0-1.74.193-3.482.774-5.03.58-1.547 1.354-3.094 2.321-4.255.967-1.16 2.321-2.128 3.675-2.901 1.548-.774 3.095-1.161 5.03-1.161 1.74 0 3.481.387 4.835 1.16 1.354.774 2.708 1.742 3.676 2.902.967 1.16 1.741 2.515 2.321 4.062.58 1.548.774 3.095.774 4.643 0 .773-.194 1.354-.581 1.74-.387.387-.967.581-1.934.581H155.36v-.194Zm112.385-4.642c-.58 0-1.161-.193-1.548-.58-.387-.387-.58-.774-.58-1.547 0-.774.193-1.161.58-1.548.387-.387.968-.58 1.548-.58h7.35c1.161 0 1.935.193 2.515.774.58.58.774 1.354.774 2.901 0 2.128-.194 4.256-.774 6.19-.387 1.934-1.354 3.869-2.321 5.416a13.1 13.1 0 0 1-4.643 3.869c-1.934.967-4.449 1.354-7.544 1.354-2.514 0-4.835-.58-6.77-1.548-1.934-.967-3.675-2.32-4.836-4.062-1.354-1.74-2.321-3.482-2.901-5.803-.581-2.128-.967-4.449-.967-6.577 0-2.32.386-4.449.967-6.576.58-2.128 1.741-4.062 2.901-5.803 1.354-1.741 3.095-2.902 5.03-4.063C258.653.58 260.975 0 263.876 0c1.934 0 3.482.193 5.029.58 1.548.387 2.709.967 3.869 1.548 1.161.58 1.934 1.16 2.515 1.934.58.58.967 1.16.967 1.741 0 .58-.193.967-.58 1.548-.581.58-1.161.773-1.741.773-.581 0-1.161-.193-1.741-.58-.58-.387-1.161-.774-1.935-1.354-.773-.58-1.74-.967-2.708-1.354-1.16-.387-2.514-.58-4.062-.58-1.934 0-3.675.386-5.222 1.354-1.355.773-2.515 1.934-3.482 3.288-.967 1.354-1.548 2.902-1.935 4.449-.387 1.74-.58 3.288-.58 5.03 0 1.74.193 3.288.58 5.029.387 1.74 1.161 3.095 1.935 4.449.967 1.354 2.127 2.514 3.482 3.288 1.547.774 3.288 1.16 5.222 1.16a11.69 11.69 0 0 0 4.643-.966c1.354-.58 2.321-1.548 3.288-2.515.774-.967 1.548-2.128 1.934-3.482.387-1.16.581-2.515.581-3.675V19.73h-6.19Zm14.507-8.124c0-.773.193-1.354.58-1.74.387-.387.967-.58 1.547-.58.581 0 1.161.193 1.548.58.387.386.58.967.58 1.74v.967l.194.194c.967-1.16 2.127-2.128 3.481-2.708 1.354-.58 2.708-.774 4.063-.774.967 0 2.127.194 3.288.58 1.161.387 2.128.968 2.901 1.741.968.774 1.741 1.741 2.322 3.095.58 1.354.967 2.902.967 4.643V33.85c0 .774-.194 1.354-.58 1.741-.387.387-.968.58-1.548.58-.58 0-1.161-.193-1.547-.58-.387-.387-.581-.967-.581-1.74V19.536c0-1.16-.193-2.128-.58-2.901-.387-.774-.774-1.548-1.354-1.935-.58-.58-1.161-.967-1.934-1.16-.774-.194-1.548-.387-2.128-.387-.774 0-1.548.193-2.128.387-.774.193-1.354.58-1.934 1.16-.581.58-1.161 1.16-1.354 1.935-.387.773-.581 1.74-.581 2.901V33.85c0 .774-.193 1.354-.58 1.741-.387.387-.967.58-1.547.58-.581 0-1.161-.193-1.548-.58-.387-.387-.58-.967-.58-1.74V11.605h-.967Zm30.37 11.026c0 1.16.194 2.321.387 3.289.194 1.16.581 2.127 1.161 3.095a6.666 6.666 0 0 0 2.321 2.32 6.68 6.68 0 0 0 3.482.968 6.68 6.68 0 0 0 3.482-.967 6.666 6.666 0 0 0 2.321-2.322c.58-.967.967-1.934 1.354-3.094.194-1.161.387-2.322.387-3.289 0-1.16-.193-2.321-.387-3.288-.193-1.16-.58-2.128-1.354-3.095a6.666 6.666 0 0 0-2.321-2.321 6.68 6.68 0 0 0-3.482-.968 6.68 6.68 0 0 0-3.482.968 6.666 6.666 0 0 0-2.321 2.32c-.58.968-.967 1.935-1.161 3.096-.193 1.16-.387 2.128-.387 3.288Zm-4.449 0c0-1.74.194-3.482.774-5.03.581-1.547 1.354-3.094 2.321-4.255.968-1.16 2.322-2.32 3.676-2.901 1.547-.774 3.095-1.16 5.029-1.16 1.934 0 3.482.386 5.029 1.16a11.137 11.137 0 0 1 3.676 2.901c.967 1.16 1.74 2.708 2.321 4.256.58 1.547.774 3.288.774 5.03 0 1.74-.194 3.481-.774 5.029-.581 1.547-1.354 3.094-2.321 4.255-.968 1.16-2.322 2.321-3.676 2.902-1.547.773-3.095 1.16-5.029 1.16-1.934 0-3.482-.387-5.029-1.16a11.139 11.139 0 0 1-3.676-2.902c-.967-1.16-1.74-2.708-2.321-4.256-.58-1.547-.774-3.288-.774-5.029Zm44.103-3.482c0-1.934-.581-3.288-1.548-4.449-.967-1.16-2.321-1.547-4.256-1.547-1.74 0-3.288.58-4.255 1.547-.967 1.16-1.548 2.515-1.548 4.45v14.7c0 .774-.193 1.354-.58 1.741-.387.387-.967.58-1.547.58-.581 0-1.161-.193-1.548-.58-.387-.387-.58-.967-.58-1.74V11.605c0-.773.193-1.354.58-1.74.387-.387.967-.58 1.548-.58.58 0 1.16.193 1.547.58.387.386.58.967.58 1.74v.774h.194c.193-.387.58-.774.967-.967.387-.387.774-.774 1.354-.967.58-.387 1.161-.58 1.934-.774.774-.193 1.548-.387 2.515-.387 1.354 0 2.515.387 3.869.967s2.514 1.741 3.482 3.482c.967-1.354 2.127-2.514 3.288-3.288 1.354-.774 2.902-1.16 4.836-1.16.967 0 2.128.193 3.095.58 1.16.386 2.128.967 2.901 1.74.968.774 1.741 1.741 2.322 3.095.58 1.354.967 2.902.967 4.643V33.85c0 .774-.194 1.354-.581 1.741-.386.387-.967.58-1.547.58s-1.161-.193-1.548-.58c-.386-.387-.58-.967-.58-1.74V19.15c0-1.934-.58-3.288-1.547-4.449-.967-1.16-2.322-1.547-4.256-1.547-1.741 0-3.288.58-4.255 1.547-.968 1.16-1.548 2.515-1.548 4.45v14.7c0 .774-.193 1.354-.58 1.741-.387.387-.967.58-1.548.58-.58 0-1.16-.193-1.547-.58-.387-.387-.58-.967-.58-1.74V19.15Zm43.524 1.934c0-.967-.194-1.934-.387-2.901-.194-.968-.774-1.741-1.354-2.515-.581-.774-1.354-1.354-2.128-1.934-.967-.58-1.934-.774-3.095-.774-1.354 0-2.515.193-3.482.58-.967.387-1.741 1.16-2.321 1.935-.58.773-.967 1.547-1.354 2.708-.193.967-.387 1.934-.387 2.901H395.8Zm-14.701 3.288c0 1.161.193 2.128.58 3.096.387.967.774 1.74 1.547 2.514.774.774 1.548 1.354 2.515 1.741.967.387 2.128.58 3.288.58 1.548 0 2.709-.193 3.676-.58.967-.387 1.741-.774 2.514-1.16l1.741-1.161c.387-.387.967-.58 1.354-.58.387 0 .774.193 1.161.58.387.387.58.774.58 1.354 0 .58-.387 1.16-.967 1.74-.58.581-1.354 1.161-2.515 1.742-.967.58-2.127.967-3.481 1.354-1.354.387-2.515.58-3.869.58-2.128 0-4.062-.387-5.61-1.16-1.547-.774-2.901-1.742-3.868-2.902-.968-1.16-1.741-2.708-2.128-4.256-.387-1.547-.774-3.288-.774-5.029 0-1.74.194-3.482.774-5.03.58-1.547 1.354-3.094 2.321-4.255.967-1.16 2.321-2.128 3.675-2.901 1.548-.774 3.095-1.161 5.03-1.161 1.741 0 3.481.387 4.835 1.16 1.355.774 2.709 1.742 3.676 2.902.967 1.16 1.741 2.515 2.321 4.062.58 1.548.774 3.095.774 4.643 0 .773-.194 1.354-.581 1.74-.386.387-.967.581-1.934.581h-16.635v-.194Z" fill="#EBD8C8"/></svg>