<svg width="520" height="281" fill="none" xmlns="http://www.w3.org/2000/svg"><path d="m23.532 154.479 5.052-3.422 6.964 6.071 50.259-3.202-16.055 21.082-4.569 5.091 1.565 3.786-4.83 11.62-7.312-.521-15.533 12.402-.917 11.186s-6.79.608-6.79 0c0-.609-.83-14.838-.83-14.838l3.439-2.347s-3.7-3.984-4.308-4.965c-.61-.972-4.522-6.568-4.522-6.568l.087-3.479-8.095-10.442 8.095-17.881s-2.782-2.403-2.767-2.45c.032-.063 1.067-1.123 1.067-1.123Zm153.917 34.236-1.305 20.102 10.182 6.53 10.181-6.791 4.174 2.174-1.826 10.356 1.826 2.608v19.067h4.695l3.392-4.174 3.652.261 6.79 9.399h5.747l15.667 14.884h6.008l1.304-2.087v-3.391l7.834-2.087 12.79-1.043 33.682-4.695v9.92l8.095 4.696 14.363-4.174 9.138 6.529 23.754-12.529 8.094 1.304 3.652-2.608 5.747.782 8.095-20.884-3.913-6.656 16.971-22.062-14.884-65.271-44.125-49.863-21.928-2.087-7.573 5.225-2.348-.783s-1.304-2.347 0-3.13c1.305-.782 12.269-14.363 12.269-14.363l-4.174-8.355-43.342 9.92-4.316 8.095-10.047.26-1.305 6.008 3.652 5.225.522 7.051-4.174 3.392-69.183 65.791-7.833 17.454Z" fill="#A37A58"/><path d="m127.923 207.252 4.348-2.609-4.348-10.442 2.174-2.087 6.529 4.348s6.095-.522 6.095-1.044c0-.521-3.13-15.667-3.13-16.189 0-.522 87.72 11.66 87.72 11.66l1.913 16.363 8.529 3.478s10.727-45.018 10.79-45.951c.063-.933 0-2.261 0-2.261l6.095-6.932 5.572 1.541 6.965-5.92-1.352-25.241-7.004-3.652-2.434-18.276h-2.609s-4.522-10.442-5.051-10.442c-.53 0-3.826 1.391-3.826 1.391l1.043 6.965-2.608 1.913-8.53-4.696-5.573 4.348-.695 10.616 2.608 1.913-5.92 6.268-5.573-1.913 6.616-22.45h2.261l3.478-14.275s-4.348-3.826-4.522-3.305c-.173.522-13.398 14.972-13.398 14.972l1.565 9.573s-3.304 3.652-3.478 3.13c-.174-.522-7.66-17.58-8.182-18.45-.521-.87-3.999-.347-3.999-.347l-3.479 4.877-13.224-13.802s-18.102-.047-19.146 0c-1.043.047-2.608 2.134-2.608 2.134l-3.653-2.158.522-4.284h5.225l2.261-3.826s-3.13-3.304-3.826-2.609c-.695.696-6.442 4.522-6.442 4.522l-.522 3.304-4.695 2.435-1.566-6.79-13.05-.87s-3.131 5.573-3.826 5.225c-.696-.348-7.834-2.087-7.834-2.087l-.87-10.79 7.138-3.13 3.652-12.53h1.913l5.573 17.407 8.877.522 5.399-8.356-2.434-23.319-12.182-5.573-5.572 4.878 1.391 2.608-1.739 3.826-7.138-.522-4 7.312-3.131-.87s-9.746 9.4-10.268 9.4c-.522 0-1.913 6.442-1.913 6.442l-18.276-4.174s-30.631 16.19-30.631 16.015c0-.173 4.877 31.849 4.877 31.849l-16.015 51.69-2.26 5.051 5.92 7.138-4.695 21.406 3.826 4.877s3.13-2.434 3.13-2.956c0-.522.695-10.964.87-12.181.173-1.218 7.137-8.703 7.137-9.225 0-.522-3.304-12.008-3.304-12.008s17.754 3.131 18.102 3.826c.348.696 1.565 14.276 1.565 14.276l3.305.522s6.094-6.268 6.442-6.79c.348-.522 26.979 21.406 26.979 21.406l7.312 14.094 4.814-.189Zm127.846 48.298v-12.79l14.363-4.695 4.964-10.703 18.276-2.609 12.008 9.399-20.363 24.544-19.193-3.13h-10.055v-.016ZM475.468.873c-.261 0-38.774 18.663-38.774 18.663l-.521 12.402 8.742.261.522 5.226-16.055 16.971-4.434-.26-1.826-5.487-6.53.917-9.794 13.573-1.565.26s-12.268-6.916-12.529-6.529c-.261.396-3.265 3.392-3.265 3.392l2.483 8.481-3.265 1.826-3.391-5.09-8.221 4.569.521 10.964-12.268 13.05-8.877-6.007 1.439-4.435-5.352-5.225s-29.896 4.435-30.283 4.308c-.388-.126-6.917 4.174-6.917 4.174l3.391.783c1.826-.261 10.181 7.573 10.181 7.573v6.79s-10.442 5.486-10.181 5.486c.261 0 5.091 4.434 5.091 4.434l6.664 15.668-5.874 4.434 7.707 41.248 23.233-2.609 2.608 7.834 9.921 3.391s13.833 39.421 14.624 39.943c.79.522 42.03 6.529 42.03 6.529l12.529 16.972h5.747l4.434-12.79 4.965.261 3.652 25.849h-6.791s-2.869 4.964-1.826 5.225c1.044.261 4.965 4.695 4.965 4.695l-1.566 10.443s1.566 1.826 2.348 1.565c.783-.261 14.363-8.095 14.363-8.095l6.791-42.552-10.964-32.631v-2.608l-5.486-6.269.782-3.13-3.13-3.13s-8.877.537-8.877 1.968v6.387l-2.87 1.304-3.13-3.13-8.095 2.609-1.826-2.348 7.834-14.363-4.435-23.233 20.363-20.623-.782-4.696 5.486-3.913 6.007 5.226 3.913-2.087-6.268-29.24 3.652-2.87.261-4.434 2.869-1.052s1.304 6.798 2.087 6.53c.783-.27 4.695-.783 4.695-.783l-2.11-9.675 2.087-1.044-2.609-5.312 2.609-2 6.007 6.79-3.652 8.095 7.834 19.841-3.391 3.913.522 4.964 3.652 1.131 2.086 12.442 25.849 18.015 4.435-7.051-5.225-9.66 1.565-2.869-5.747-7.051.783-5.486 2.347-1.826-.26-3.131-6.791-2.087-6.007-7.572.261-4.57-2.743-1.177-2.348 2.743-2.221.134s-5.352-12.268-5.747-12.529c-.395-.26 0-2.348 0-2.348l3.13-3.652-2.482-1.7 5.747-12.402 6.916-2.087-.656-2.087h-3.913l-4.829-25.714 5.873-5.613s-1.826-4.173-2.482-3.652c-.656.522-15.272 3.004-15.272 3.004l-1.305-4.434 3.004-1.7c.024-.016-5.588-25.208-5.849-25.208Z" fill="#506A40"/><path d="m464.236 172.661-1.439 1.699 3.525 4.964v1.7h-1.762l.845 4.047 2.87 1.439v4.308l12.529 12.142v8.094l4.569 1.178s3.265 11.881 3.786 11.747c.522-.135 4.435 2.221 4.435 2.221l-1.178-4.174-.134-2.087 5.747-.521-1.439-3.004-4.174-.261-4.695-4.047-.656-9.66 1.565-1.565s4.174 2.087 4.174 1.565c0-.522.26-3.526.134-3.004-.134.522-16.189-9.264-16.189-9.264l-4.047-5.874.782-2.482-9.248-9.161Z" fill="#506A40"/><path d="M36.9 199.07s-4-6.442-4.349-7.312c-.347-.869 7.139-21.406 7.139-21.406l-7.146-10.79 7.146-14.798-7.146-4-5.905-29.414 2.087-2.434 4.434.695 5.66-13.572h3.478l1.913-3.826-3.652-7.312 10.095-7.486 20.536 4.174v11.486l21.754-.348 6.095-8.008 11.486-.87 11.659 22.624h15.668l4.521 10.79 8.356.522 3.13-3.826 33.066 10.095 2.782 23.319h14.972l1.739 27.501 6.443.347s1.391-6.402 2.086-6.505c.696-.111 3.131 0 3.131 0l1.913-9.684s34.639 6.095 34.813 5.573c.173-.521 8.007 18.102 8.007 18.102s18.798 1.913 19.146 2.435c.347.522-8.356 21.058-8.356 21.058l1.739 12.356-39.856-6.964-.869-11.486-9.399-3.826s-23.319 1.217-23.667.696c-.348-.522-9.399-12.704-9.399-12.704l-14.45 10.617-35.509-11.486-5.399 2.261v8.181l1.566 1.044.347 1.739-3.13 1.565-5.399-2.957-6.268 3.826 2.782 9.921-4.695 2.261-29.936-19.494 1.043-14.797-17.058-4.174-4.696 5.747-2.087-1.044-2.782-8.766h-6.616l-3.652-4.459-7.486.87 1.391 5.747-8.695 11.667-.174 13.747-4.348 2.782Z" fill="#9A2F26"/><path d="m25.59 153.127 11.833 15.597s-2.348 9.723-2.348 9.983c0 .261-13.225 3.392-13.398 3.131-.174-.261-5.921-6.182-6.095-6.443-.174-.261-.609-19.817-.609-19.817l3.565-1.597 2.174 2.348 4.877-3.202Zm-13.409-1.312c.348 0 2.348.174 2.348 0s.435-1.913.435-1.913l-3.652-5.486.87-7.312-8.095-4.086-1.652 2.434L4 137.191l-.348 3.218L0 141.547l.522 2.869 4.964.696 6.695 6.703Zm12.973 38.03c-.087.261-2.609 5.225-2.609 5.225l2.609 2.435h2.087s1.478-1.13 1.565-1.391c.087-.261 1.739-4.348 1.739-4.348l-1.826-1.913h-3.565v-.008Z" fill="#506A40"/><path d="M73.404 122.275a2.087 2.087 0 1 0-.001-4.175 2.087 2.087 0 0 0 0 4.175Zm99.142 47.303a2.087 2.087 0 1 0 0-4.174 2.087 2.087 0 0 0 0 4.174Zm183.717 39.128a2.086 2.086 0 1 0 0-4.172 2.086 2.086 0 0 0 0 4.172Zm-254.727-26.853a2.086 2.086 0 1 0 0-4.172 2.086 2.086 0 0 0 0 4.172Zm186.737-1.865a2.087 2.087 0 1 0 0-4.174 2.087 2.087 0 0 0 0 4.174Zm-173.219-34.086a2.087 2.087 0 1 0 .001-4.173 2.087 2.087 0 0 0-.001 4.173Z" stroke="#fff" stroke-width=".631" stroke-miterlimit="10"/><path d="M265.815 265.558V250.42l14.758-3.66 5.613-13.225 21.706-3.304 9.051 6.956-6.086 19.32-6.696-2.957-7.754 7.138-.174 3.478 3.834 5.747-4.008 6.609-16.537-4.174-4-8.182-9.707 1.392Z" fill="#9A2F26"/></svg>