<svg width="45" height="79" viewBox="0 0 45 79" fill="none" xmlns="http://www.w3.org/2000/svg">
<path d="M2.30266 0.469396V30.654H1.26895L2.09591 29.9303C2.09591 29.9303 2.61277 30.654 3.64649 31.6877C6.5409 35.0989 13.1567 42.335 18.9455 46.6766C24.0107 50.5013 28.8692 53.189 32.4872 54.9463C34.3479 55.7733 35.7951 56.4969 36.8288 56.9104C37.8625 57.3239 38.4828 57.5306 38.4828 57.5306L44.0649 59.3913L38.1727 59.598C38.1727 59.598 37.5524 59.598 36.5187 59.598C32.4872 59.598 22.2534 59.3913 14.5005 56.9104C8.50496 55.0497 0.855435 50.5013 0.855435 50.5013L1.37229 49.571H2.40601V78.8252H0.235229V47.917L1.78581 48.8474C1.78581 48.8474 3.64649 49.9845 6.23078 51.2249C8.81507 52.5688 12.123 54.1193 15.0174 54.9463C22.3568 57.2205 32.5906 57.5306 36.4154 57.5306C37.4491 57.5306 38.0693 57.5306 38.0693 57.5306V58.5643L37.7592 59.598C37.6558 59.598 27.9389 56.2902 17.6017 48.4339C9.53868 42.335 0.441954 31.2742 0.441954 31.2742L0.235229 30.9641V0.366025H2.30266V0.469396Z" fill="#3C6743"/>
</svg>
