<svg width="300" height="50" fill="none" xmlns="http://www.w3.org/2000/svg"><path d="M.499 3.347h247.455V2.205l-.764.951s.764.571 1.911 1.713c3.63 3.235 11.846 10.467 16.622 16.747 4.204 5.519 7.261 11.038 9.171 15.034.956 2.093 1.72 3.616 2.102 4.758l.573 1.712 2.102 6.09.191-6.47v-1.903c0-4.377-.191-15.796-2.866-24.36-2.102-6.66-7.069-15.034-7.069-15.034l-.956.571v1.142H300V.873h-32.939l.955 1.712s1.146 2.094 2.675 4.948c1.528 2.855 3.248 6.47 4.203 9.706 2.484 8.183 2.866 19.41 2.866 23.788v1.713h1.147l1.146-.38s-3.63-10.848-12.228-22.267c-6.687-8.754-18.915-18.84-18.915-18.84l-.383-.19H.5L.499 3.347Z" fill="#AB8E77"/></svg>