<svg width="525" height="49" viewBox="0 0 525 49" fill="none" xmlns="http://www.w3.org/2000/svg">
<path d="M524.618 3.07358H123.192V1.93174L123.956 2.88327C123.956 2.88327 123.192 3.45418 122.045 4.59601C118.415 7.8312 110.199 15.0628 105.423 21.3429C101.219 26.8617 98.1624 32.3806 96.2517 36.377C95.2964 38.4703 94.5322 39.9928 94.15 41.1346C93.7679 42.2764 93.5768 42.8474 93.5768 42.8474L91.4751 48.9371L91.2841 42.4667C91.2841 42.4667 91.2841 41.7055 91.2841 40.5637C91.2841 36.1867 91.4751 24.7684 94.15 16.2046C96.2517 9.54395 101.219 1.17052 101.219 1.17052L102.175 1.74144V2.88327H0.910645V0.599609H104.085L103.13 2.31236C103.13 2.31236 101.984 4.40571 100.455 7.26029C98.9266 10.1149 97.2071 13.7307 96.2517 16.9659C93.7679 25.149 93.3858 36.377 93.3858 40.754C93.3858 41.8958 93.3858 42.4667 93.3858 42.4667H92.2394L91.093 42.0861C91.093 42.0861 94.7232 31.2387 103.321 19.8204C110.008 11.0664 122.236 0.980218 122.236 0.980218L122.619 0.789912H524.427V3.07358H524.618Z" fill="#AB8E77"/>
</svg>
