<svg width="25" height="50" viewBox="0 0 25 50" fill="none" xmlns="http://www.w3.org/2000/svg">
<path d="M11.41 49.8726H9.41V51.8726H11.41V49.8726ZM24.78 49.8726V51.8726H26.78V49.8726H24.78ZM24.78 0.522556H26.78V-1.47744H24.78V0.522556ZM14.91 0.522556V-1.47744H14.6325L14.3655 -1.4019L14.91 0.522556ZM0.56 4.58256L0.0155189 2.6581L-1.84482 3.18444L-1.3818 5.06153L0.56 4.58256ZM3.15 15.0826L1.2082 15.5615L1.68295 17.4862L3.61176 17.0285L3.15 15.0826ZM11.41 13.1226H13.41V10.5924L10.9482 11.1766L11.41 13.1226ZM11.41 51.8726H24.78V47.8726H11.41V51.8726ZM26.78 49.8726V0.522556H22.78V49.8726H26.78ZM24.78 -1.47744H14.91V2.52256H24.78V-1.47744ZM14.3655 -1.4019L0.0155189 2.6581L1.10448 6.50702L15.4545 2.44701L14.3655 -1.4019ZM-1.3818 5.06153L1.2082 15.5615L5.0918 14.6036L2.5018 4.10358L-1.3818 5.06153ZM3.61176 17.0285L11.8718 15.0685L10.9482 11.1766L2.68825 13.1366L3.61176 17.0285ZM9.41 13.1226V49.8726H13.41V13.1226H9.41Z" fill="#AB8E77"/>
</svg>
