<svg width="40" height="50" viewBox="0 0 40 50" fill="none" xmlns="http://www.w3.org/2000/svg">
<path d="M0.31 49.8726H-1.69V51.8726H0.31V49.8726ZM39.09 49.8726V51.8726H41.09V49.8726H39.09ZM39.09 38.8126H41.09V36.8126H39.09V38.8126ZM18.86 38.8126L17.7131 37.1741L12.5153 40.8126H18.86V38.8126ZM27.26 32.9326L28.4069 34.571L28.4184 34.563L28.4298 34.5547L27.26 32.9326ZM0.59 10.5326L-0.992211 9.3092L-2.17253 10.8357L-0.689214 12.07L0.59 10.5326ZM9.76 18.1626L8.48079 19.7L9.98215 20.9492L11.2666 19.4779L9.76 18.1626ZM18.65 25.6526L19.8636 27.2423L19.8741 27.2342L19.8846 27.226L18.65 25.6526ZM0.31 39.6526L-0.903548 38.0628L-1.69 38.6632V39.6526H0.31ZM0.31 51.8726H39.09V47.8726H0.31V51.8726ZM41.09 49.8726V38.8126H37.09V49.8726H41.09ZM39.09 36.8126H18.86V40.8126H39.09V36.8126ZM20.0069 40.451L28.4069 34.571L26.1131 31.2941L17.7131 37.1741L20.0069 40.451ZM28.4298 34.5547C32.0865 31.9177 35.1513 29.4334 37.2784 26.5039C39.4645 23.493 40.6 20.1018 40.6 15.7826H36.6C36.6 19.3033 35.7055 21.8621 34.0416 24.1537C32.3187 26.5267 29.7135 28.6974 26.0902 31.3104L28.4298 34.5547ZM40.6 15.7826V15.6426H36.6V15.7826H40.6ZM40.6 15.6426C40.6 10.4556 38.5204 5.99627 34.8947 2.85994C31.2915 -0.256878 26.2843 -1.96744 20.54 -1.96744V2.03256C25.5057 2.03256 29.5285 3.50699 32.2778 5.88517C35.0046 8.24385 36.6 11.5895 36.6 15.6426H40.6ZM20.54 -1.96744C15.5358 -1.96744 11.5094 -0.980391 8.00764 0.99419C4.53175 2.95421 1.71449 5.80853 -0.992211 9.3092L2.17221 11.7559C4.71551 8.46658 7.14825 6.07091 9.97236 4.47842C12.7706 2.90051 16.0942 2.03256 20.54 2.03256V-1.96744ZM-0.689214 12.07L8.48079 19.7L11.0392 16.6252L1.86921 8.99515L-0.689214 12.07ZM11.2666 19.4779C15.1186 15.0656 17.1765 13.7926 19.49 13.7926V9.79256C15.2235 9.79256 12.1014 12.4395 8.25337 16.8472L11.2666 19.4779ZM19.49 13.7926C20.8062 13.7926 21.6683 14.16 22.1771 14.6179C22.6601 15.0527 23.02 15.7415 23.02 16.8326H27.02C27.02 14.7736 26.2949 12.9424 24.8529 11.6447C23.4367 10.3701 21.5338 9.79256 19.49 9.79256V13.7926ZM23.02 16.8326C23.02 18.723 21.9825 20.4957 17.4154 24.0791L19.8846 27.226C24.4175 23.6694 27.02 20.8221 27.02 16.8326H23.02ZM17.4365 24.0628L-0.903548 38.0628L1.52355 41.2423L19.8636 27.2423L17.4365 24.0628ZM-1.69 39.6526V49.8726H2.31V39.6526H-1.69Z" fill="#AB8E77"/>
</svg>
