<svg width="41" height="51" viewBox="0 0 41 51" fill="none" xmlns="http://www.w3.org/2000/svg">
<path d="M27.35 20.6126L26.0439 19.0979L23.0178 21.7073L26.9203 22.5658L27.35 20.6126ZM39.04 10.5326L40.3461 12.0472L41.04 11.4489V10.5326H39.04ZM39.04 0.872555H41.04V-1.12745H39.04V0.872555ZM3.69 0.872555V-1.12745H1.69V0.872555H3.69ZM3.69 11.8626H1.69V13.8626H3.69V11.8626ZM22.38 11.8626L23.723 13.3445L27.5652 9.86256H22.38V11.8626ZM11.18 22.0126L9.83696 20.5306L8.93268 21.3501L9.24785 22.5291L11.18 22.0126ZM13.07 29.0826L11.1378 29.5991L11.5344 31.0826H13.07V29.0826ZM8.87 33.6326L10.2981 32.2324L8.88983 30.7959L7.46157 32.2126L8.87 33.6326ZM0.26 42.1726L-1.14843 40.7526L-2.51604 42.1091L-1.21186 43.5267L0.26 42.1726ZM21.12 52.8526C26.9569 52.8526 32.1673 51.1493 35.9547 47.9536C39.7727 44.7322 42.02 40.0918 42.02 34.5426H38.02C38.02 38.9333 36.2773 42.4479 33.3753 44.8965C30.4427 47.3708 26.2031 48.8526 21.12 48.8526V52.8526ZM42.02 34.5426V34.4026H38.02V34.5426H42.02ZM42.02 34.4026C42.02 29.6999 40.4097 26.1033 37.6964 23.4936C35.041 20.9395 31.4799 19.4733 27.7797 18.6593L26.9203 22.5658C30.2201 23.2918 32.994 24.5206 34.9236 26.3765C36.7953 28.1768 38.02 30.7052 38.02 34.4026H42.02ZM28.6561 22.1272L40.3461 12.0472L37.7339 9.01789L26.0439 19.0979L28.6561 22.1272ZM41.04 10.5326V0.872555H37.04V10.5326H41.04ZM39.04 -1.12745H3.69V2.87255H39.04V-1.12745ZM1.69 0.872555V11.8626H5.69V0.872555H1.69ZM3.69 13.8626H22.38V9.86256H3.69V13.8626ZM21.037 10.3806L9.83696 20.5306L12.523 23.4945L23.723 13.3445L21.037 10.3806ZM9.24785 22.5291L11.1378 29.5991L15.0022 28.566L13.1122 21.496L9.24785 22.5291ZM13.07 31.0826H18.81V27.0826H13.07V31.0826ZM18.81 31.0826C21.2037 31.0826 22.7639 31.527 23.661 32.1037C24.4515 32.6119 24.79 33.2463 24.79 34.1226H28.79C28.79 31.8488 27.7285 29.9633 25.824 28.7389C24.0261 27.5832 21.5963 27.0826 18.81 27.0826V31.0826ZM24.79 34.1226V34.2626H28.79V34.1226H24.79ZM24.79 34.2626C24.79 35.1917 24.4467 35.8499 23.8647 36.3183C23.2379 36.8228 22.1663 37.2326 20.56 37.2326V41.2326C22.8037 41.2326 24.8471 40.6623 26.3728 39.4343C27.9433 38.1702 28.79 36.3434 28.79 34.2626H24.79ZM20.56 37.2326C16.7186 37.2326 13.5618 35.5613 10.2981 32.2324L7.44185 35.0327C11.1782 38.8438 15.3014 41.2326 20.56 41.2326V37.2326ZM7.46157 32.2126L-1.14843 40.7526L1.66843 43.5925L10.2784 35.0525L7.46157 32.2126ZM-1.21186 43.5267C3.99271 49.1838 11.1046 52.8526 21.12 52.8526V48.8526C12.2354 48.8526 6.18729 45.6613 1.73186 40.8184L-1.21186 43.5267Z" fill="#AB8E77"/>
</svg>
