<svg width="66" height="33" fill="none" xmlns="http://www.w3.org/2000/svg"><path d="M15.016 32.616c8.8 0 14.3-7.304 14.3-16.016v-.088C29.316 7.8 23.86.584 15.104.584S.804 7.888.804 16.6v.088c0 8.712 5.456 15.928 14.212 15.928Zm.088-7.568c-3.432 0-5.72-3.52-5.72-8.448v-.088c0-4.928 2.244-8.404 5.632-8.404 3.432 0 5.72 3.564 5.72 8.492v.088c0 4.884-2.2 8.36-5.632 8.36ZM40.381 16.6c4.18 0 6.996-3.696 6.996-7.876v-.088c0-4.136-2.772-7.788-6.908-7.788-4.224 0-7.04 3.696-7.04 7.876v.088c0 4.136 2.772 7.788 6.952 7.788Zm0-13.288c2.244 0 4.092 2.332 4.092 5.412v.088c0 2.948-1.628 5.324-4.004 5.324-2.288 0-4.092-2.332-4.092-5.412v-.088c0-2.904 1.584-5.324 4.004-5.324Zm8.096 12.628L36.597 32h3.168l10.692-14.652L62.337 1.2h-3.124L48.477 15.94Zm10.032 16.412c4.224 0 6.996-3.696 6.996-7.876v-.088c0-4.136-2.728-7.788-6.908-7.788S51.6 20.296 51.6 24.476v.088c0 4.136 2.772 7.788 6.908 7.788Zm.088-2.464c-2.288 0-4.092-2.332-4.092-5.412v-.088c0-2.904 1.628-5.324 4.004-5.324 2.288 0 4.092 2.332 4.092 5.412v.088c0 2.948-1.584 5.324-4.004 5.324Z" fill="#3D6637"/></svg>