<svg width="100" height="94" viewBox="0 0 100 94" fill="none" xmlns="http://www.w3.org/2000/svg">
<path d="M53.3236 12.5341C59.89 17.889 72.3796 30.2141 54.6847 57.8558C53.8172 59.2169 53.1291 58.9776 52.9347 57.3772C51.6184 46.847 42.0006 41.9558 38.4557 34.5817C36.1821 29.8551 35.2248 22.4361 40.5796 16.1688C41.6267 14.9423 43.3019 15.2863 44.5135 16.3483C46.9666 18.5022 50.691 24.0515 51.8727 31.994C52.112 33.5945 52.4411 33.5646 52.5458 31.9641C53.5479 17.0364 44.7827 7.70282 41.9408 5.36943C25.1284 -8.48135 -1.42142 6.04252 0.0593865 33.1159C1.48036 59.0973 32.6222 83.209 44.8426 91.7049C47.4901 93.5447 51.9175 93.5447 54.565 91.7049C66.7854 83.209 97.9272 59.0973 99.3482 33.1159C100.964 3.61938 66.9649 -11.084 52.7402 9.79689C51.6333 11.4422 53.1441 12.3846 53.3236 12.5341Z" fill="#466B42"/>
<path d="M54.685 57.8708C53.8175 59.232 53.1294 58.9926 52.935 57.3922C51.6187 46.862 42.001 41.9709 38.456 34.5967C37.0649 31.695 36.1675 27.791 36.9154 23.7524C35.7786 28.7333 36.6013 33.3702 38.456 37.1994C42.0159 44.5884 50.7661 49.3151 51.2597 61.3859C51.3196 63.0013 52.576 63.1359 53.4436 61.7748C57.4821 55.4477 59.9501 49.9433 61.2664 45.112C59.8155 48.9411 57.6766 53.1891 54.685 57.8708Z" fill="#436A41"/>
</svg>
