<svg width="364" height="152" viewBox="0 0 364 152" fill="none" xmlns="http://www.w3.org/2000/svg">
<path d="M244.106 137.86C244.633 137.332 245.337 136.453 246.216 135.75C247.975 134.343 250.436 132.76 253.778 131.881C253.953 131.881 254.129 131.881 254.305 131.881C254.305 132.057 254.305 132.057 254.129 132.233C252.723 134.167 250.261 135.574 247.975 136.629C246.568 136.981 245.161 137.508 244.106 137.86ZM244.633 138.739C245.689 138.563 247.447 138.212 249.206 138.212C252.019 138.036 255.536 138.036 258.526 138.915C258.701 138.915 258.877 139.091 259.053 139.091C258.877 139.091 258.701 139.267 258.526 139.267C255.009 140.146 250.964 139.97 247.975 139.442C246.744 139.091 245.513 138.915 244.633 138.739ZM243.93 139.618C244.809 139.97 246.216 140.322 247.447 141.025C249.909 142.08 252.547 143.663 253.778 145.773C253.778 145.949 253.953 145.949 253.953 146.125C253.778 146.125 253.602 146.125 253.426 145.949C250.261 145.07 247.975 143.487 246.216 142.08C245.337 141.201 244.458 140.322 243.93 139.618ZM248.678 140.322C251.843 140.673 255.536 140.849 259.229 139.97C259.581 139.97 259.757 139.794 260.108 139.618C260.284 139.794 260.46 139.97 260.46 140.146C261.163 141.025 261.515 142.432 261.691 143.839C259.932 144.718 257.998 145.421 256.591 145.773C256.24 145.773 256.064 145.949 255.712 145.949C255.712 145.773 255.536 145.597 255.536 145.421C253.953 143.135 251.14 141.553 248.678 140.322ZM262.922 143.135C262.746 141.904 262.394 140.673 261.691 139.794C261.515 139.442 261.163 139.267 260.987 138.915C260.987 138.915 261.163 138.915 261.163 138.739C262.043 137.86 262.57 136.629 262.922 135.398C262.922 135.222 263.098 135.046 263.098 134.695C264.68 135.574 266.263 136.453 267.494 137.156C268.549 137.86 269.604 138.387 270.483 138.739C270.659 138.739 270.835 138.915 271.011 138.915C270.308 139.091 269.604 139.442 268.725 139.97C266.966 141.025 265.032 142.256 262.922 143.135ZM259.932 138.387C259.757 138.212 259.405 138.212 259.053 138.036C255.536 137.156 251.843 136.981 248.854 137.332C248.678 137.332 248.678 137.332 248.502 137.332C248.678 137.332 248.678 137.332 248.678 137.156C251.14 136.101 253.778 134.519 255.36 132.408C255.536 132.233 255.536 132.057 255.536 131.881C256.767 132.057 258.35 132.76 259.932 133.464C260.46 133.639 260.987 133.991 261.515 134.167C261.339 135.398 260.987 136.629 260.46 137.508C260.46 137.86 260.284 138.036 259.932 138.387ZM243.227 137.156C242.875 137.684 242.875 138.212 243.402 138.563C243.402 138.563 243.402 138.563 243.578 138.563C243.402 138.563 243.402 138.739 243.227 138.915C242.875 139.267 243.051 139.794 243.227 140.146C243.93 141.025 244.809 141.904 245.689 142.784C245.864 142.959 246.216 143.311 246.568 143.487C248.678 145.07 250.964 146.301 253.426 146.828C253.602 146.828 253.953 147.004 254.129 147.004C254.481 147.004 254.833 146.828 255.009 146.652C255.184 146.828 255.536 147.004 255.888 146.828C256.24 146.828 256.415 146.652 256.767 146.652C258.174 146.301 259.932 145.597 262.043 144.542C262.394 144.366 262.57 144.19 262.57 143.839C262.922 144.015 263.098 144.015 263.449 143.839C264.504 143.311 265.56 142.784 266.615 142.08C267.494 141.553 268.373 141.201 269.077 140.849C269.956 140.498 270.659 140.146 271.187 139.97C271.538 139.794 271.89 139.442 271.89 139.091C271.89 138.739 271.714 138.212 271.187 138.036C271.011 138.036 270.835 137.86 270.835 137.86C269.956 137.508 268.901 136.805 268.021 136.277C267.67 136.101 267.318 135.75 266.791 135.574C265.735 135.046 264.68 134.343 263.449 133.639C263.274 133.464 262.922 133.464 262.57 133.639C262.57 133.288 262.218 133.112 262.043 132.936C261.515 132.584 260.987 132.408 260.46 132.233C258.701 131.353 257.119 130.826 255.888 130.65C255.536 130.65 255.184 130.65 255.009 130.826C254.833 130.65 254.481 130.474 254.129 130.474C253.778 130.474 253.602 130.474 253.426 130.65C249.733 131.529 246.919 133.288 245.337 134.695C244.633 135.574 243.93 136.277 243.227 137.156Z" fill="#D6C19A"/>
<path d="M104.482 140.146C103.954 140.673 103.251 141.552 102.372 142.256C100.613 143.663 98.1514 145.245 94.8103 146.125C94.6344 146.125 94.4586 146.125 94.2827 146.125C94.2827 145.949 94.2827 145.949 94.4586 145.773C95.8654 143.839 98.3273 142.432 100.613 141.377C101.844 140.849 103.427 140.497 104.482 140.146ZM103.779 139.266C102.724 139.442 100.965 139.794 99.2065 139.794C96.3929 139.97 92.8759 139.97 89.8865 139.091C89.7106 139.091 89.5348 138.915 89.3589 138.915C89.5348 138.915 89.7106 138.739 89.8865 138.739C93.4035 137.86 97.448 138.035 100.437 138.563C101.844 138.739 102.899 139.091 103.779 139.266ZM104.482 138.387C103.603 138.035 102.196 137.684 100.965 136.98C98.5031 135.925 95.8654 134.343 94.6344 132.232C94.6344 132.057 94.4586 132.057 94.4586 131.881C94.6344 131.881 94.8103 131.881 94.9861 132.057C98.1514 132.936 100.437 134.518 102.196 135.925C103.251 136.805 103.954 137.684 104.482 138.387ZM99.9099 137.684C96.7446 137.332 93.0518 137.156 89.3589 138.035C89.0072 138.035 88.8314 138.211 88.4797 138.387C88.3038 138.211 88.128 138.035 88.128 137.86C87.6004 136.98 87.2487 135.574 86.897 134.167C88.6555 133.288 90.5899 132.584 91.9967 132.232C92.3484 132.232 92.5242 132.057 92.8759 132.057C92.8759 132.232 93.0518 132.408 93.0518 132.584C94.6344 134.87 97.2722 136.453 99.9099 137.684ZM85.6661 134.694C85.8419 135.925 86.1936 137.156 86.897 138.035C87.0729 138.387 87.4246 138.563 87.6004 138.915C87.6004 138.915 87.4246 138.915 87.4246 139.091C86.5453 139.97 86.0178 141.201 85.6661 142.432C85.6661 142.608 85.4902 142.783 85.4902 143.135C83.9076 142.256 82.3249 141.377 81.094 140.673C80.0389 139.97 78.9838 139.442 78.1045 139.091C77.9287 139.091 77.7528 138.915 77.577 138.915C78.2804 138.739 78.9838 138.387 79.863 137.86C81.4457 136.98 83.5559 135.749 85.6661 134.694ZM88.4797 139.618C88.6555 139.794 89.0072 139.794 89.3589 139.97C92.8759 140.849 96.5688 141.025 99.5582 140.673C99.7341 140.673 99.7341 140.673 99.9099 140.673C99.9099 140.673 99.7341 140.673 99.7341 140.849C97.2722 141.904 94.6344 143.487 93.0518 145.597C92.8759 145.773 92.8759 145.949 92.8759 146.125C91.645 145.949 90.0623 145.245 88.4797 144.542C87.9521 144.366 87.4246 144.014 86.897 143.839C87.0729 142.608 87.4246 141.377 87.9521 140.497C88.128 140.146 88.3038 139.97 88.4797 139.618ZM105.361 140.849C105.713 140.322 105.713 139.794 105.185 139.442C105.185 139.442 105.185 139.442 105.01 139.442C105.185 139.442 105.185 139.266 105.361 139.091C105.537 138.739 105.537 138.211 105.361 137.86C104.658 136.98 103.779 136.101 102.899 135.222C102.724 135.046 102.372 134.694 102.02 134.518C99.9099 132.936 97.6239 131.705 95.162 131.177C94.9861 131.177 94.6344 131.001 94.4586 131.001C94.1069 131.001 93.7552 131.177 93.5793 131.353C93.4035 131.177 93.0518 131.001 92.7001 131.177C92.3484 131.177 92.1725 131.353 91.8208 131.353C90.414 131.705 88.6555 132.408 86.5453 133.463C86.1936 133.639 86.0178 133.815 86.0178 134.167C85.6661 133.991 85.4902 133.991 85.1385 134.167C84.0834 134.694 83.0283 135.222 81.9732 135.925C81.094 136.453 80.2147 136.805 79.5113 137.156C78.6321 137.508 77.9287 137.86 77.4011 138.035C77.0494 138.211 76.6977 138.563 76.6977 138.915C76.6977 139.266 76.8736 139.794 77.4011 139.97C77.577 139.97 77.7528 140.146 77.7528 140.146C78.6321 140.497 79.6872 141.201 80.5664 141.728C80.9181 141.904 81.2698 142.256 81.7974 142.432C82.8525 142.959 83.9076 143.663 85.1385 144.366C85.3144 144.542 85.6661 144.542 86.0178 144.366C86.0178 144.718 86.1936 144.894 86.5453 145.069C87.0729 145.421 87.6004 145.597 88.128 145.773C89.8865 146.652 91.4691 147.18 92.7001 147.356C93.0518 147.356 93.4035 147.356 93.5793 147.18C93.7552 147.356 94.1069 147.531 94.4586 147.531C94.8103 147.531 94.9861 147.531 95.162 147.356C98.8548 146.476 101.668 144.718 103.251 143.311C103.779 142.432 104.482 141.728 105.361 140.849C105.185 140.849 105.185 140.849 105.361 140.849Z" fill="#D6C19A"/>
<path d="M119.43 128.364V135.222H121.012C122.595 135.222 123.474 134.519 123.474 132.408V131.002C123.474 129.067 122.771 128.364 121.364 128.364H119.43ZM119.43 138.915V147.004H121.716C123.123 147.004 123.826 146.301 123.826 144.366V142.08C123.826 139.618 123.123 138.915 121.188 138.915H119.43ZM127.695 130.65V131.529C127.695 134.167 126.816 135.925 125.057 136.805C127.343 137.684 128.046 139.618 128.046 142.432V144.542C128.046 148.587 125.936 150.697 121.892 150.697H115.385V124.495H121.54C125.76 124.495 127.695 126.605 127.695 130.65Z" fill="#AB8E77"/>
<path d="M119.43 128.364V135.222H121.012C122.595 135.222 123.474 134.519 123.474 132.408V131.002C123.474 129.067 122.771 128.364 121.364 128.364H119.43V128.364ZM119.43 138.915V147.004H121.716C123.123 147.004 123.826 146.301 123.826 144.366V142.08C123.826 139.618 123.123 138.915 121.188 138.915H119.43ZM127.695 130.65V131.529C127.695 134.167 126.816 135.925 125.057 136.805C127.343 137.684 128.046 139.618 128.046 142.432V144.542C128.046 148.587 125.936 150.697 121.892 150.697H115.385V124.495H121.54C125.76 124.495 127.695 126.605 127.695 130.65Z" stroke="#56453A" stroke-width="0.326" stroke-miterlimit="10"/>
<path d="M138.244 124.495H134.2V150.697H138.244V124.495Z" fill="#AB8E77"/>
<path d="M138.246 124.495H134.201V150.697H138.246V124.495Z" stroke="#56453A" stroke-width="0.326" stroke-miterlimit="10"/>
<path d="M148.796 144.718C148.796 146.652 149.675 147.356 150.906 147.356C152.137 147.356 153.016 146.652 153.016 144.718V130.65C153.016 128.716 152.137 128.012 150.906 128.012C149.675 128.012 148.796 128.716 148.796 130.65V144.718ZM144.751 130.826C144.751 126.605 147.038 124.319 150.906 124.319C154.775 124.319 157.061 126.781 157.061 130.826V144.366C157.061 148.587 154.775 150.873 150.906 150.873C147.038 150.873 144.751 148.411 144.751 144.366V130.826Z" fill="#AB8E77"/>
<path d="M148.796 144.718C148.796 146.652 149.675 147.356 150.906 147.356C152.137 147.356 153.016 146.652 153.016 144.718V130.65C153.016 128.716 152.137 128.012 150.906 128.012C149.675 128.012 148.796 128.716 148.796 130.65V144.718ZM144.751 130.826C144.751 126.605 147.038 124.319 150.906 124.319C154.775 124.319 157.061 126.781 157.061 130.826V144.366C157.061 148.587 154.775 150.873 150.906 150.873C147.038 150.873 144.751 148.411 144.751 144.366V130.826Z" stroke="#56453A" stroke-width="0.326" stroke-miterlimit="10"/>
<path d="M163.567 124.495V150.697H167.612V139.97H172.888V136.101H167.612V128.364H174.47V124.495H163.567Z" fill="#AB8E77"/>
<path d="M167.612 136.101H172.888V139.97H167.612V150.697H163.568V124.495H174.47V128.364H167.612V136.101Z" stroke="#56453A" stroke-width="0.326" stroke-miterlimit="10"/>
<path d="M183.966 144.718C183.966 146.652 184.846 147.356 186.077 147.356C187.308 147.356 188.187 146.652 188.187 144.718V130.65C188.187 128.716 187.308 128.012 186.077 128.012C184.846 128.012 183.966 128.716 183.966 130.65V144.718ZM179.746 130.826C179.746 126.605 182.032 124.319 185.901 124.319C189.945 124.319 192.055 126.781 192.055 130.826V144.366C192.055 148.587 189.769 150.873 185.901 150.873C181.856 150.873 179.746 148.411 179.746 144.366V130.826Z" fill="#AB8E77"/>
<path d="M183.966 144.718C183.966 146.652 184.846 147.356 186.077 147.356C187.308 147.356 188.187 146.652 188.187 144.718V130.65C188.187 128.716 187.308 128.012 186.077 128.012C184.846 128.012 183.966 128.716 183.966 130.65V144.718ZM179.746 130.826C179.746 126.605 182.032 124.319 185.901 124.319C189.945 124.319 192.055 126.781 192.055 130.826V144.366C192.055 148.587 189.769 150.873 185.901 150.873C181.856 150.873 179.746 148.411 179.746 144.366V130.826Z" stroke="#56453A" stroke-width="0.326" stroke-miterlimit="10"/>
<path d="M202.781 128.364V136.453H204.364C205.946 136.453 206.826 135.75 206.826 133.639V131.002C206.826 129.067 206.122 128.364 204.715 128.364H202.781ZM207.177 150.697C207.002 149.993 206.826 149.642 206.826 147.531V143.487C206.826 141.025 205.946 140.146 204.188 140.146H202.781V150.697H198.561V124.495H204.715C208.936 124.495 210.87 126.429 210.87 130.474V132.584C210.87 135.222 209.991 136.98 208.232 137.86C210.343 138.739 210.87 140.673 210.87 143.487V147.531C210.87 148.762 210.87 149.818 211.398 150.697H207.177Z" fill="#AB8E77"/>
<path d="M202.781 128.364V136.453H204.364C205.946 136.453 206.826 135.75 206.826 133.639V131.002C206.826 129.067 206.122 128.364 204.715 128.364H202.781ZM207.177 150.697C207.002 149.993 206.826 149.642 206.826 147.531V143.487C206.826 141.025 205.946 140.146 204.188 140.146H202.781V150.697H198.561V124.495H204.715C208.936 124.495 210.87 126.429 210.87 130.474V132.584C210.87 135.222 209.991 136.98 208.232 137.86C210.343 138.739 210.87 140.673 210.87 143.487V147.531C210.87 148.762 210.87 149.818 211.398 150.697H207.177Z" stroke="#56453A" stroke-width="0.326" stroke-miterlimit="10"/>
<path d="M228.808 124.495L225.995 143.135L223.005 124.495H217.378V150.697H220.895V132.233L224.06 150.697H227.929L230.742 131.881V150.697H234.611V124.495H228.808Z" fill="#AB8E77"/>
<path d="M225.993 143.135L228.806 124.495H234.61V150.697H230.741V131.881L227.927 150.697H224.058L220.893 132.233V150.697H217.376V124.495H223.003L225.993 143.135Z" stroke="#56453A" stroke-width="0.326" stroke-miterlimit="10"/>
<path d="M206.475 40.6146C206.475 40.6146 194.869 4.56535 194.869 4.0378C194.869 3.51025 184.493 40.6146 184.493 40.6146H206.475Z" fill="#D6C19A"/>
<path d="M80.038 108.845C76.8727 113.065 73.1798 116.758 68.9594 119.923C64.739 123.089 60.3428 125.727 55.5948 128.013C50.4952 130.474 45.3955 131.881 40.2959 132.233C35.1962 132.585 30.4483 132.057 25.8762 130.65C21.3041 129.068 17.0837 126.606 13.3908 123.265C9.69796 119.923 6.53266 115.527 4.07076 110.252C1.60886 104.976 0.202054 99.8766 0.0262043 94.7769C-0.149646 89.6772 0.553755 84.9293 2.31226 80.533C4.07076 76.1368 6.70851 72.0922 10.2255 68.3994C13.7425 64.7065 18.1388 61.7171 23.2384 59.2552C28.5139 56.7933 33.6136 55.2106 38.5374 54.3314C43.4612 53.4521 48.385 53.8038 53.1329 55.3865L48.2091 71.213C45.2197 70.1579 42.4061 69.6303 39.4166 69.8062C36.4272 69.982 33.086 70.8613 29.3932 72.6198C26.2279 74.0266 23.766 75.9609 21.8316 78.0711C19.8973 80.3572 18.3146 82.8191 17.4354 85.4568C16.5561 88.0946 16.2044 91.084 16.5561 94.0735C16.9078 97.063 17.6112 100.228 19.018 103.218C20.4248 106.383 22.3592 108.845 24.4694 110.955C26.5796 113.065 29.0415 114.648 31.6792 115.703C34.317 116.758 37.1306 117.11 40.12 117.11C43.1095 116.934 46.0989 116.231 49.2642 114.648C52.4295 113.241 54.8914 111.483 56.8258 109.724C58.7601 107.966 60.1669 106.383 61.222 104.976L56.1224 94.4252L44.3404 99.8766L38.0098 86.5119L63.6839 74.3783L80.038 108.845Z" fill="#D6C19A"/>
<path d="M74.4105 65.4095L89.1819 61.365L91.2921 69.1024H91.4679C92.1713 65.7612 93.5781 62.9476 95.3366 60.8374C97.0951 58.7272 99.557 57.3204 102.898 56.4412C103.777 56.2653 104.657 56.0895 105.536 55.9136C106.415 55.7378 107.294 55.7378 107.998 55.7378L111.691 69.2783C110.636 69.2783 109.405 69.2782 108.35 69.4541C107.294 69.6299 106.239 69.8058 105.008 70.1575C102.195 70.8609 100.085 71.916 98.6778 73.147C97.271 74.3779 96.2159 75.7847 95.6883 77.5432C95.1608 79.1259 94.9849 81.0602 95.3366 83.1704C95.6883 85.2806 96.04 87.3908 96.7434 89.8527L102.195 109.9L87.4234 113.944L74.4105 65.4095Z" fill="#D6C19A"/>
<path d="M149.499 69.8057C149.323 67.1679 148.092 65.0577 146.158 63.4751C144.223 61.8924 141.762 61.189 138.948 61.5407C137.189 61.7166 135.783 62.2441 134.552 62.9475C133.321 63.6509 132.266 64.5302 131.562 65.4094C130.683 66.2887 130.155 67.5196 129.804 68.5747C129.452 69.8057 129.276 71.0366 129.452 72.2676L149.499 69.8057ZM165.15 89.8526C163.039 93.1937 160.402 96.0073 156.885 98.2934C153.368 100.404 149.675 101.81 145.63 102.338C141.762 102.865 138.244 102.69 134.727 101.81C131.21 100.931 128.045 99.7002 125.407 97.7658C122.594 95.8315 120.308 93.3696 118.549 90.3801C116.791 87.3907 115.56 83.8737 115.032 80.005C114.505 76.1363 114.856 72.4434 115.912 69.1023C116.967 65.7611 118.549 62.7717 120.659 60.1339C122.77 57.4962 125.583 55.386 128.749 53.8033C131.914 52.2207 135.431 51.1656 139.3 50.638C142.817 50.1105 146.158 50.4622 149.147 51.3414C152.137 52.2207 154.774 53.6275 157.06 55.5618C159.347 57.4962 161.281 60.1339 162.688 63.1234C164.094 66.1128 165.15 69.6298 165.677 73.4985L166.205 78.2465L130.859 82.6427C131.914 85.4563 133.497 87.5665 135.607 89.1492C137.893 90.556 140.531 91.0835 143.52 90.7318C145.982 90.3801 148.092 89.6767 149.675 88.2699C151.257 86.8631 152.664 85.2805 153.719 83.3461L165.15 89.8526Z" fill="#D6C19A"/>
<path d="M206.123 69.1024C206.299 66.4647 205.596 64.3545 203.837 62.4201C202.079 60.4858 199.969 59.4307 197.155 59.4307C195.396 59.4307 193.99 59.6065 192.583 60.1341C191.176 60.6616 190.121 61.1892 189.242 62.0684C188.362 62.9477 187.483 63.8269 186.956 64.882C186.428 65.9371 186.076 67.1681 185.901 68.399L206.123 69.1024ZM218.257 91.6112C215.619 94.6007 212.454 96.8867 208.585 98.4694C204.717 100.052 200.848 100.755 196.803 100.58C192.935 100.404 189.418 99.7003 186.076 98.2935C182.735 96.8867 179.922 95.1282 177.46 92.6663C174.998 90.2044 173.239 87.3908 172.008 84.2255C170.777 80.8844 170.074 77.3674 170.25 73.3228C170.426 69.4541 171.305 65.7613 172.888 62.7718C174.47 59.6065 176.581 56.9688 179.042 54.8586C181.68 52.7484 184.67 50.9899 188.011 49.9348C191.352 48.8797 195.045 48.3521 198.913 48.528C202.43 48.7038 205.596 49.4072 208.409 50.814C211.223 52.2208 213.685 53.9793 215.619 56.4412C217.554 58.7273 218.96 61.5409 219.84 64.882C220.719 68.0473 221.246 71.7402 221.071 75.6089L220.895 80.3568L185.373 78.7742C185.901 81.7636 187.132 84.0497 189.066 85.984C191 87.7425 193.462 88.7976 196.452 88.9735C198.913 89.1493 201.2 88.6218 202.958 87.5667C204.717 86.5116 206.299 85.1048 207.706 83.3463L218.257 91.6112Z" fill="#D6C19A"/>
<path d="M233.028 52.0449L247.448 55.2102L246.041 61.7167H246.217C246.92 60.8374 247.8 60.134 248.855 59.4306C249.91 58.7272 251.141 58.0238 252.548 57.6721C253.954 57.1446 255.361 56.9687 256.944 56.7929C258.526 56.617 260.285 56.7929 262.043 57.1446C265.912 58.0238 268.726 59.2548 270.836 60.8374C272.946 62.4201 274.353 64.5303 275.232 66.8163C276.111 69.1024 276.463 71.7401 276.287 74.7296C276.111 77.5432 275.76 80.7085 275.056 84.0496L269.253 110.779L254.306 107.614L259.406 83.8738C259.757 82.467 259.933 81.0602 260.109 79.4775C260.285 77.8949 260.285 76.4881 260.109 75.0813C259.933 73.6745 259.406 72.4435 258.526 71.5643C257.647 70.5092 256.24 69.8058 254.306 69.4541C252.372 69.1024 250.789 69.1024 249.382 69.4541C247.975 69.9816 246.92 70.685 246.041 71.7401C245.162 72.7952 244.458 74.0262 243.931 75.433C243.403 76.8398 243.052 78.4224 242.7 80.0051L237.424 104.097L222.477 100.931L233.028 52.0449Z" fill="#D6C19A"/>
<path d="M298.958 40.0653L273.606 112.979L288.056 118.003L313.407 45.0895L298.958 40.0653Z" fill="#D6C19A"/>
<path d="M315.15 138.915C313.04 140.849 311.105 142.608 309.347 144.014C307.588 145.421 305.83 146.476 303.895 147.004C301.961 147.531 299.851 147.707 297.565 147.356C295.279 147.004 292.465 146.125 289.124 144.366C285.607 142.608 282.442 140.497 279.628 137.684L287.014 127.309C288.596 129.243 290.531 130.826 292.817 131.881C294.4 132.584 295.63 133.112 296.861 133.288C298.092 133.463 298.972 133.288 300.027 132.936C300.906 132.584 301.961 132.057 302.84 131.353C303.72 130.65 304.775 129.771 305.83 128.891L308.116 126.781L310.402 72.2676L325.349 79.4774L322.536 114.647L322.711 114.823L346.979 90.0284L361.223 96.8866L315.15 138.915Z" fill="#D6C19A"/>
<path d="M39.2411 31.2945C39.2411 31.9979 39.0653 32.7013 38.7136 33.053C38.3619 33.4047 37.8343 33.5805 37.3068 33.5805C36.7792 33.5805 36.2517 33.4047 35.9 33.053C35.5483 32.7013 35.3724 31.9979 35.3724 31.2945V3.68602C35.3724 2.98262 35.5483 2.27922 35.9 1.92752C36.0758 1.39997 36.6034 1.22412 37.3068 1.22412C37.8343 1.22412 38.3619 1.39997 38.7136 1.75167C39.0653 2.10337 39.2411 2.80677 39.2411 3.51017V15.6438H56.2986V3.68602C56.2986 2.98262 56.4745 2.27922 56.8262 1.92752C57.3537 1.39997 57.7054 1.22412 58.4088 1.22412C58.9363 1.22412 59.4639 1.39997 59.8156 1.75167C60.1673 2.10337 60.3432 2.80677 60.3432 3.51017V31.2945C60.3432 31.9979 60.1673 32.7013 59.8156 33.053C59.4639 33.4047 58.9363 33.5805 58.4088 33.5805C57.8813 33.5805 57.3537 33.4047 57.002 33.053C56.6503 32.7013 56.4745 31.9979 56.4745 31.2945V19.1608H39.417V31.2945H39.2411Z" fill="#AB8E77"/>
<path d="M72.1256 21.4471C72.1256 22.5022 72.3015 23.5573 72.4773 24.4366C72.6532 25.4917 73.0049 26.3709 73.7083 27.2502C74.2358 28.1294 74.9392 28.8328 75.8185 29.3604C76.6977 29.8879 77.7528 30.2396 78.9838 30.2396C80.2147 30.2396 81.2698 29.8879 82.1491 29.3604C83.0283 28.8328 83.7317 28.1294 84.2593 27.2502C84.7868 26.3709 85.1385 25.4917 85.4902 24.4366C85.6661 23.3815 85.8419 22.3264 85.8419 21.4471C85.8419 20.392 85.6661 19.3369 85.4902 18.4577C85.3144 17.4026 84.9627 16.5233 84.2593 15.6441C83.7317 14.7648 83.0283 14.0614 82.1491 13.5339C81.2698 13.0063 80.2147 12.6546 78.9838 12.6546C77.7528 12.6546 76.6977 13.0063 75.8185 13.5339C74.9392 14.0614 74.2358 14.7648 73.7083 15.6441C73.1807 16.5233 72.829 17.4026 72.4773 18.4577C72.3015 19.5128 72.1256 20.392 72.1256 21.4471ZM68.0811 21.4471C68.0811 19.8645 68.2569 18.2818 68.7845 16.875C69.312 15.4682 70.0154 14.0614 70.8947 13.0063C71.7739 11.9512 73.0049 10.8961 74.2358 10.3686C75.6426 9.66518 77.0494 9.31348 78.8079 9.31348C80.5664 9.31348 81.9732 9.66518 83.38 10.3686C84.7868 11.072 85.8419 11.9512 86.7212 13.0063C87.6004 14.0614 88.3038 15.4682 88.8314 16.875C89.3589 18.2818 89.5348 19.8645 89.5348 21.4471C89.5348 23.0298 89.3589 24.6124 88.8314 26.0192C88.3038 27.426 87.6004 28.8328 86.7212 29.8879C85.8419 30.943 84.611 31.9981 83.38 32.5257C81.9732 33.2291 80.5664 33.5808 78.8079 33.5808C77.0494 33.5808 75.6426 33.2291 74.2358 32.5257C72.829 31.8223 71.7739 30.943 70.8947 29.8879C70.0154 28.8328 69.312 27.426 68.7845 26.0192C68.2569 24.6124 68.0811 23.0298 68.0811 21.4471Z" fill="#AB8E77"/>
<path d="M111.516 18.2818C111.516 16.5233 110.988 15.2924 110.109 14.2373C109.23 13.1822 107.999 12.8305 106.24 12.8305C104.658 12.8305 103.251 13.358 102.372 14.2373C101.492 15.2924 100.965 16.5233 100.965 18.2818V31.6464C100.965 32.3498 100.789 32.8774 100.437 33.2291C100.086 33.5808 99.558 33.7566 99.0305 33.7566C98.5029 33.7566 97.9753 33.5808 97.6236 33.2291C97.2719 32.8774 97.0961 32.3498 97.0961 31.6464V11.4237C97.0961 10.7203 97.2719 10.1927 97.6236 9.84103C97.9753 9.48933 98.5029 9.31348 99.0305 9.31348C99.558 9.31348 100.086 9.48933 100.437 9.84103C100.789 10.1927 100.965 10.7203 100.965 11.4237V12.1271H101.141C101.317 11.7754 101.668 11.4237 102.02 11.2478C102.372 10.8961 102.723 10.5444 103.251 10.3686C103.778 10.0169 104.306 9.84103 105.009 9.66518C105.713 9.48933 106.416 9.31348 107.295 9.31348C108.526 9.31348 109.581 9.66518 110.812 10.1927C112.043 10.7203 113.098 11.7754 114.154 13.358C115.033 12.1271 116.088 11.072 117.143 10.3686C118.374 9.66518 119.781 9.31348 121.539 9.31348C122.419 9.31348 123.474 9.48933 124.529 9.84103C125.584 10.1927 126.463 10.7203 127.166 11.4237C128.046 12.1271 128.749 13.0063 129.277 14.2373C129.804 15.2924 129.98 16.6992 129.98 18.2818V31.4706C129.98 32.174 129.804 32.7015 129.453 33.0532C129.101 33.4049 128.573 33.5808 128.046 33.5808C127.518 33.5808 126.991 33.4049 126.639 33.0532C126.287 32.7015 126.111 32.174 126.111 31.4706V18.2818C126.111 16.5233 125.584 15.2924 124.705 14.2373C123.825 13.1822 122.594 12.8305 120.836 12.8305C119.253 12.8305 117.846 13.358 116.967 14.2373C116.088 15.2924 115.56 16.5233 115.56 18.2818V31.6464C115.56 32.3498 115.385 32.8774 115.033 33.2291C114.681 33.5808 114.154 33.7566 113.626 33.7566C113.098 33.7566 112.571 33.5808 112.219 33.2291C111.868 32.8774 111.692 32.3498 111.692 31.6464V18.2818H111.516Z" fill="#AB8E77"/>
<path d="M154.599 20.0403C154.599 19.161 154.423 18.2818 154.247 17.4025C154.071 16.5233 153.543 15.8199 153.016 15.1165C152.488 14.4131 151.785 13.8855 151.082 13.358C150.202 12.8304 149.323 12.6546 148.268 12.6546C147.037 12.6546 145.982 12.8304 145.103 13.1821C144.223 13.5338 143.52 14.2372 142.992 14.9406C142.465 15.644 142.113 16.3474 141.762 17.4025C141.586 18.2818 141.41 19.161 141.41 20.0403H154.599ZM141.234 23.0297C141.234 24.0848 141.41 24.9641 141.762 25.8433C142.113 26.7226 142.641 27.426 143.168 28.1294C143.872 28.8328 144.575 29.3603 145.454 29.712C146.334 30.0637 147.389 30.2396 148.444 30.2396C149.851 30.2396 150.906 30.0637 151.785 29.712C152.664 29.3603 153.368 29.0086 154.071 28.6569C154.599 28.3052 155.126 27.9535 155.654 27.6018C156.005 27.2501 156.533 27.0743 156.885 27.0743C157.236 27.0743 157.588 27.2501 157.94 27.6018C158.291 27.9535 158.467 28.3052 158.467 28.8328C158.467 29.3603 158.116 29.8879 157.588 30.4154C157.06 30.943 156.357 31.4705 155.302 31.9981C154.423 32.5256 153.368 32.8773 152.137 33.229C150.906 33.5807 149.851 33.7566 148.62 33.7566C146.685 33.7566 144.927 33.4049 143.52 32.7015C142.113 31.9981 140.882 31.1188 140.003 30.0637C139.124 29.0086 138.42 27.6018 138.069 26.195C137.717 24.7882 137.365 23.2056 137.365 21.6229C137.365 20.0403 137.541 18.4576 138.069 17.0508C138.596 15.644 139.3 14.2372 140.179 13.1821C141.058 12.127 142.289 11.2478 143.52 10.5444C144.927 9.84096 146.334 9.48926 148.092 9.48926C149.675 9.48926 151.257 9.84096 152.488 10.5444C153.719 11.2478 154.95 12.127 155.83 13.1821C156.709 14.2372 157.412 15.4682 157.94 16.875C158.467 18.2818 158.643 19.6886 158.643 21.0954C158.643 21.7988 158.467 22.3263 158.116 22.678C157.764 23.0297 157.236 23.2056 156.357 23.2056H141.234V23.0297Z" fill="#AB8E77"/>
<path d="M243.402 18.8093C242.875 18.8093 242.347 18.6334 241.996 18.2817C241.644 17.93 241.468 17.5783 241.468 16.8749C241.468 16.1715 241.644 15.8198 241.996 15.4681C242.347 15.1164 242.875 14.9406 243.402 14.9406H250.085C251.14 14.9406 251.843 15.1164 252.371 15.644C252.898 16.1715 253.074 16.8749 253.074 18.2817C253.074 20.2161 252.898 22.1504 252.371 23.9089C252.019 25.6674 251.14 27.4259 250.261 28.8327C249.206 30.2395 247.799 31.4705 246.04 32.3497C244.282 33.229 241.996 33.5807 239.182 33.5807C236.896 33.5807 234.786 33.0531 233.027 32.1739C231.269 31.2946 229.686 30.0637 228.631 28.481C227.4 26.8984 226.521 25.3157 225.993 23.2055C225.466 21.2712 225.114 19.161 225.114 17.2266C225.114 15.1164 225.466 13.1821 225.993 11.2477C226.521 9.31336 227.576 7.55486 228.631 5.97221C229.862 4.38956 231.445 3.33446 233.203 2.27936C235.138 1.40011 237.248 0.872559 239.885 0.872559C241.644 0.872559 243.051 1.04841 244.458 1.40011C245.864 1.75181 246.919 2.27936 247.975 2.80691C249.03 3.33446 249.733 3.86201 250.261 4.56541C250.788 5.09296 251.14 5.62051 251.14 6.14806C251.14 6.67561 250.964 7.02731 250.612 7.55486C250.085 8.08241 249.557 8.25826 249.03 8.25826C248.502 8.25826 247.975 8.08241 247.447 7.73071C246.919 7.37901 246.392 7.02731 245.689 6.49976C244.985 5.97221 244.106 5.62051 243.227 5.26881C242.172 4.91711 240.941 4.74126 239.534 4.74126C237.775 4.74126 236.193 5.09296 234.786 5.97221C233.555 6.67561 232.5 7.73071 231.621 8.96166C230.741 10.1926 230.214 11.5994 229.862 13.0062C229.51 14.5889 229.334 15.9957 229.334 17.5783C229.334 19.161 229.51 20.5678 229.862 22.1504C230.214 23.7331 230.917 24.964 231.621 26.195C232.5 27.4259 233.555 28.481 234.786 29.1844C236.193 29.8878 237.775 30.2395 239.534 30.2395C241.116 30.2395 242.523 29.8878 243.754 29.3603C244.985 28.8327 245.864 27.9535 246.744 27.0742C247.447 26.195 248.15 25.1399 248.502 23.9089C248.854 22.8538 249.03 21.6229 249.03 20.5678V18.8093H243.402Z" fill="#AB8E77"/>
<path d="M256.591 11.4237C256.591 10.7203 256.767 10.1927 257.119 9.84103C257.47 9.48933 257.998 9.31348 258.526 9.31348C259.053 9.31348 259.581 9.48933 259.932 9.84103C260.284 10.1927 260.46 10.7203 260.46 11.4237V12.3029L260.636 12.4788C261.515 11.4237 262.57 10.5444 263.801 10.0169C265.032 9.48933 266.263 9.31348 267.494 9.31348C268.373 9.31348 269.428 9.48933 270.483 9.84103C271.538 10.1927 272.418 10.7203 273.121 11.4237C274 12.1271 274.704 13.0063 275.231 14.2373C275.759 15.4682 276.111 16.875 276.111 18.4577V31.6464C276.111 32.3498 275.935 32.8774 275.583 33.2291C275.231 33.5808 274.704 33.7566 274.176 33.7566C273.649 33.7566 273.121 33.5808 272.769 33.2291C272.418 32.8774 272.242 32.3498 272.242 31.6464V18.6335C272.242 17.5784 272.066 16.6992 271.714 15.9958C271.363 15.2924 271.011 14.589 270.483 14.2373C269.956 13.7097 269.428 13.358 268.725 13.1822C268.021 13.0063 267.318 12.8305 266.791 12.8305C266.087 12.8305 265.384 13.0063 264.856 13.1822C264.153 13.358 263.625 13.7097 263.098 14.2373C262.57 14.7648 262.043 15.2924 261.867 15.9958C261.515 16.6992 261.339 17.5784 261.339 18.6335V31.6464C261.339 32.3498 261.163 32.8774 260.812 33.2291C260.46 33.5808 259.932 33.7566 259.405 33.7566C258.877 33.7566 258.35 33.5808 257.998 33.2291C257.646 32.8774 257.47 32.3498 257.47 31.6464V11.4237H256.591Z" fill="#AB8E77"/>
<path d="M284.201 21.4471C284.201 22.5022 284.377 23.5573 284.553 24.4366C284.729 25.4917 285.081 26.3709 285.608 27.2502C286.136 28.1294 286.839 28.8328 287.718 29.3604C288.598 29.8879 289.653 30.2396 290.884 30.2396C292.115 30.2396 293.17 29.8879 294.049 29.3604C294.928 28.8328 295.632 28.1294 296.159 27.2502C296.687 26.3709 297.038 25.4917 297.39 24.4366C297.566 23.3815 297.742 22.3264 297.742 21.4471C297.742 20.392 297.566 19.3369 297.39 18.4577C297.214 17.4026 296.863 16.5233 296.159 15.6441C295.632 14.7648 294.928 14.0614 294.049 13.5339C293.17 13.0063 292.115 12.6546 290.884 12.6546C289.653 12.6546 288.598 13.0063 287.718 13.5339C286.839 14.0614 286.136 14.7648 285.608 15.6441C285.081 16.5233 284.729 17.4026 284.553 18.4577C284.377 19.5128 284.201 20.392 284.201 21.4471ZM280.157 21.4471C280.157 19.8645 280.333 18.2818 280.86 16.875C281.388 15.4682 282.091 14.0614 282.97 13.0063C283.85 11.9512 285.081 10.8961 286.312 10.3686C287.718 9.66518 289.125 9.31348 290.884 9.31348C292.642 9.31348 294.049 9.66518 295.456 10.3686C296.863 11.072 297.918 11.9512 298.797 13.0063C299.676 14.0614 300.38 15.4682 300.907 16.875C301.435 18.2818 301.611 19.8645 301.611 21.4471C301.611 23.0298 301.435 24.6124 300.907 26.0192C300.38 27.426 299.676 28.8328 298.797 29.8879C297.918 30.943 296.687 31.9981 295.456 32.5257C294.049 33.2291 292.642 33.5808 290.884 33.5808C289.125 33.5808 287.718 33.2291 286.312 32.5257C284.905 31.8223 283.85 30.943 282.97 29.8879C282.091 28.8328 281.388 27.426 280.86 26.0192C280.333 24.6124 280.157 23.0298 280.157 21.4471Z" fill="#AB8E77"/>
<path d="M320.249 18.2818C320.249 16.5233 319.721 15.2924 318.842 14.2373C317.963 13.1822 316.732 12.8305 314.973 12.8305C313.391 12.8305 311.984 13.358 311.105 14.2373C310.225 15.2924 309.698 16.5233 309.698 18.2818V31.6464C309.698 32.3498 309.522 32.8774 309.17 33.2291C308.819 33.5808 308.291 33.7566 307.764 33.7566C307.236 33.7566 306.708 33.5808 306.357 33.2291C306.005 32.8774 305.829 32.3498 305.829 31.6464V11.4237C305.829 10.7203 306.005 10.1927 306.357 9.84103C306.708 9.48933 307.236 9.31348 307.764 9.31348C308.291 9.31348 308.819 9.48933 309.17 9.84103C309.522 10.1927 309.698 10.7203 309.698 11.4237V12.1271H309.874C310.05 11.7754 310.401 11.4237 310.753 11.2478C311.105 10.8961 311.456 10.5444 311.984 10.3686C312.512 10.0169 313.039 9.84103 313.742 9.66518C314.446 9.48933 315.149 9.31348 316.029 9.31348C317.259 9.31348 318.315 9.66518 319.546 10.1927C320.776 10.7203 321.832 11.7754 322.711 13.358C323.59 12.1271 324.645 11.072 325.7 10.3686C326.931 9.66518 328.338 9.31348 330.097 9.31348C330.976 9.31348 332.031 9.48933 332.91 9.84103C333.965 10.1927 334.844 10.7203 335.548 11.4237C336.427 12.1271 337.131 13.0063 337.658 14.2373C338.186 15.4682 338.537 16.875 338.537 18.4577V31.6464C338.537 32.3498 338.361 32.8774 338.01 33.2291C337.658 33.5808 337.131 33.7566 336.603 33.7566C336.075 33.7566 335.548 33.5808 335.196 33.2291C334.844 32.8774 334.669 32.3498 334.669 31.6464V18.2818C334.669 16.5233 334.141 15.2924 333.262 14.2373C332.383 13.1822 331.152 12.8305 329.393 12.8305C327.81 12.8305 326.404 13.358 325.524 14.2373C324.645 15.2924 324.118 16.5233 324.118 18.2818V31.6464C324.118 32.3498 323.942 32.8774 323.59 33.2291C323.238 33.5808 322.711 33.7566 322.183 33.7566C321.656 33.7566 321.128 33.5808 320.776 33.2291C320.425 32.8774 320.249 32.3498 320.249 31.6464V18.2818Z" fill="#AB8E77"/>
<path d="M359.816 20.0403C359.816 19.161 359.64 18.2818 359.464 17.4025C359.288 16.5233 358.761 15.8199 358.233 15.1165C357.706 14.4131 357.002 13.8855 356.299 13.358C355.419 12.8304 354.54 12.6546 353.485 12.6546C352.254 12.6546 351.199 12.8304 350.32 13.1821C349.441 13.5338 348.737 14.2372 348.21 14.9406C347.682 15.644 347.33 16.3474 346.979 17.4025C346.803 18.2818 346.627 19.161 346.627 20.0403H359.816ZM346.451 23.0297C346.451 24.0848 346.627 24.9641 346.979 25.8433C347.33 26.7226 347.682 27.426 348.385 28.1294C349.089 28.8328 349.792 29.3603 350.672 29.712C351.551 30.0637 352.606 30.2396 353.661 30.2396C355.068 30.2396 356.123 30.0637 357.002 29.712C357.881 29.3603 358.585 29.0086 359.288 28.6569C359.816 28.3052 360.343 27.9535 360.871 27.6018C361.223 27.2501 361.75 27.0743 362.102 27.0743C362.453 27.0743 362.805 27.2501 363.157 27.6018C363.509 27.9535 363.684 28.3052 363.684 28.8328C363.684 29.3603 363.333 29.8879 362.805 30.4154C362.278 30.943 361.574 31.4705 360.519 31.9981C359.64 32.5256 358.585 32.8773 357.354 33.229C356.123 33.5807 355.068 33.7566 353.837 33.7566C351.902 33.7566 350.144 33.4049 348.737 32.7015C347.33 31.9981 346.099 31.1188 345.22 30.0637C344.341 29.0086 343.638 27.6018 343.286 26.195C342.934 24.7882 342.582 23.2056 342.582 21.6229C342.582 20.0403 342.758 18.4576 343.286 17.0508C343.813 15.644 344.517 14.2372 345.396 13.1821C346.275 12.127 347.506 11.2478 348.737 10.5444C350.144 9.84096 351.551 9.48926 353.309 9.48926C354.892 9.48926 356.475 9.84096 357.706 10.5444C358.936 11.2478 360.167 12.127 361.047 13.1821C361.926 14.2372 362.629 15.4682 363.157 16.875C363.684 18.2818 363.86 19.6886 363.86 21.0954C363.86 21.7988 363.684 22.3263 363.333 22.678C362.981 23.0297 362.453 23.2056 361.574 23.2056H346.451V23.0297Z" fill="#AB8E77"/>
</svg>
