<svg width="401" height="166" viewBox="0 0 401 166" fill="none" xmlns="http://www.w3.org/2000/svg">
<path d="M268.519 150.686C269.099 150.106 269.873 149.139 270.84 148.365C272.775 146.818 275.483 145.077 279.158 144.109C279.351 144.109 279.545 144.109 279.738 144.109C279.738 144.303 279.738 144.303 279.545 144.496C277.997 146.624 275.289 148.172 272.775 149.332C271.227 149.719 269.68 150.299 268.519 150.686ZM269.099 151.653C270.26 151.46 272.194 151.073 274.129 151.073C277.224 150.88 281.092 150.88 284.381 151.847C284.574 151.847 284.767 152.04 284.961 152.04C284.767 152.04 284.574 152.234 284.381 152.234C280.512 153.201 276.063 153.007 272.775 152.427C271.421 152.04 270.066 151.847 269.099 151.653ZM268.326 152.621C269.293 153.007 270.84 153.394 272.194 154.168C274.902 155.329 277.804 157.07 279.158 159.391C279.158 159.584 279.351 159.584 279.351 159.778C279.158 159.778 278.964 159.778 278.771 159.584C275.289 158.617 272.775 156.876 270.84 155.329C269.873 154.362 268.906 153.394 268.326 152.621ZM273.548 153.394C277.03 153.781 281.092 153.975 285.154 153.007C285.541 153.007 285.735 152.814 286.122 152.621C286.315 152.814 286.508 153.007 286.508 153.201C287.282 154.168 287.669 155.716 287.862 157.263C285.928 158.23 283.8 159.004 282.253 159.391C281.866 159.391 281.673 159.584 281.286 159.584C281.286 159.391 281.092 159.197 281.092 159.004C279.351 156.489 276.256 154.748 273.548 153.394ZM289.217 156.489C289.023 155.135 288.636 153.781 287.862 152.814C287.669 152.427 287.282 152.234 287.089 151.847C287.089 151.847 287.282 151.847 287.282 151.653C288.249 150.686 288.83 149.332 289.217 147.978C289.217 147.785 289.41 147.591 289.41 147.204C291.151 148.172 292.892 149.139 294.246 149.913C295.406 150.686 296.567 151.267 297.534 151.653C297.728 151.653 297.921 151.847 298.115 151.847C297.341 152.04 296.567 152.427 295.6 153.007C293.665 154.168 291.538 155.522 289.217 156.489ZM285.928 151.267C285.735 151.073 285.348 151.073 284.961 150.88C281.092 149.913 277.03 149.719 273.742 150.106C273.548 150.106 273.548 150.106 273.355 150.106C273.548 150.106 273.548 150.106 273.548 149.913C276.256 148.752 279.158 147.011 280.899 144.69C281.092 144.496 281.092 144.303 281.092 144.109C282.446 144.303 284.187 145.077 285.928 145.85C286.508 146.044 287.089 146.431 287.669 146.624C287.476 147.978 287.089 149.332 286.508 150.299C286.508 150.686 286.315 150.88 285.928 151.267ZM267.552 149.913C267.165 150.493 267.165 151.073 267.745 151.46C267.745 151.46 267.745 151.46 267.939 151.46C267.745 151.46 267.745 151.653 267.552 151.847C267.165 152.234 267.358 152.814 267.552 153.201C268.326 154.168 269.293 155.135 270.26 156.102C270.453 156.296 270.84 156.683 271.227 156.876C273.548 158.617 276.063 159.971 278.771 160.551C278.964 160.551 279.351 160.745 279.545 160.745C279.932 160.745 280.319 160.551 280.512 160.358C280.705 160.551 281.092 160.745 281.479 160.551C281.866 160.551 282.059 160.358 282.446 160.358C283.994 159.971 285.928 159.197 288.249 158.037C288.636 157.843 288.83 157.65 288.83 157.263C289.216 157.456 289.41 157.456 289.797 157.263C290.957 156.683 292.118 156.102 293.279 155.329C294.246 154.748 295.213 154.362 295.987 153.975C296.954 153.588 297.728 153.201 298.308 153.007C298.695 152.814 299.082 152.427 299.082 152.04C299.082 151.653 298.888 151.073 298.308 150.88C298.115 150.88 297.921 150.686 297.921 150.686C296.954 150.299 295.793 149.526 294.826 148.945C294.439 148.752 294.052 148.365 293.472 148.172C292.311 147.591 291.151 146.818 289.797 146.044C289.603 145.85 289.216 145.85 288.83 146.044C288.83 145.657 288.443 145.464 288.249 145.27C287.669 144.883 287.089 144.69 286.508 144.496C284.574 143.529 282.833 142.949 281.479 142.755C281.092 142.755 280.705 142.755 280.512 142.949C280.319 142.755 279.932 142.562 279.545 142.562C279.158 142.562 278.964 142.562 278.771 142.755C274.709 143.723 271.614 145.657 269.873 147.204C269.099 148.172 268.326 148.945 267.552 149.913Z" fill="#D6C19A"/>
<path d="M114.931 153.201C114.351 153.781 113.577 154.748 112.61 155.522C110.676 157.069 107.968 158.81 104.292 159.777C104.099 159.777 103.905 159.777 103.712 159.777C103.712 159.584 103.712 159.584 103.905 159.391C105.453 157.263 108.161 155.715 110.676 154.555C112.03 153.974 113.771 153.588 114.931 153.201ZM114.157 152.234C112.997 152.427 111.062 152.814 109.128 152.814C106.033 153.007 102.164 153.007 98.8761 152.04C98.6827 152.04 98.4892 151.847 98.2958 151.847C98.4892 151.847 98.6827 151.653 98.8761 151.653C102.745 150.686 107.194 150.879 110.482 151.46C112.03 151.653 113.19 152.04 114.157 152.234ZM114.931 151.266C113.964 150.879 112.417 150.493 111.062 149.719C108.354 148.558 105.453 146.817 104.099 144.496C104.099 144.303 103.905 144.303 103.905 144.109C104.099 144.109 104.292 144.109 104.486 144.303C107.968 145.27 110.482 147.011 112.417 148.558C113.577 149.525 114.351 150.493 114.931 151.266ZM109.902 150.493C106.42 150.106 102.358 149.912 98.2958 150.879C97.9089 150.879 97.7155 151.073 97.3286 151.266C97.1352 151.073 96.9417 150.879 96.9417 150.686C96.3614 149.719 95.9746 148.171 95.5877 146.624C97.522 145.657 99.6498 144.883 101.197 144.496C101.584 144.496 101.778 144.303 102.164 144.303C102.164 144.496 102.358 144.69 102.358 144.883C104.099 147.398 107 149.139 109.902 150.493ZM94.2336 147.204C94.4271 148.558 94.814 149.912 95.5877 150.879C95.7811 151.266 96.168 151.46 96.3614 151.847C96.3614 151.847 96.168 151.847 96.168 152.04C95.2008 153.007 94.6205 154.361 94.2336 155.715C94.2336 155.909 94.0402 156.102 94.0402 156.489C92.2993 155.522 90.5584 154.555 89.2043 153.781C88.0437 153.007 86.8831 152.427 85.9159 152.04C85.7225 152.04 85.5291 151.847 85.3356 151.847C86.1094 151.653 86.8831 151.266 87.8503 150.686C89.5912 149.719 91.9124 148.365 94.2336 147.204ZM97.3286 152.62C97.522 152.814 97.9089 152.814 98.2958 153.007C102.164 153.974 106.227 154.168 109.515 153.781C109.708 153.781 109.708 153.781 109.902 153.781C109.902 153.781 109.708 153.781 109.708 153.974C107 155.135 104.099 156.876 102.358 159.197C102.164 159.391 102.164 159.584 102.164 159.777C100.81 159.584 99.0695 158.81 97.3286 158.037C96.7483 157.843 96.168 157.456 95.5877 157.263C95.7811 155.909 96.168 154.555 96.7483 153.588C96.9417 153.201 97.1352 153.007 97.3286 152.62ZM115.898 153.974C116.285 153.394 116.285 152.814 115.705 152.427C115.705 152.427 115.705 152.427 115.511 152.427C115.705 152.427 115.705 152.234 115.898 152.04C116.092 151.653 116.092 151.073 115.898 150.686C115.125 149.719 114.157 148.752 113.19 147.785C112.997 147.591 112.61 147.204 112.223 147.011C109.902 145.27 107.387 143.916 104.679 143.336C104.486 143.336 104.099 143.142 103.905 143.142C103.519 143.142 103.132 143.336 102.938 143.529C102.745 143.336 102.358 143.142 101.971 143.336C101.584 143.336 101.391 143.529 101.004 143.529C99.4564 143.916 97.522 144.69 95.2008 145.85C94.814 146.044 94.6205 146.237 94.6205 146.624C94.2336 146.43 94.0402 146.43 93.6533 146.624C92.4927 147.204 91.3321 147.785 90.1715 148.558C89.2043 149.139 88.2372 149.525 87.4634 149.912C86.4963 150.299 85.7225 150.686 85.1422 150.879C84.7553 151.073 84.3685 151.46 84.3685 151.847C84.3685 152.234 84.5619 152.814 85.1422 153.007C85.3356 153.007 85.5291 153.201 85.5291 153.201C86.4963 153.588 87.6569 154.361 88.624 154.942C89.0109 155.135 89.3978 155.522 89.9781 155.715C91.1387 156.296 92.2993 157.069 93.6533 157.843C93.8468 158.037 94.2336 158.037 94.6205 157.843C94.6205 158.23 94.814 158.423 95.2008 158.617C95.7811 159.004 96.3614 159.197 96.9417 159.391C98.8761 160.358 100.617 160.938 101.971 161.132C102.358 161.132 102.745 161.132 102.938 160.938C103.132 161.132 103.519 161.325 103.905 161.325C104.292 161.325 104.486 161.325 104.679 161.132C108.741 160.164 111.836 158.23 113.577 156.683C114.157 155.715 114.931 154.942 115.898 153.974C115.705 153.974 115.705 153.974 115.898 153.974Z" fill="#D6C19A"/>
<path d="M131.373 140.24V147.784H133.114C134.855 147.784 135.822 147.011 135.822 144.689V143.142C135.822 141.014 135.048 140.24 133.501 140.24H131.373ZM131.373 151.847V160.745H133.888C135.435 160.745 136.209 159.971 136.209 157.843V155.328C136.209 152.62 135.435 151.847 133.308 151.847H131.373ZM140.465 142.755V143.722C140.465 146.624 139.497 148.558 137.563 149.525C140.078 150.492 140.852 152.62 140.852 155.715V158.036C140.852 162.485 138.53 164.807 134.081 164.807H126.924V135.985H133.694C138.337 135.985 140.465 138.306 140.465 142.755Z" fill="#EBD8C8"/>
<path d="M131.373 140.24V147.784H133.114C134.855 147.784 135.822 147.011 135.822 144.689V143.142C135.822 141.014 135.048 140.24 133.501 140.24H131.373V140.24ZM131.373 151.847V160.745H133.888C135.435 160.745 136.209 159.971 136.209 157.843V155.328C136.209 152.62 135.435 151.847 133.308 151.847H131.373ZM140.465 142.755V143.722C140.465 146.624 139.497 148.558 137.563 149.525C140.078 150.492 140.852 152.62 140.852 155.715V158.036C140.852 162.485 138.53 164.807 134.081 164.807H126.924V135.985H133.694C138.337 135.985 140.465 138.306 140.465 142.755Z" stroke="#56453A" stroke-width="0.326" stroke-miterlimit="10"/>
<path d="M152.069 135.984H147.62V164.806H152.069V135.984Z" fill="#EBD8C8"/>
<path d="M152.07 135.985H147.621V164.807H152.07V135.985Z" stroke="#56453A" stroke-width="0.326" stroke-miterlimit="10"/>
<path d="M163.676 158.23C163.676 160.358 164.643 161.131 165.997 161.131C167.351 161.131 168.318 160.358 168.318 158.23V142.755C168.318 140.627 167.351 139.854 165.997 139.854C164.643 139.854 163.676 140.627 163.676 142.755V158.23ZM159.227 142.949C159.227 138.306 161.741 135.792 165.997 135.792C170.252 135.792 172.767 138.5 172.767 142.949V157.843C172.767 162.486 170.252 165 165.997 165C161.741 165 159.227 162.292 159.227 157.843V142.949Z" fill="#EBD8C8"/>
<path d="M163.676 158.23C163.676 160.358 164.643 161.131 165.997 161.131C167.351 161.131 168.318 160.358 168.318 158.23V142.755C168.318 140.627 167.351 139.854 165.997 139.854C164.643 139.854 163.676 140.627 163.676 142.755V158.23ZM159.227 142.949C159.227 138.306 161.741 135.792 165.997 135.792C170.252 135.792 172.767 138.5 172.767 142.949V157.843C172.767 162.486 170.252 165 165.997 165C161.741 165 159.227 162.292 159.227 157.843V142.949Z" stroke="#56453A" stroke-width="0.326" stroke-miterlimit="10"/>
<path d="M179.924 135.984V164.806H184.373V153.007H190.176V148.751H184.373V140.24H191.917V135.984H179.924Z" fill="#EBD8C8"/>
<path d="M184.373 148.751H190.176V153.006H184.373V164.806H179.924V135.984H191.917V140.239H184.373V148.751Z" stroke="#56453A" stroke-width="0.326" stroke-miterlimit="10"/>
<path d="M202.363 158.229C202.363 160.357 203.331 161.13 204.685 161.13C206.039 161.13 207.006 160.357 207.006 158.229V142.754C207.006 140.626 206.039 139.853 204.685 139.853C203.331 139.853 202.363 140.626 202.363 142.754V158.229ZM197.721 142.948C197.721 138.305 200.236 135.791 204.491 135.791C208.94 135.791 211.261 138.499 211.261 142.948V157.842C211.261 162.485 208.747 164.999 204.491 164.999C200.042 164.999 197.721 162.291 197.721 157.842V142.948Z" fill="#EBD8C8"/>
<path d="M202.363 158.229C202.363 160.357 203.331 161.13 204.685 161.13C206.039 161.13 207.006 160.357 207.006 158.229V142.754C207.006 140.626 206.039 139.853 204.685 139.853C203.331 139.853 202.363 140.626 202.363 142.754V158.229ZM197.721 142.948C197.721 138.305 200.236 135.791 204.491 135.791C208.94 135.791 211.261 138.499 211.261 142.948V157.842C211.261 162.485 208.747 164.999 204.491 164.999C200.042 164.999 197.721 162.291 197.721 157.842V142.948Z" stroke="#56453A" stroke-width="0.326" stroke-miterlimit="10"/>
<path d="M223.06 140.239V149.137H224.801C226.542 149.137 227.509 148.364 227.509 146.043V143.141C227.509 141.013 226.735 140.239 225.188 140.239H223.06ZM227.896 164.806C227.702 164.032 227.509 163.645 227.509 161.324V156.875C227.509 154.167 226.542 153.2 224.607 153.2H223.06V164.806H218.417V135.984H225.188C229.83 135.984 231.958 138.112 231.958 142.561V144.882C231.958 147.783 230.991 149.718 229.056 150.685C231.377 151.652 231.958 153.78 231.958 156.875V161.324C231.958 162.678 231.958 163.839 232.538 164.806H227.896Z" fill="#EBD8C8"/>
<path d="M223.06 140.239V149.137H224.801C226.542 149.137 227.509 148.364 227.509 146.043V143.141C227.509 141.013 226.735 140.239 225.188 140.239H223.06ZM227.896 164.806C227.702 164.032 227.509 163.645 227.509 161.324V156.875C227.509 154.167 226.542 153.2 224.607 153.2H223.06V164.806H218.417V135.984H225.188C229.83 135.984 231.958 138.112 231.958 142.561V144.882C231.958 147.783 230.991 149.718 229.056 150.685C231.377 151.652 231.958 153.78 231.958 156.875V161.324C231.958 162.678 231.958 163.839 232.538 164.806H227.896Z" stroke="#56453A" stroke-width="0.326" stroke-miterlimit="10"/>
<path d="M251.688 135.984L248.593 156.488L245.305 135.984H239.115V164.806H242.984V144.496L246.465 164.806H250.721L253.816 144.109V164.806H258.071V135.984H251.688Z" fill="#EBD8C8"/>
<path d="M248.592 156.488L251.687 135.984H258.07V164.806H253.815V144.109L250.72 164.806H246.464L242.982 144.496V164.806H239.114V135.984H245.304L248.592 156.488Z" stroke="#56453A" stroke-width="0.326" stroke-miterlimit="10"/>
<path d="M227.122 43.7162C227.122 43.7162 214.355 4.06202 214.355 3.48172C214.355 2.90141 202.943 43.7162 202.943 43.7162H227.122Z" fill="white"/>
<path d="M88.0417 118.769C84.5599 123.411 80.4977 127.473 75.8553 130.955C71.2129 134.437 66.377 137.338 61.1543 139.853C55.5446 142.561 49.935 144.109 44.3254 144.495C38.7158 144.882 33.4931 144.302 28.4638 142.755C23.4345 141.014 18.792 138.306 14.7299 134.63C10.6677 130.955 7.18592 126.119 4.47783 120.316C1.76974 114.513 0.22226 108.903 0.0288246 103.294C-0.16461 97.6842 0.609129 92.4614 2.54348 87.6256C4.47783 82.7897 7.37935 78.3407 11.248 74.2786C15.1167 70.2164 19.9526 66.928 25.5622 64.22C31.3653 61.5119 36.9749 59.7709 42.3911 58.8038C47.8072 57.8366 53.2234 58.2235 58.4462 59.9644L53.03 77.3735C49.7416 76.2129 46.6466 75.6326 43.3582 75.826C40.0699 76.0195 36.3946 76.9867 32.3325 78.921C28.8506 80.4685 26.1425 82.5963 24.0148 84.9175C21.887 87.4321 20.1461 90.1402 19.1789 93.0418C18.2117 95.9433 17.8248 99.2317 18.2117 102.52C18.5986 105.808 19.3723 109.29 20.9198 112.579C22.4673 116.061 24.5951 118.769 26.9163 121.09C29.2375 123.411 31.9456 125.152 34.8471 126.313C37.7486 127.473 40.8436 127.86 44.132 127.86C47.4204 127.667 50.7088 126.893 54.1906 125.152C57.6724 123.604 60.3805 121.67 62.5083 119.736C64.6361 117.801 66.1836 116.061 67.3442 114.513L61.7346 102.907L48.7744 108.903L41.8108 94.2024L70.0523 80.8553L88.0417 118.769Z" fill="white"/>
<path d="M81.8522 70.9905L98.1007 66.5415L100.422 75.0526H100.615C101.389 71.3773 102.937 68.2824 104.871 65.9612C106.805 63.64 109.513 62.0925 113.189 61.1253C114.156 60.9319 115.123 60.7384 116.09 60.545C117.057 60.3516 118.024 60.3516 118.798 60.3516L122.86 75.2461C121.7 75.2461 120.346 75.246 119.185 75.4395C118.024 75.6329 116.864 75.8264 115.51 76.2132C112.415 76.987 110.094 78.1476 108.546 79.5016C106.999 80.8557 105.838 82.4031 105.258 84.3375C104.677 86.0784 104.484 88.2062 104.871 90.5274C105.258 92.8486 105.645 95.1698 106.418 97.8779L112.415 119.93L96.1663 124.379L81.8522 70.9905Z" fill="white"/>
<path d="M164.448 75.8263C164.254 72.9248 162.9 70.6036 160.773 68.8626C158.645 67.1217 155.937 66.348 152.842 66.7349C150.907 66.9283 149.36 67.5086 148.006 68.2823C146.652 69.0561 145.491 70.0232 144.718 70.9904C143.75 71.9576 143.17 73.3116 142.783 74.4722C142.396 75.8263 142.203 77.1803 142.396 78.5344L164.448 75.8263ZM181.664 97.8779C179.342 101.553 176.441 104.648 172.572 107.163C168.703 109.484 164.641 111.031 160.192 111.612C155.937 112.192 152.068 111.999 148.199 111.031C144.331 110.064 140.849 108.71 137.947 106.582C134.852 104.455 132.338 101.747 130.403 98.4582C128.469 95.1698 127.115 91.3011 126.535 87.0455C125.954 82.79 126.341 78.7278 127.502 75.0526C128.662 71.3773 130.403 68.0889 132.725 65.1874C135.046 62.2859 138.141 59.9646 141.623 58.2237C145.104 56.4828 148.973 55.3222 153.229 54.7419C157.097 54.1616 160.773 54.5485 164.061 55.5156C167.349 56.4828 170.251 58.0303 172.766 60.1581C175.28 62.2859 177.408 65.1874 178.956 68.4758C180.503 71.7642 181.664 75.6329 182.244 79.8884L182.824 85.1112L143.944 89.947C145.104 93.042 146.845 95.3632 149.167 97.1041C151.681 98.6516 154.583 99.2319 157.871 98.8451C160.579 98.4582 162.9 97.6844 164.641 96.137C166.382 94.5895 167.93 92.8486 169.09 90.7208L181.664 97.8779Z" fill="white"/>
<path d="M226.735 75.0523C226.928 72.1508 226.154 69.8296 224.22 67.7018C222.286 65.574 219.964 64.4134 216.869 64.4134C214.935 64.4134 213.388 64.6068 211.84 65.1871C210.293 65.7675 209.132 66.3478 208.165 67.3149C207.198 68.2821 206.231 69.2493 205.65 70.4099C205.07 71.5705 204.683 72.9245 204.49 74.2786L226.735 75.0523ZM240.082 99.812C237.18 103.1 233.698 105.615 229.443 107.356C225.187 109.097 220.932 109.871 216.483 109.677C212.227 109.484 208.358 108.71 204.683 107.163C201.008 105.615 197.913 103.681 195.205 100.973C192.497 98.2645 190.562 95.1696 189.208 91.6877C187.854 88.0125 187.08 84.1438 187.274 79.6948C187.467 75.4392 188.435 71.3771 190.175 68.0887C191.916 64.6068 194.238 61.7053 196.946 59.3841C199.847 57.0629 203.136 55.1285 206.811 53.9679C210.486 52.8073 214.548 52.227 218.804 52.4204C222.673 52.6139 226.154 53.3876 229.249 54.9351C232.344 56.4826 235.052 58.4169 237.18 61.125C239.308 63.6397 240.855 66.7346 241.823 70.4099C242.79 73.8917 243.37 77.9539 243.177 82.2094L242.983 87.4322L203.909 85.6912C204.49 88.9796 205.844 91.4943 207.971 93.6221C210.099 95.5564 212.807 96.717 216.096 96.9105C218.804 97.1039 221.318 96.5236 223.253 95.363C225.187 94.2024 226.928 92.6549 228.476 90.7206L240.082 99.812Z" fill="white"/>
<path d="M256.332 56.2891L272.193 59.7709L270.646 66.928H270.839C271.613 65.9608 272.58 65.1871 273.741 64.4133C274.901 63.6396 276.255 62.8658 277.803 62.479C279.35 61.8987 280.898 61.7052 282.639 61.5118C284.38 61.3184 286.314 61.5118 288.248 61.8987C292.504 62.8658 295.599 64.2199 297.92 65.9608C300.241 67.7017 301.789 70.0229 302.756 72.5376C303.723 75.0522 304.11 77.9538 303.917 81.2422C303.723 84.3371 303.336 87.8189 302.563 91.4942L296.179 120.896L279.737 117.414L285.347 91.3008C285.734 89.7533 285.927 88.2058 286.121 86.4649C286.314 84.724 286.314 83.1765 286.121 81.629C285.927 80.0816 285.347 78.7275 284.38 77.7603C283.413 76.5997 281.865 75.826 279.737 75.4391C277.609 75.0522 275.869 75.0522 274.321 75.4391C272.774 76.0194 271.613 76.7932 270.646 77.9538C269.679 79.1144 268.905 80.4684 268.325 82.0159C267.744 83.5634 267.357 85.3043 266.971 87.0452L261.168 113.546L244.726 110.064L256.332 56.2891Z" fill="white"/>
<path d="M328.853 43.1119L300.966 123.317L316.861 128.843L344.748 48.6385L328.853 43.1119Z" fill="white"/>
<path d="M346.666 151.846C344.345 153.974 342.217 155.908 340.283 157.456C338.349 159.003 336.414 160.164 334.287 160.744C332.159 161.324 329.838 161.518 327.323 161.131C324.808 160.744 321.713 159.777 318.038 157.842C314.169 155.908 310.688 153.587 307.593 150.492L315.717 139.079C317.458 141.207 319.586 142.948 322.1 144.109C323.841 144.882 325.195 145.463 326.549 145.656C327.903 145.85 328.87 145.656 330.031 145.269C330.998 144.882 332.159 144.302 333.126 143.528C334.093 142.755 335.254 141.787 336.414 140.82L338.929 138.499L341.444 78.5342L357.886 86.465L354.791 125.152L354.984 125.345L381.678 98.0711L397.346 105.615L346.666 151.846Z" fill="white"/>
<path d="M43.1669 33.4651C43.1669 34.2388 42.9735 35.0125 42.5866 35.3994C42.1998 35.7863 41.6195 35.9797 41.0392 35.9797C40.4589 35.9797 39.8785 35.7863 39.4917 35.3994C39.1048 35.0125 38.9114 34.2388 38.9114 33.4651V3.09578C38.9114 2.32204 39.1048 1.5483 39.4917 1.16143C39.6851 0.58113 40.2654 0.387695 41.0392 0.387695C41.6195 0.387695 42.1998 0.58113 42.5866 0.968C42.9735 1.35487 43.1669 2.12861 43.1669 2.90235V16.2494H61.9301V3.09578C61.9301 2.32204 62.1236 1.5483 62.5104 1.16143C63.0907 0.58113 63.4776 0.387695 64.2513 0.387695C64.8316 0.387695 65.4119 0.58113 65.7988 0.968C66.1857 1.35487 66.3791 2.12861 66.3791 2.90235V33.4651C66.3791 34.2388 66.1857 35.0125 65.7988 35.3994C65.4119 35.7863 64.8316 35.9797 64.2513 35.9797C63.671 35.9797 63.0907 35.7863 62.7039 35.3994C62.317 35.0125 62.1236 34.2388 62.1236 33.4651V20.1181H43.3604V33.4651H43.1669Z" fill="#EBD8C8"/>
<path d="M79.34 22.6322C79.34 23.7928 79.5334 24.9534 79.7269 25.9206C79.9203 27.0812 80.3072 28.0483 81.0809 29.0155C81.6612 29.9827 82.435 30.7564 83.4021 31.3367C84.3693 31.917 85.5299 32.3039 86.884 32.3039C88.238 32.3039 89.3986 31.917 90.3658 31.3367C91.333 30.7564 92.1067 29.9827 92.687 29.0155C93.2673 28.0483 93.6542 27.0812 94.041 25.9206C94.2345 24.76 94.4279 23.5993 94.4279 22.6322C94.4279 21.4716 94.2345 20.3109 94.041 19.3438C93.8476 18.1832 93.4607 17.216 92.687 16.2488C92.1067 15.2816 91.333 14.5079 90.3658 13.9276C89.3986 13.3473 88.238 12.9604 86.884 12.9604C85.5299 12.9604 84.3693 13.3473 83.4021 13.9276C82.435 14.5079 81.6612 15.2816 81.0809 16.2488C80.5006 17.216 80.1137 18.1832 79.7269 19.3438C79.5334 20.5044 79.34 21.4716 79.34 22.6322ZM74.891 22.6322C74.891 20.8913 75.0844 19.1503 75.6647 17.6029C76.245 16.0554 77.0188 14.5079 77.986 13.3473C78.9531 12.1867 80.3072 11.0261 81.6612 10.4458C83.2087 9.67203 84.7562 9.28516 86.6905 9.28516C88.6249 9.28516 90.1723 9.67203 91.7198 10.4458C93.2673 11.2195 94.4279 12.1867 95.3951 13.3473C96.3623 14.5079 97.136 16.0554 97.7163 17.6029C98.2966 19.1503 98.49 20.8913 98.49 22.6322C98.49 24.3731 98.2966 26.114 97.7163 27.6615C97.136 29.209 96.3623 30.7564 95.3951 31.917C94.4279 33.0776 93.0739 34.2383 91.7198 34.8186C90.1723 35.5923 88.6249 35.9792 86.6905 35.9792C84.7562 35.9792 83.2087 35.5923 81.6612 34.8186C80.1137 34.0448 78.9531 33.0776 77.986 31.917C77.0188 30.7564 76.245 29.209 75.6647 27.6615C75.0844 26.114 74.891 24.3731 74.891 22.6322Z" fill="#EBD8C8"/>
<path d="M122.669 19.1503C122.669 17.216 122.088 15.8619 121.121 14.7013C120.154 13.5407 118.8 13.1539 116.865 13.1539C115.125 13.1539 113.577 13.7342 112.61 14.7013C111.643 15.8619 111.062 17.216 111.062 19.1503V33.8514C111.062 34.6251 110.869 35.2054 110.482 35.5923C110.095 35.9792 109.515 36.1726 108.935 36.1726C108.354 36.1726 107.774 35.9792 107.387 35.5923C107 35.2054 106.807 34.6251 106.807 33.8514V11.6064C106.807 10.8326 107 10.2523 107.387 9.86546C107.774 9.47859 108.354 9.28516 108.935 9.28516C109.515 9.28516 110.095 9.47859 110.482 9.86546C110.869 10.2523 111.062 10.8326 111.062 11.6064V12.3801H111.256C111.449 11.9932 111.836 11.6064 112.223 11.4129C112.61 11.0261 112.997 10.6392 113.577 10.4458C114.157 10.0589 114.738 9.86546 115.511 9.67203C116.285 9.47859 117.059 9.28516 118.026 9.28516C119.38 9.28516 120.541 9.67203 121.895 10.2523C123.249 10.8326 124.409 11.9932 125.57 13.7342C126.537 12.3801 127.698 11.2195 128.858 10.4458C130.212 9.67203 131.76 9.28516 133.694 9.28516C134.662 9.28516 135.822 9.47859 136.983 9.86546C138.143 10.2523 139.111 10.8326 139.884 11.6064C140.851 12.3801 141.625 13.3473 142.205 14.7013C142.786 15.8619 142.979 17.4094 142.979 19.1503V33.6579C142.979 34.4317 142.786 35.012 142.399 35.3989C142.012 35.7857 141.432 35.9792 140.851 35.9792C140.271 35.9792 139.691 35.7857 139.304 35.3989C138.917 35.012 138.724 34.4317 138.724 33.6579V19.1503C138.724 17.216 138.143 15.8619 137.176 14.7013C136.209 13.5407 134.855 13.1539 132.921 13.1539C131.18 13.1539 129.632 13.7342 128.665 14.7013C127.698 15.8619 127.118 17.216 127.118 19.1503V33.8514C127.118 34.6251 126.924 35.2054 126.537 35.5923C126.15 35.9792 125.57 36.1726 124.99 36.1726C124.409 36.1726 123.829 35.9792 123.442 35.5923C123.055 35.2054 122.862 34.6251 122.862 33.8514V19.1503H122.669Z" fill="#EBD8C8"/>
<path d="M170.061 21.0841C170.061 20.1169 169.867 19.1498 169.674 18.1826C169.48 17.2154 168.9 16.4417 168.32 15.6679C167.739 14.8942 166.966 14.3139 166.192 13.7336C165.225 13.1533 164.258 12.9599 163.097 12.9599C161.743 12.9599 160.582 13.1533 159.615 13.5402C158.648 13.927 157.874 14.7008 157.294 15.4745C156.714 16.2483 156.327 17.022 155.94 18.1826C155.746 19.1498 155.553 20.1169 155.553 21.0841H170.061ZM155.36 24.3725C155.36 25.5331 155.553 26.5003 155.94 27.4675C156.327 28.4346 156.907 29.2084 157.487 29.9821C158.261 30.7559 159.035 31.3362 160.002 31.723C160.969 32.1099 162.13 32.3033 163.29 32.3033C164.838 32.3033 165.998 32.1099 166.966 31.723C167.933 31.3362 168.707 30.9493 169.48 30.5624C170.061 30.1756 170.641 29.7887 171.221 29.4018C171.608 29.015 172.188 28.8215 172.575 28.8215C172.962 28.8215 173.349 29.015 173.736 29.4018C174.123 29.7887 174.316 30.1756 174.316 30.7559C174.316 31.3362 173.929 31.9165 173.349 32.4968C172.769 33.0771 171.995 33.6574 170.834 34.2377C169.867 34.818 168.707 35.2049 167.353 35.5917C165.998 35.9786 164.838 36.172 163.484 36.172C161.356 36.172 159.422 35.7852 157.874 35.0114C156.327 34.2377 154.973 33.2705 154.006 32.1099C153.038 30.9493 152.265 29.4018 151.878 27.8543C151.491 26.3069 151.104 24.566 151.104 22.825C151.104 21.0841 151.297 19.3432 151.878 17.7957C152.458 16.2482 153.232 14.7008 154.199 13.5402C155.166 12.3796 156.52 11.4124 157.874 10.6386C159.422 9.8649 160.969 9.47803 162.904 9.47803C164.644 9.47803 166.385 9.8649 167.739 10.6386C169.093 11.4124 170.447 12.3796 171.415 13.5402C172.382 14.7008 173.156 16.0548 173.736 17.6023C174.316 19.1498 174.51 20.6973 174.51 22.2447C174.51 23.0185 174.316 23.5988 173.929 23.9856C173.542 24.3725 172.962 24.566 171.995 24.566H155.36V24.3725Z" fill="#EBD8C8"/>
<path d="M267.745 19.7304C267.165 19.7304 266.584 19.5369 266.197 19.1501C265.81 18.7632 265.617 18.3763 265.617 17.6026C265.617 16.8288 265.81 16.442 266.197 16.0551C266.584 15.6682 267.165 15.4748 267.745 15.4748H275.095C276.256 15.4748 277.03 15.6682 277.61 16.2485C278.19 16.8288 278.384 17.6026 278.384 19.1501C278.384 21.2778 278.19 23.4056 277.61 25.34C277.223 27.2743 276.256 29.2087 275.289 30.7561C274.128 32.3036 272.581 33.6577 270.646 34.6248C268.712 35.592 266.197 35.9789 263.102 35.9789C260.588 35.9789 258.267 35.3986 256.332 34.4314C254.398 33.4642 252.657 32.1102 251.496 30.3693C250.142 28.6284 249.175 26.8874 248.595 24.5662C248.014 22.4384 247.628 20.1172 247.628 17.9894C247.628 15.6682 248.014 13.5404 248.595 11.4127C249.175 9.28487 250.336 7.35053 251.496 5.60961C252.85 3.8687 254.591 2.70809 256.526 1.54748C258.653 0.580305 260.975 0 263.876 0C265.81 0 267.358 0.193435 268.905 0.580305C270.453 0.967174 271.614 1.54748 272.774 2.12778C273.935 2.70809 274.708 3.28839 275.289 4.06213C275.869 4.64244 276.256 5.22274 276.256 5.80305C276.256 6.38335 276.063 6.77022 275.676 7.35053C275.095 7.93083 274.515 8.12426 273.935 8.12426C273.354 8.12426 272.774 7.93083 272.194 7.54396C271.614 7.15709 271.033 6.77022 270.259 6.18992C269.486 5.60961 268.519 5.22274 267.551 4.83587C266.391 4.449 265.037 4.25557 263.489 4.25557C261.555 4.25557 259.814 4.64244 258.267 5.60961C256.912 6.38335 255.752 7.54396 254.785 8.898C253.818 10.252 253.237 11.7995 252.85 13.347C252.463 15.0879 252.27 16.6354 252.27 18.3763C252.27 20.1172 252.463 21.6647 252.85 23.4056C253.237 25.1465 254.011 26.5006 254.785 27.8546C255.752 29.2087 256.912 30.3693 258.267 31.143C259.814 31.9168 261.555 32.3036 263.489 32.3036C265.23 32.3036 266.778 31.9168 268.132 31.3365C269.486 30.7561 270.453 29.789 271.42 28.8218C272.194 27.8546 272.968 26.694 273.354 25.34C273.741 24.1794 273.935 22.8253 273.935 21.6647V19.7304H267.745Z" fill="#EBD8C8"/>
<path d="M282.252 11.6064C282.252 10.8326 282.445 10.2523 282.832 9.86546C283.219 9.47859 283.799 9.28516 284.379 9.28516C284.96 9.28516 285.54 9.47859 285.927 9.86546C286.314 10.2523 286.507 10.8326 286.507 11.6064V12.5735L286.701 12.767C287.668 11.6064 288.828 10.6392 290.182 10.0589C291.536 9.47859 292.89 9.28516 294.245 9.28516C295.212 9.28516 296.372 9.47859 297.533 9.86546C298.694 10.2523 299.661 10.8326 300.434 11.6064C301.402 12.3801 302.175 13.3473 302.756 14.7013C303.336 16.0554 303.723 17.6029 303.723 19.3438V33.8514C303.723 34.6251 303.529 35.2054 303.143 35.5923C302.756 35.9792 302.175 36.1726 301.595 36.1726C301.015 36.1726 300.434 35.9792 300.048 35.5923C299.661 35.2054 299.467 34.6251 299.467 33.8514V19.5372C299.467 18.3766 299.274 17.4094 298.887 16.6357C298.5 15.8619 298.113 15.0882 297.533 14.7013C296.953 14.121 296.372 13.7342 295.599 13.5407C294.825 13.3473 294.051 13.1539 293.471 13.1539C292.697 13.1539 291.923 13.3473 291.343 13.5407C290.569 13.7342 289.989 14.121 289.409 14.7013C288.828 15.2816 288.248 15.8619 288.055 16.6357C287.668 17.4094 287.474 18.3766 287.474 19.5372V33.8514C287.474 34.6251 287.281 35.2054 286.894 35.5923C286.507 35.9792 285.927 36.1726 285.347 36.1726C284.766 36.1726 284.186 35.9792 283.799 35.5923C283.412 35.2054 283.219 34.6251 283.219 33.8514V11.6064H282.252Z" fill="#EBD8C8"/>
<path d="M312.622 22.6322C312.622 23.7928 312.816 24.9534 313.009 25.9206C313.203 27.0812 313.59 28.0483 314.17 29.0155C314.75 29.9827 315.524 30.7564 316.491 31.3367C317.458 31.917 318.619 32.3039 319.973 32.3039C321.327 32.3039 322.488 31.917 323.455 31.3367C324.422 30.7564 325.196 29.9827 325.776 29.0155C326.356 28.0483 326.743 27.0812 327.13 25.9206C327.324 24.76 327.517 23.5993 327.517 22.6322C327.517 21.4716 327.324 20.3109 327.13 19.3438C326.937 18.1832 326.55 17.216 325.776 16.2488C325.196 15.2816 324.422 14.5079 323.455 13.9276C322.488 13.3473 321.327 12.9604 319.973 12.9604C318.619 12.9604 317.458 13.3473 316.491 13.9276C315.524 14.5079 314.75 15.2816 314.17 16.2488C313.59 17.216 313.203 18.1832 313.009 19.3438C312.816 20.5044 312.622 21.4716 312.622 22.6322ZM308.173 22.6322C308.173 20.8913 308.367 19.1503 308.947 17.6029C309.528 16.0554 310.301 14.5079 311.268 13.3473C312.236 12.1867 313.59 11.0261 314.944 10.4458C316.491 9.67203 318.039 9.28516 319.973 9.28516C321.907 9.28516 323.455 9.67203 325.002 10.4458C326.55 11.2195 327.71 12.1867 328.678 13.3473C329.645 14.5079 330.418 16.0554 330.999 17.6029C331.579 19.1503 331.773 20.8913 331.773 22.6322C331.773 24.3731 331.579 26.114 330.999 27.6615C330.418 29.209 329.645 30.7564 328.678 31.917C327.71 33.0776 326.356 34.2383 325.002 34.8186C323.455 35.5923 321.907 35.9792 319.973 35.9792C318.039 35.9792 316.491 35.5923 314.944 34.8186C313.396 34.0448 312.236 33.0776 311.268 31.917C310.301 30.7564 309.528 29.209 308.947 27.6615C308.367 26.114 308.173 24.3731 308.173 22.6322Z" fill="#EBD8C8"/>
<path d="M352.276 19.1503C352.276 17.216 351.695 15.8619 350.728 14.7013C349.761 13.5407 348.407 13.1539 346.472 13.1539C344.732 13.1539 343.184 13.7342 342.217 14.7013C341.25 15.8619 340.669 17.216 340.669 19.1503V33.8514C340.669 34.6251 340.476 35.2054 340.089 35.5923C339.702 35.9792 339.122 36.1726 338.542 36.1726C337.961 36.1726 337.381 35.9792 336.994 35.5923C336.607 35.2054 336.414 34.6251 336.414 33.8514V11.6064C336.414 10.8326 336.607 10.2523 336.994 9.86546C337.381 9.47859 337.961 9.28516 338.542 9.28516C339.122 9.28516 339.702 9.47859 340.089 9.86546C340.476 10.2523 340.669 10.8326 340.669 11.6064V12.3801H340.863C341.056 11.9932 341.443 11.6064 341.83 11.4129C342.217 11.0261 342.604 10.6392 343.184 10.4458C343.764 10.0589 344.345 9.86546 345.118 9.67203C345.892 9.47859 346.666 9.28516 347.633 9.28516C348.987 9.28516 350.148 9.67203 351.502 10.2523C352.856 10.8326 354.016 11.9932 354.984 13.7342C355.951 12.3801 357.111 11.2195 358.272 10.4458C359.626 9.67203 361.174 9.28516 363.108 9.28516C364.075 9.28516 365.236 9.47859 366.203 9.86546C367.363 10.2523 368.331 10.8326 369.104 11.6064C370.072 12.3801 370.845 13.3473 371.426 14.7013C372.006 16.0554 372.393 17.6029 372.393 19.3438V33.8514C372.393 34.6251 372.199 35.2054 371.812 35.5923C371.426 35.9792 370.845 36.1726 370.265 36.1726C369.685 36.1726 369.104 35.9792 368.717 35.5923C368.331 35.2054 368.137 34.6251 368.137 33.8514V19.1503C368.137 17.216 367.557 15.8619 366.59 14.7013C365.623 13.5407 364.268 13.1539 362.334 13.1539C360.593 13.1539 359.046 13.7342 358.079 14.7013C357.111 15.8619 356.531 17.216 356.531 19.1503V33.8514C356.531 34.6251 356.338 35.2054 355.951 35.5923C355.564 35.9792 354.984 36.1726 354.403 36.1726C353.823 36.1726 353.243 35.9792 352.856 35.5923C352.469 35.2054 352.276 34.6251 352.276 33.8514V19.1503Z" fill="#EBD8C8"/>
<path d="M395.8 21.0841C395.8 20.1169 395.606 19.1498 395.413 18.1826C395.219 17.2154 394.639 16.4417 394.059 15.6679C393.478 14.8942 392.705 14.3139 391.931 13.7336C390.964 13.1533 389.997 12.9599 388.836 12.9599C387.482 12.9599 386.321 13.1533 385.354 13.5402C384.387 13.927 383.613 14.7008 383.033 15.4745C382.453 16.2483 382.066 17.022 381.679 18.1826C381.486 19.1498 381.292 20.1169 381.292 21.0841H395.8ZM381.099 24.3725C381.099 25.5331 381.292 26.5003 381.679 27.4675C382.066 28.4346 382.453 29.2084 383.226 29.9821C384 30.7559 384.774 31.3362 385.741 31.723C386.708 32.1099 387.869 32.3033 389.029 32.3033C390.577 32.3033 391.738 32.1099 392.705 31.723C393.672 31.3362 394.446 30.9493 395.219 30.5624C395.8 30.1756 396.38 29.7887 396.96 29.4018C397.347 29.015 397.927 28.8215 398.314 28.8215C398.701 28.8215 399.088 29.015 399.475 29.4018C399.862 29.7887 400.055 30.1756 400.055 30.7559C400.055 31.3362 399.668 31.9165 399.088 32.4968C398.508 33.0771 397.734 33.6574 396.573 34.2377C395.606 34.818 394.446 35.2049 393.092 35.5917C391.738 35.9786 390.577 36.172 389.223 36.172C387.095 36.172 385.161 35.7852 383.613 35.0114C382.066 34.2377 380.712 33.2705 379.745 32.1099C378.777 30.9493 378.004 29.4018 377.617 27.8543C377.23 26.3069 376.843 24.566 376.843 22.825C376.843 21.0841 377.037 19.3432 377.617 17.7957C378.197 16.2482 378.971 14.7008 379.938 13.5402C380.905 12.3796 382.259 11.4124 383.613 10.6386C385.161 9.8649 386.708 9.47803 388.643 9.47803C390.384 9.47803 392.124 9.8649 393.478 10.6386C394.833 11.4124 396.187 12.3796 397.154 13.5402C398.121 14.7008 398.895 16.0548 399.475 17.6023C400.055 19.1498 400.249 20.6973 400.249 22.2447C400.249 23.0185 400.055 23.5988 399.668 23.9856C399.282 24.3725 398.701 24.566 397.734 24.566H381.099V24.3725Z" fill="#EBD8C8"/>
</svg>
