<svg width="520" height="281" viewBox="0 0 520 281" fill="none" xmlns="http://www.w3.org/2000/svg">
<path d="M23.5325 154.479L28.5836 151.057L35.5478 157.128L85.8067 153.926L69.752 175.008L65.183 180.099L66.7482 183.885L61.9183 195.505L54.6063 194.984L39.0733 207.386L38.1564 218.572C38.1564 218.572 31.3661 219.18 31.3661 218.572C31.3661 217.963 30.5361 203.734 30.5361 203.734L33.9747 201.387C33.9747 201.387 30.2753 197.403 29.6666 196.422C29.0579 195.45 25.145 189.854 25.145 189.854L25.232 186.375L17.1375 175.933L25.232 158.052C25.232 158.052 22.4495 155.649 22.4653 155.602C22.4969 155.539 23.5325 154.479 23.5325 154.479Z" fill="#A37A58"/>
<path d="M177.449 188.715L176.144 208.817L186.326 215.347L196.507 208.556L200.681 210.73L198.855 221.086L200.681 223.694V242.761H205.376L208.768 238.587L212.42 238.848L219.21 248.247H224.957L240.624 263.131H246.632L247.936 261.044V257.653L255.77 255.566L268.56 254.523L302.242 249.828V254.523V259.748L310.337 264.444L324.7 260.27L333.838 266.799L357.592 254.27L365.686 255.574L369.338 252.966L375.085 253.748L383.18 232.864L379.267 226.208L396.238 204.146L381.354 138.875L337.229 89.0117L315.301 86.9248L307.728 92.1499L305.38 91.3673C305.38 91.3673 304.076 89.0196 305.38 88.237C306.685 87.4545 317.649 73.874 317.649 73.874L313.475 65.5186L270.133 75.4391L265.817 83.5337L255.77 83.7945L254.465 89.8022L258.117 95.0273L258.639 102.078L254.465 105.47L185.282 171.261L177.449 188.715Z" fill="#A37A58"/>
<path d="M127.923 207.252L132.271 204.643L127.923 194.201L130.097 192.114L136.626 196.462C136.626 196.462 142.721 195.94 142.721 195.418C142.721 194.897 139.591 179.751 139.591 179.229C139.591 178.707 227.311 190.889 227.311 190.889L229.224 207.252L237.753 210.73C237.753 210.73 248.48 165.712 248.543 164.779C248.606 163.846 248.543 162.518 248.543 162.518L254.638 155.586L260.21 157.127L267.175 151.207L265.823 125.966L258.819 122.314L256.385 104.038H253.776C253.776 104.038 249.254 93.5962 248.725 93.5962C248.195 93.5962 244.899 94.9874 244.899 94.9874L245.942 101.952L243.334 103.865L234.804 99.1691L229.231 103.517L228.536 114.133L231.144 116.046L225.224 122.314L219.651 120.401L226.267 97.9517H228.528L232.006 83.6756C232.006 83.6756 227.658 79.8497 227.484 80.3714C227.311 80.8931 214.086 95.3431 214.086 95.3431L215.651 104.916C215.651 104.916 212.347 108.568 212.173 108.046C211.999 107.524 204.513 90.4659 203.991 89.5963C203.47 88.7268 199.992 89.2485 199.992 89.2485L196.513 94.1258L183.289 80.324C183.289 80.324 165.187 80.2765 164.143 80.324C163.1 80.3714 161.535 82.4583 161.535 82.4583L157.882 80.3003L158.404 76.0158H163.629L165.89 72.1899C165.89 72.1899 162.76 68.8857 162.064 69.5813C161.369 70.2769 155.622 74.1029 155.622 74.1029L155.1 77.4071L150.405 79.8418L148.839 73.0515L135.789 72.182C135.789 72.182 132.658 77.7549 131.963 77.4071C131.267 77.0593 124.129 75.3202 124.129 75.3202L123.259 64.5301L130.397 61.3998L134.049 48.8707H135.962L141.535 66.2771L150.412 66.7988L155.811 58.4434L153.377 35.1242L141.195 29.5513L135.623 34.4285L137.014 37.0371L135.275 40.8631L128.137 40.3414L124.137 47.6533L121.006 46.7838C121.006 46.7838 111.26 56.1826 110.738 56.1826C110.216 56.1826 108.825 62.6251 108.825 62.6251L90.5492 58.4513C90.5492 58.4513 59.918 74.6404 59.918 74.4665C59.918 74.2926 64.7952 106.315 64.7952 106.315L48.7801 158.005L46.5193 163.056L52.44 170.194L47.7445 191.6L51.5705 196.477C51.5705 196.477 54.7008 194.043 54.7008 193.521C54.7008 192.999 55.3964 182.557 55.5703 181.34C55.7442 180.122 62.7084 172.637 62.7084 172.115C62.7084 171.593 59.4042 160.107 59.4042 160.107C59.4042 160.107 77.1584 163.238 77.5062 163.933C77.854 164.629 79.0714 178.209 79.0714 178.209L82.3756 178.731C82.3756 178.731 88.4702 172.463 88.818 171.941C89.1658 171.419 115.797 193.347 115.797 193.347L123.109 207.441L127.923 207.252Z" fill="#506A40"/>
<path d="M255.769 255.55C255.769 254.507 255.769 242.76 255.769 242.76L270.132 238.065L275.096 227.362L293.372 224.753L305.38 234.152L285.017 258.696L265.824 255.566H255.769V255.55Z" fill="#506A40"/>
<path d="M475.468 0.872559C475.207 0.872559 436.694 19.5359 436.694 19.5359L436.173 31.9385L444.915 32.1994L445.437 37.4245L429.382 54.3962L424.948 54.1353L423.122 48.6493L416.592 49.5663L406.798 63.1389L405.233 63.3998C405.233 63.3998 392.965 56.483 392.704 56.8704C392.443 57.2656 389.439 60.2615 389.439 60.2615L391.922 68.7434L388.657 70.5694L385.266 65.4787L377.045 70.0477L377.566 81.0117L365.298 94.0626L356.421 88.0549L357.86 83.6203L352.508 78.3952C352.508 78.3952 322.612 82.8298 322.225 82.7033C321.837 82.5769 315.308 86.8771 315.308 86.8771L318.699 87.6597C320.525 87.3988 328.88 95.2325 328.88 95.2325V102.023C328.88 102.023 318.438 107.509 318.699 107.509C318.96 107.509 323.79 111.943 323.79 111.943L330.454 127.611L324.58 132.045L332.287 173.293L355.52 170.684L358.128 178.518L368.049 181.909C368.049 181.909 381.882 221.33 382.673 221.852C383.463 222.374 424.703 228.381 424.703 228.381L437.232 245.353H442.979L447.413 232.563L452.378 232.824L456.03 258.673H449.239C449.239 258.673 446.37 263.637 447.413 263.898C448.457 264.159 452.378 268.593 452.378 268.593L450.812 279.036C450.812 279.036 452.378 280.862 453.16 280.601C453.943 280.34 467.523 272.506 467.523 272.506L474.314 229.954L463.35 197.323V194.715L457.864 188.446L458.646 185.316L455.516 182.186C455.516 182.186 446.639 182.723 446.639 184.154C446.639 185.585 446.639 190.541 446.639 190.541L443.769 191.845L440.639 188.715L432.544 191.324L430.718 188.976L438.552 174.613L434.117 151.38L454.48 130.757L453.698 126.061L459.184 122.148L465.191 127.374L469.104 125.287L462.836 96.0467L466.488 93.1772L466.749 88.7426L469.618 87.6913C469.618 87.6913 470.922 94.4894 471.705 94.2207C472.488 93.9519 476.4 93.4381 476.4 93.4381L474.29 83.7626L476.377 82.7192L473.768 77.4071L476.377 75.4072L482.384 82.1974L478.732 90.292L486.566 110.133L483.175 114.046L483.697 119.01L487.349 120.141L489.435 132.583L515.284 150.598L519.719 143.547L514.494 133.887L516.059 131.018L510.312 123.967L511.095 118.481L513.442 116.655L513.182 113.524L506.391 111.437L500.384 103.865L500.645 99.2956L497.902 98.1178L495.554 100.861L493.333 100.995C493.333 100.995 487.981 88.7268 487.586 88.466C487.191 88.2051 487.586 86.1182 487.586 86.1182L490.716 82.4662L488.234 80.7667L493.981 68.364L500.897 66.2771L500.241 64.1902H496.328L491.499 38.4758L497.372 32.8634C497.372 32.8634 495.546 28.6896 494.89 29.2114C494.234 29.7331 479.618 32.2152 479.618 32.2152L478.313 27.7806L481.317 26.0811C481.341 26.0652 475.729 0.872559 475.468 0.872559Z" fill="#506A40"/>
<path d="M464.236 172.661L462.797 174.36L466.322 179.324V181.024H464.56L465.405 185.071L468.275 186.51V190.818L480.804 202.96V211.054L485.373 212.232C485.373 212.232 488.638 224.113 489.159 223.979C489.681 223.844 493.594 226.2 493.594 226.2L492.416 222.026L492.282 219.939L498.029 219.418L496.59 216.414L492.416 216.153L487.721 212.106L487.065 202.446L488.63 200.881C488.63 200.881 492.804 202.968 492.804 202.446C492.804 201.924 493.064 198.92 492.938 199.442C492.804 199.964 476.749 190.178 476.749 190.178L472.702 184.304L473.484 181.822L464.236 172.661Z" fill="#506A40"/>
<path d="M36.8991 199.07C36.8991 199.07 32.8992 192.628 32.5514 191.758C32.2036 190.889 39.6895 170.352 39.6895 170.352L32.5435 159.562L39.6895 144.764L32.5435 140.764L26.6386 111.35L28.7255 108.916L33.1601 109.611L38.82 96.0388H42.2981L44.211 92.2129L40.559 84.9009L50.6535 77.415L71.1902 81.5888V93.0745L92.9443 92.7267L99.0389 84.7191L110.525 83.8496L122.184 106.473H137.852L142.373 117.263L150.729 117.785L153.859 113.959L186.925 124.054L189.707 147.373H204.679L206.418 174.874L212.861 175.221C212.861 175.221 214.252 168.819 214.947 168.716C215.643 168.605 218.078 168.716 218.078 168.716L219.991 159.032C219.991 159.032 254.63 165.127 254.804 164.605C254.977 164.084 262.811 182.707 262.811 182.707C262.811 182.707 281.609 184.62 281.957 185.142C282.304 185.664 273.601 206.2 273.601 206.2L275.34 218.556L235.484 211.592L234.615 200.106L225.216 196.28C225.216 196.28 201.897 197.497 201.549 196.976C201.201 196.454 192.15 184.272 192.15 184.272L177.7 194.889L142.191 183.403L136.792 185.664V193.845L138.358 194.889L138.705 196.628L135.575 198.193L130.176 195.236L123.908 199.062L126.69 208.983L121.995 211.244L92.059 191.75L93.1024 176.953L76.0438 172.779L71.3483 178.526L69.2614 177.482L66.4789 168.716H59.8626L56.2106 164.257L48.7247 165.127L50.116 170.874L41.4206 182.541L41.2467 196.288L36.8991 199.07Z" fill="#9A2F26"/>
<path d="M25.5894 153.127L37.423 168.724C37.423 168.724 35.0752 178.447 35.0752 178.707C35.0752 178.968 21.8505 182.099 21.6766 181.838C21.5027 181.577 15.7558 175.656 15.5819 175.395C15.408 175.134 14.9733 155.578 14.9733 155.578L18.5383 153.981L20.7122 156.329L25.5894 153.127Z" fill="#506A40"/>
<path d="M12.1813 151.815C12.5292 151.815 14.5291 151.989 14.5291 151.815C14.5291 151.641 14.9638 149.902 14.9638 149.902L11.3118 144.416L12.1813 137.104L4.0868 133.018L2.43469 135.452L3.99984 137.191L3.65203 140.409L0 141.547L0.521719 144.416L5.48595 145.112L12.1813 151.815Z" fill="#506A40"/>
<path d="M25.1538 189.845C25.0669 190.106 22.5452 195.07 22.5452 195.07L25.1538 197.505H27.2407C27.2407 197.505 28.7189 196.375 28.8058 196.114C28.8928 195.853 30.5449 191.766 30.5449 191.766L28.7189 189.853H25.1538V189.845Z" fill="#506A40"/>
<path d="M73.4039 122.275C74.5564 122.275 75.4908 121.34 75.4908 120.188C75.4908 119.035 74.5564 118.101 73.4039 118.101C72.2513 118.101 71.317 119.035 71.317 120.188C71.317 121.34 72.2513 122.275 73.4039 122.275Z" stroke="white" stroke-width="0.631498" stroke-miterlimit="10"/>
<path d="M172.546 169.578C173.699 169.578 174.633 168.643 174.633 167.491C174.633 166.338 173.699 165.404 172.546 165.404C171.394 165.404 170.46 166.338 170.46 167.491C170.46 168.643 171.394 169.578 172.546 169.578Z" stroke="white" stroke-width="0.631498" stroke-miterlimit="10"/>
<path d="M356.263 208.706C357.415 208.706 358.349 207.772 358.349 206.62C358.349 205.467 357.415 204.533 356.263 204.533C355.11 204.533 354.176 205.467 354.176 206.62C354.176 207.772 355.11 208.706 356.263 208.706Z" stroke="white" stroke-width="0.631498" stroke-miterlimit="10"/>
<path d="M101.536 181.853C102.688 181.853 103.622 180.919 103.622 179.767C103.622 178.614 102.688 177.68 101.536 177.68C100.383 177.68 99.4487 178.614 99.4487 179.767C99.4487 180.919 100.383 181.853 101.536 181.853Z" stroke="white" stroke-width="0.631498" stroke-miterlimit="10"/>
<path d="M288.273 179.988C289.426 179.988 290.36 179.053 290.36 177.901C290.36 176.748 289.426 175.814 288.273 175.814C287.12 175.814 286.186 176.748 286.186 177.901C286.186 179.053 287.12 179.988 288.273 179.988Z" stroke="white" stroke-width="0.631498" stroke-miterlimit="10"/>
<path d="M115.054 145.902C116.207 145.902 117.141 144.968 117.141 143.815C117.141 142.663 116.207 141.729 115.054 141.729C113.902 141.729 112.967 142.663 112.967 143.815C112.967 144.968 113.902 145.902 115.054 145.902Z" stroke="white" stroke-width="0.631498" stroke-miterlimit="10"/>
<path d="M265.815 265.558V250.42L280.573 246.76L286.186 233.535L307.892 230.231L316.943 237.187L310.857 256.507L304.161 253.55L296.407 260.688L296.233 264.166L300.067 269.913L296.059 276.522L279.522 272.348L275.522 264.166L265.815 265.558Z" fill="#9A2F26"/>
</svg>
