<svg width="51" height="46" viewBox="0 0 51 46" fill="none" xmlns="http://www.w3.org/2000/svg">
<path d="M50.6187 25.0288C51.9133 12.2555 43.5847 2.93442 42.3764 0C42.3333 0.12946 42.4627 4.22901 32.7964 14.1111C23.9069 23.1301 26.4529 31.8902 28.179 40.3482C26.9276 41.3407 24.0363 43.8868 23.9069 43.8436C23.7342 43.8005 22.526 41.1681 22.3533 40.0461C31.8039 16.4845 1.94189 12.5144 0 12.3418C6.47298 23.6479 -1.81243 37.198 19.2895 41.1681C19.2895 41.1681 16.6571 28.2222 9.23478 20.9724C18.2106 27.1433 18.9442 35.3856 21.1451 40.8229C22.6986 44.7067 23.389 45.1814 23.7774 45.1814C24.2089 45.2245 27.1433 42.9806 28.9558 41.8154C37.0254 36.637 42.4196 26.9276 42.5922 17.9517C43.7142 30.0778 37.457 39.3557 30.5956 42.3764C42.3764 41.2544 49.7125 33.9184 50.6187 25.0288Z" fill="#3C6743"/>
</svg>
