<svg width="45" height="79" viewBox="0 0 45 79" fill="none" xmlns="http://www.w3.org/2000/svg">
<path d="M2.30263 0.469398V30.6539H1.26892L2.09588 29.9303C2.09588 29.9303 2.61274 30.6539 3.64646 31.6877C6.54086 35.0989 13.1566 42.335 18.9455 46.6766C24.0107 50.5013 28.8692 53.189 32.4872 54.9463C34.3479 55.7733 35.7951 56.4969 36.8288 56.9104C37.8625 57.3239 38.4828 57.5306 38.4828 57.5306L44.0648 59.3913L38.1726 59.598C38.1726 59.598 37.5524 59.598 36.5187 59.598C32.4872 59.598 22.2534 59.3913 14.5005 56.9104C8.50493 55.0497 0.855404 50.5013 0.855404 50.5013L1.37226 49.571H2.40598V78.8252H0.235199V47.917L1.78578 48.8474C1.78578 48.8474 3.64646 49.9845 6.23075 51.2249C8.81504 52.5688 12.1229 54.1193 15.0174 54.9463C22.3567 57.2205 32.5906 57.5306 36.4153 57.5306C37.449 57.5306 38.0692 57.5306 38.0692 57.5306V58.5643L37.7591 59.598C37.6558 59.598 27.9388 56.2902 17.6016 48.4339C9.53865 42.335 0.441924 31.2742 0.441924 31.2742L0.235199 30.9641V0.366028H2.30263V0.469398Z" fill="#3C6743"/>
</svg>
