<svg width="300" height="50" viewBox="0 0 300 50" fill="none" xmlns="http://www.w3.org/2000/svg">
<path d="M0.499023 3.34652H247.954V2.20469L247.19 3.15622C247.19 3.15622 247.954 3.72713 249.101 4.86896C252.731 8.10415 260.947 15.3357 265.723 21.6158C269.927 27.1347 272.984 32.6535 274.894 36.6499C275.85 38.7433 276.614 40.2657 276.996 41.4076C277.378 42.5494 277.569 43.1203 277.569 43.1203L279.671 49.2101L279.862 42.7397C279.862 42.7397 279.862 41.9785 279.862 40.8366C279.862 36.4596 279.671 25.0413 276.996 16.4776C274.894 9.8169 269.927 1.44347 269.927 1.44347L268.971 2.01439V3.15622H300V0.872559H267.061L268.016 2.5853C268.016 2.5853 269.162 4.67866 270.691 7.53324C272.219 10.3878 273.939 14.0036 274.894 17.2388C277.378 25.4219 277.76 36.6499 277.76 41.0269C277.76 42.1688 277.76 42.7397 277.76 42.7397H278.907L280.053 42.3591C280.053 42.3591 276.423 31.5117 267.825 20.0934C261.138 11.3393 248.91 1.25317 248.91 1.25317L248.527 1.06286H0.5L0.499023 3.34652Z" fill="#AB8E77"/>
</svg>
